<?xml version="1.0" encoding="utf-8"?>
<!-- Generator: Adobe Illustrator 27.5.0, SVG Export Plug-In . SVG Version: 6.00 Build 0)  -->
<svg version="1.1" xmlns="http://www.w3.org/2000/svg" xmlns:xlink="http://www.w3.org/1999/xlink" x="0px" y="0px"
	 viewBox="0 0 750 500" style="enable-background:new 0 0 750 500;" xml:space="preserve">
<g id="BACKGROUND">
	<rect style="fill:#FFFFFF;" width="750" height="500"/>
</g>
<g id="OBJECT">
	<g>
		<path style="fill:#E7FAF9;" d="M145.384,438.657h377.683c33.287,0,76.75-1.152,101.372-23.553
			c24.622-22.401,35.162-59.116,26.173-91.166c-4.992-17.798-15.555-35.266-12.135-53.432c4.278-22.719,28.224-35.834,39.64-55.936
			c12.369-21.781,8.143-50.488-6.44-70.852c-14.583-20.365-37.928-33.117-62.138-39.54c-24.21-6.423-49.524-7.118-74.568-7.55
			c-70.881-1.22-142.649-0.724-211.395-18.036c-34.089-8.585-67.162-21.496-101.9-26.883c-36.362-5.639-75.695-2.211-106.294,18.227
			c-30.599,20.437-49.513,60.646-37.669,95.483c5.263,15.481,15.761,28.526,23.914,42.699c8.153,14.173,14.097,31.168,9.098,46.736
			c-4.609,14.352-17.358,24.243-26.797,35.996c-19.451,24.221-24.767,59.029-13.432,87.952S114.655,434.101,145.384,438.657z"/>
		<g>
			<g>
				<rect x="238.445" y="53.456" style="fill:#454F6B;" width="362.932" height="323.682"/>
				<g>
					<g>
						<g>
							<path style="fill:#CC6164;" d="M583.394,85.635c0-7.841-6.356-14.197-14.197-14.197H270.624
								c-7.841,0-14.197,6.356-14.197,14.197v28.393h326.967V85.635z"/>
							<path style="fill:#E7FAF9;" d="M256.427,114.028v230.931c0,7.841,6.356,14.197,14.197,14.197h298.574
								c7.841,0,14.197-6.356,14.197-14.197V114.028H256.427z"/>
						</g>
						<g>
							<g>
								<path style="fill:#E68799;" d="M303.893,172.247h-25.296c-2.613,0-4.732-2.119-4.732-4.732v-25.296
									c0-2.613,2.119-4.732,4.732-4.732h25.296c2.614,0,4.732,2.119,4.732,4.732v25.296
									C308.626,170.128,306.507,172.247,303.893,172.247z"/>
								<path style="fill:#9EE6E0;" d="M346.782,172.247h-25.296c-2.614,0-4.732-2.119-4.732-4.732v-25.296
									c0-2.613,2.119-4.732,4.732-4.732h25.296c2.613,0,4.732,2.119,4.732,4.732v25.296
									C351.514,170.128,349.395,172.247,346.782,172.247z"/>
								<path style="fill:#9EE6E0;" d="M389.67,172.247h-25.296c-2.613,0-4.732-2.119-4.732-4.732v-25.296
									c0-2.613,2.119-4.732,4.732-4.732h25.296c2.613,0,4.732,2.119,4.732,4.732v25.296
									C394.402,170.128,392.284,172.247,389.67,172.247z"/>
								<path style="fill:#9EE6E0;" d="M432.558,172.247h-25.296c-2.613,0-4.732-2.119-4.732-4.732v-25.296
									c0-2.613,2.119-4.732,4.732-4.732h25.296c2.613,0,4.732,2.119,4.732,4.732v25.296
									C437.29,170.128,435.172,172.247,432.558,172.247z"/>
								<path style="fill:#9EE6E0;" d="M475.447,172.247h-25.296c-2.613,0-4.732-2.119-4.732-4.732v-25.296
									c0-2.613,2.119-4.732,4.732-4.732h25.296c2.613,0,4.732,2.119,4.732,4.732v25.296
									C480.179,170.128,478.06,172.247,475.447,172.247z"/>
								<path style="fill:#9EE6E0;" d="M518.335,172.247h-25.296c-2.613,0-4.732-2.119-4.732-4.732v-25.296
									c0-2.613,2.119-4.732,4.732-4.732h25.296c2.614,0,4.732,2.119,4.732,4.732v25.296
									C523.067,170.128,520.948,172.247,518.335,172.247z"/>
								<path style="fill:#9EE6E0;" d="M561.223,172.247h-25.295c-2.614,0-4.732-2.119-4.732-4.732v-25.296
									c0-2.613,2.119-4.732,4.732-4.732h25.295c2.614,0,4.732,2.119,4.732,4.732v25.296
									C565.955,170.128,563.837,172.247,561.223,172.247z"/>
							</g>
							<g>
								<path style="fill:#E68799;" d="M303.893,215.073h-25.296c-2.613,0-4.732-2.119-4.732-4.732v-25.296
									c0-2.614,2.119-4.732,4.732-4.732h25.296c2.614,0,4.732,2.119,4.732,4.732v25.296
									C308.626,212.954,306.507,215.073,303.893,215.073z"/>
								<path style="fill:#9EE6E0;" d="M346.782,215.073h-25.296c-2.614,0-4.732-2.119-4.732-4.732v-25.296
									c0-2.614,2.119-4.732,4.732-4.732h25.296c2.613,0,4.732,2.119,4.732,4.732v25.296
									C351.514,212.954,349.395,215.073,346.782,215.073z"/>
								<path style="fill:#9EE6E0;" d="M389.67,215.073h-25.296c-2.613,0-4.732-2.119-4.732-4.732v-25.296
									c0-2.614,2.119-4.732,4.732-4.732h25.296c2.613,0,4.732,2.119,4.732,4.732v25.296
									C394.402,212.954,392.284,215.073,389.67,215.073z"/>
								<path style="fill:#9EE6E0;" d="M432.558,215.073h-25.296c-2.613,0-4.732-2.119-4.732-4.732v-25.296
									c0-2.614,2.119-4.732,4.732-4.732h25.296c2.613,0,4.732,2.119,4.732,4.732v25.296
									C437.29,212.954,435.172,215.073,432.558,215.073z"/>
								<path style="fill:#9EE6E0;" d="M475.447,215.073h-25.296c-2.613,0-4.732-2.119-4.732-4.732v-25.296
									c0-2.614,2.119-4.732,4.732-4.732h25.296c2.613,0,4.732,2.119,4.732,4.732v25.296
									C480.179,212.954,478.06,215.073,475.447,215.073z"/>
								<path style="fill:#9EE6E0;" d="M518.335,215.073h-25.296c-2.613,0-4.732-2.119-4.732-4.732v-25.296
									c0-2.614,2.119-4.732,4.732-4.732h25.296c2.614,0,4.732,2.119,4.732,4.732v25.296
									C523.067,212.954,520.948,215.073,518.335,215.073z"/>
								<path style="fill:#9EE6E0;" d="M561.223,215.073h-25.295c-2.614,0-4.732-2.119-4.732-4.732v-25.296
									c0-2.614,2.119-4.732,4.732-4.732h25.295c2.614,0,4.732,2.119,4.732,4.732v25.296
									C565.955,212.954,563.837,215.073,561.223,215.073z"/>
							</g>
							<g>
								<path style="fill:#E68799;" d="M303.893,257.899h-25.296c-2.613,0-4.732-2.119-4.732-4.732v-25.296
									c0-2.613,2.119-4.732,4.732-4.732h25.296c2.614,0,4.732,2.119,4.732,4.732v25.296
									C308.626,255.781,306.507,257.899,303.893,257.899z"/>
								<path style="fill:#9EE6E0;" d="M346.782,257.899h-25.296c-2.614,0-4.732-2.119-4.732-4.732v-25.296
									c0-2.613,2.119-4.732,4.732-4.732h25.296c2.613,0,4.732,2.119,4.732,4.732v25.296
									C351.514,255.781,349.395,257.899,346.782,257.899z"/>
								<path style="fill:#9EE6E0;" d="M389.67,257.899h-25.296c-2.613,0-4.732-2.119-4.732-4.732v-25.296
									c0-2.613,2.119-4.732,4.732-4.732h25.296c2.613,0,4.732,2.119,4.732,4.732v25.296
									C394.402,255.781,392.284,257.899,389.67,257.899z"/>
								<path style="fill:#9EE6E0;" d="M432.558,257.899h-25.296c-2.613,0-4.732-2.119-4.732-4.732v-25.296
									c0-2.613,2.119-4.732,4.732-4.732h25.296c2.613,0,4.732,2.119,4.732,4.732v25.296
									C437.29,255.781,435.172,257.899,432.558,257.899z"/>
								<path style="fill:#9EE6E0;" d="M475.447,257.899h-25.296c-2.613,0-4.732-2.119-4.732-4.732v-25.296
									c0-2.613,2.119-4.732,4.732-4.732h25.296c2.613,0,4.732,2.119,4.732,4.732v25.296
									C480.179,255.781,478.06,257.899,475.447,257.899z"/>
								<path style="fill:#9EE6E0;" d="M518.335,257.899h-25.296c-2.613,0-4.732-2.119-4.732-4.732v-25.296
									c0-2.613,2.119-4.732,4.732-4.732h25.296c2.614,0,4.732,2.119,4.732,4.732v25.296
									C523.067,255.781,520.948,257.899,518.335,257.899z"/>
								<path style="fill:#9EE6E0;" d="M561.223,257.899h-25.295c-2.614,0-4.732-2.119-4.732-4.732v-25.296
									c0-2.613,2.119-4.732,4.732-4.732h25.295c2.614,0,4.732,2.119,4.732,4.732v25.296
									C565.955,255.781,563.837,257.899,561.223,257.899z"/>
							</g>
							<g>
								<path style="fill:#E68799;" d="M303.893,300.725h-25.296c-2.613,0-4.732-2.119-4.732-4.732v-25.295
									c0-2.614,2.119-4.732,4.732-4.732h25.296c2.614,0,4.732,2.119,4.732,4.732v25.295
									C308.626,298.607,306.507,300.725,303.893,300.725z"/>
								<path style="fill:#9EE6E0;" d="M346.782,300.725h-25.296c-2.614,0-4.732-2.119-4.732-4.732v-25.295
									c0-2.614,2.119-4.732,4.732-4.732h25.296c2.613,0,4.732,2.119,4.732,4.732v25.295
									C351.514,298.607,349.395,300.725,346.782,300.725z"/>
								<path style="fill:#9EE6E0;" d="M389.67,300.725h-25.296c-2.613,0-4.732-2.119-4.732-4.732v-25.295
									c0-2.614,2.119-4.732,4.732-4.732h25.296c2.613,0,4.732,2.119,4.732,4.732v25.295
									C394.402,298.607,392.284,300.725,389.67,300.725z"/>
								<path style="fill:#9EE6E0;" d="M432.558,300.725h-25.296c-2.613,0-4.732-2.119-4.732-4.732v-25.295
									c0-2.614,2.119-4.732,4.732-4.732h25.296c2.613,0,4.732,2.119,4.732,4.732v25.295
									C437.29,298.607,435.172,300.725,432.558,300.725z"/>
								<path style="fill:#9EE6E0;" d="M475.447,300.725h-25.296c-2.613,0-4.732-2.119-4.732-4.732v-25.295
									c0-2.614,2.119-4.732,4.732-4.732h25.296c2.613,0,4.732,2.119,4.732,4.732v25.295
									C480.179,298.607,478.06,300.725,475.447,300.725z"/>
								<path style="fill:#9EE6E0;" d="M518.335,300.725h-25.296c-2.613,0-4.732-2.119-4.732-4.732v-25.295
									c0-2.614,2.119-4.732,4.732-4.732h25.296c2.614,0,4.732,2.119,4.732,4.732v25.295
									C523.067,298.607,520.948,300.725,518.335,300.725z"/>
								<path style="fill:#9EE6E0;" d="M561.223,300.725h-25.295c-2.614,0-4.732-2.119-4.732-4.732v-25.295
									c0-2.614,2.119-4.732,4.732-4.732h25.295c2.614,0,4.732,2.119,4.732,4.732v25.295
									C565.955,298.607,563.837,300.725,561.223,300.725z"/>
							</g>
							<g>
								<path style="fill:#E68799;" d="M303.893,343.552h-25.296c-2.613,0-4.732-2.119-4.732-4.732v-25.296
									c0-2.613,2.119-4.732,4.732-4.732h25.296c2.614,0,4.732,2.119,4.732,4.732v25.296
									C308.626,341.433,306.507,343.552,303.893,343.552z"/>
								<path style="fill:#9EE6E0;" d="M346.782,343.552h-25.296c-2.614,0-4.732-2.119-4.732-4.732v-25.296
									c0-2.613,2.119-4.732,4.732-4.732h25.296c2.613,0,4.732,2.119,4.732,4.732v25.296
									C351.514,341.433,349.395,343.552,346.782,343.552z"/>
								<path style="fill:#9EE6E0;" d="M389.67,343.552h-25.296c-2.613,0-4.732-2.119-4.732-4.732v-25.296
									c0-2.613,2.119-4.732,4.732-4.732h25.296c2.613,0,4.732,2.119,4.732,4.732v25.296
									C394.402,341.433,392.284,343.552,389.67,343.552z"/>
								<path style="fill:#D1F4F5;" d="M432.558,343.552h-25.296c-2.613,0-4.732-2.119-4.732-4.732v-25.296
									c0-2.613,2.119-4.732,4.732-4.732h25.296c2.613,0,4.732,2.119,4.732,4.732v25.296
									C437.29,341.433,435.172,343.552,432.558,343.552z"/>
								<path style="fill:#D1F4F5;" d="M475.447,343.552h-25.296c-2.613,0-4.732-2.119-4.732-4.732v-25.296
									c0-2.613,2.119-4.732,4.732-4.732h25.296c2.613,0,4.732,2.119,4.732,4.732v25.296
									C480.179,341.433,478.06,343.552,475.447,343.552z"/>
								<path style="fill:#D1F4F5;" d="M518.335,343.552h-25.296c-2.613,0-4.732-2.119-4.732-4.732v-25.296
									c0-2.613,2.119-4.732,4.732-4.732h25.296c2.614,0,4.732,2.119,4.732,4.732v25.296
									C523.067,341.433,520.948,343.552,518.335,343.552z"/>
								<path style="fill:#D1F4F5;" d="M561.223,343.552h-25.295c-2.614,0-4.732-2.119-4.732-4.732v-25.296
									c0-2.613,2.119-4.732,4.732-4.732h25.295c2.614,0,4.732,2.119,4.732,4.732v25.296
									C565.955,341.433,563.837,343.552,561.223,343.552z"/>
							</g>
							<g>
								<g>
									<path style="fill:#FFFFFF;" d="M293.599,149.165v11.262h-3.796v-8.398h-1.931v-2.864H293.599z"/>
								</g>
								<g>
									<path style="fill:#FFFFFF;" d="M338.719,157.483v2.944h-9.025v-2.333l4.07-3.764c0.772-0.724,0.885-1.158,0.885-1.544
										c0-0.547-0.37-0.885-1.094-0.885c-0.676,0-1.319,0.37-1.657,1.046l-2.864-1.432c0.821-1.544,2.446-2.606,4.875-2.606
										c2.67,0,4.553,1.384,4.553,3.523c0,1.11-0.29,2.108-1.931,3.588l-1.609,1.464H338.719z"/>
								</g>
								<g>
									<path style="fill:#FFFFFF;" d="M381.666,156.823c0,1.931-1.544,3.861-5.148,3.861c-1.544,0-3.233-0.338-4.44-1.014
										l1.288-2.799c0.965,0.563,2.075,0.821,3.024,0.821c0.853,0,1.464-0.29,1.464-0.869c0-0.482-0.37-0.772-1.336-0.772h-1.495
										v-2.333l1.657-1.689h-4.022v-2.864h8.398v2.333l-2.092,2.124C380.733,154.056,381.666,155.263,381.666,156.823z"/>
								</g>
								<g>
									<path style="fill:#FFFFFF;" d="M425.756,158.496h-1.495v1.931h-3.684v-1.931h-5.84v-2.413l4.778-6.918h3.893l-4.247,6.387
										h1.528v-1.722h3.572v1.722h1.495V158.496z"/>
								</g>
								<g>
									<path style="fill:#FFFFFF;" d="M467.762,156.727c0,2.011-1.544,3.958-5.148,3.958c-1.544,0-3.233-0.338-4.44-1.014
										l1.287-2.799c0.965,0.563,2.059,0.821,3.008,0.821c0.852,0,1.48-0.306,1.48-0.885c0-0.482-0.337-0.804-1.705-0.804h-3.265
										l0.563-6.838h7.481v2.864h-4.36l-0.08,1.11h0.579C466.491,153.139,467.762,154.732,467.762,156.727z"/>
								</g>
								<g>
									<path style="fill:#FFFFFF;" d="M511.176,156.743c0,2.413-2.027,3.941-4.569,3.941c-3.217,0-5.405-1.85-5.405-5.534
										c0-3.942,2.525-6.242,6.242-6.242c1.336,0,2.639,0.322,3.491,0.885l-1.367,2.654c-0.66-0.467-1.336-0.595-2.044-0.595
										c-1.286,0-2.188,0.66-2.446,1.915c0.564-0.402,1.287-0.628,2.237-0.628C509.375,153.139,511.176,154.539,511.176,156.743z
										 M507.509,156.92c0-0.708-0.482-1.159-1.158-1.159c-0.677,0-1.159,0.451-1.159,1.159c0,0.708,0.482,1.142,1.159,1.142
										C507.027,158.062,507.509,157.628,507.509,156.92z"/>
								</g>
								<g>
									<path style="fill:#FFFFFF;" d="M553.819,149.165v2.333l-3.749,8.929h-4.15l3.571-8.317h-2.172v1.641h-3.137v-4.585H553.819
										z"/>
								</g>
							</g>
							<g>
								<g>
									<path style="fill:#FFFFFF;" d="M296.205,199.986c0,2.188-2.075,3.604-5.052,3.604c-2.976,0-5.052-1.415-5.052-3.604
										c0-1.126,0.563-2.011,1.513-2.59c-0.692-0.547-1.11-1.287-1.11-2.22c0-2.043,1.914-3.362,4.649-3.362
										c2.735,0,4.65,1.319,4.65,3.362c0,0.933-0.418,1.673-1.11,2.22C295.642,197.974,296.205,198.859,296.205,199.986z
										 M292.392,199.857c0-0.724-0.515-1.174-1.239-1.174c-0.724,0-1.238,0.451-1.238,1.174c0,0.724,0.515,1.175,1.238,1.175
										C291.877,201.031,292.392,200.581,292.392,199.857z M290.253,195.336c0,0.611,0.386,0.965,0.901,0.965
										s0.901-0.354,0.901-0.965c0-0.611-0.386-0.965-0.901-0.965S290.253,194.725,290.253,195.336z"/>
								</g>
								<g>
									<path style="fill:#FFFFFF;" d="M338.983,197.347c0,3.941-2.526,6.242-6.242,6.242c-1.335,0-2.638-0.322-3.491-0.885
										l1.367-2.654c0.659,0.467,1.335,0.595,2.043,0.595c1.287,0,2.188-0.659,2.446-1.914c-0.563,0.402-1.287,0.627-2.236,0.627
										c-2.059,0-3.861-1.399-3.861-3.604c0-2.413,2.027-3.941,4.569-3.941C336.796,191.813,338.983,193.663,338.983,197.347z
										 M334.994,195.577c0-0.708-0.483-1.142-1.159-1.142c-0.676,0-1.158,0.434-1.158,1.142c0,0.708,0.482,1.159,1.158,1.159
										C334.511,196.736,334.994,196.285,334.994,195.577z"/>
								</g>
								<g>
									<path style="fill:#FFFFFF;" d="M373.992,192.07v11.262h-3.797v-8.398h-1.931v-2.864H373.992z"/>
									<path style="fill:#FFFFFF;" d="M375.376,197.701c0-3.733,2.123-5.888,5.099-5.888s5.1,2.156,5.1,5.888
										c0,3.732-2.124,5.888-5.1,5.888S375.376,201.433,375.376,197.701z M381.763,197.701c0-2.172-0.547-2.848-1.288-2.848
										c-0.739,0-1.287,0.676-1.287,2.848c0,2.172,0.547,2.847,1.287,2.847C381.216,200.548,381.763,199.873,381.763,197.701z"/>
								</g>
								<g>
									<path style="fill:#FFFFFF;" d="M419.176,192.07v11.262h-3.797v-8.398h-1.931v-2.864H419.176z"/>
									<path style="fill:#FFFFFF;" d="M425.901,192.07v11.262h-3.796v-8.398h-1.931v-2.864H425.901z"/>
								</g>
								<g>
									<path style="fill:#FFFFFF;" d="M460.627,192.07v11.262h-3.796v-8.398H454.9v-2.864H460.627z"/>
									<path style="fill:#FFFFFF;" d="M471.021,200.388v2.944h-9.025v-2.333l4.07-3.764c0.773-0.724,0.885-1.158,0.885-1.544
										c0-0.547-0.371-0.885-1.094-0.885c-0.676,0-1.319,0.37-1.657,1.046l-2.863-1.432c0.821-1.544,2.445-2.606,4.874-2.606
										c2.671,0,4.553,1.384,4.553,3.523c0,1.11-0.289,2.108-1.931,3.587l-1.608,1.464H471.021z"/>
								</g>
								<g>
									<path style="fill:#FFFFFF;" d="M503.559,192.07v11.262h-3.796v-8.398h-1.931v-2.864H503.559z"/>
									<path style="fill:#FFFFFF;" d="M513.969,199.728c0,1.931-1.544,3.861-5.148,3.861c-1.544,0-3.234-0.338-4.44-1.013
										l1.287-2.8c0.966,0.563,2.076,0.821,3.025,0.821c0.852,0,1.464-0.29,1.464-0.869c0-0.482-0.371-0.772-1.336-0.772h-1.496
										v-2.333l1.657-1.689h-4.022v-2.864h8.398v2.333l-2.091,2.123C513.035,196.961,513.969,198.168,513.969,199.728z"/>
								</g>
								<g>
									<path style="fill:#FFFFFF;" d="M545.75,192.07v11.262h-3.796v-8.398h-1.931v-2.864H545.75z"/>
									<path style="fill:#FFFFFF;" d="M558.058,201.401h-1.496v1.931h-3.684v-1.931h-5.839v-2.413l4.777-6.918h3.894l-4.248,6.387
										h1.529v-1.721h3.571v1.721h1.496V201.401z"/>
								</g>
							</g>
							<g>
								<g>
									<path style="fill:#FFFFFF;" d="M288.619,234.976v11.262h-3.796v-8.398h-1.931v-2.864H288.619z"/>
									<path style="fill:#FFFFFF;" d="M299.206,242.537c0,2.011-1.544,3.958-5.148,3.958c-1.544,0-3.234-0.337-4.44-1.013
										l1.287-2.799c0.965,0.563,2.059,0.821,3.008,0.821c0.853,0,1.48-0.306,1.48-0.885c0-0.482-0.338-0.804-1.705-0.804h-3.266
										l0.563-6.838h7.481v2.864h-4.36l-0.08,1.11h0.579C297.935,238.949,299.206,240.542,299.206,242.537z"/>
								</g>
								<g>
									<path style="fill:#FFFFFF;" d="M331.261,234.976v11.262h-3.796v-8.398h-1.931v-2.864H331.261z"/>
									<path style="fill:#FFFFFF;" d="M342.62,242.554c0,2.413-2.027,3.941-4.569,3.941c-3.218,0-5.406-1.849-5.406-5.533
										c0-3.942,2.526-6.243,6.242-6.243c1.335,0,2.638,0.322,3.491,0.885l-1.367,2.654c-0.659-0.467-1.335-0.595-2.043-0.595
										c-1.287,0-2.188,0.66-2.446,1.915c0.563-0.402,1.287-0.628,2.236-0.628C340.818,238.949,342.62,240.349,342.62,242.554z
										 M338.952,242.73c0-0.708-0.482-1.158-1.158-1.158c-0.676,0-1.158,0.45-1.158,1.158c0,0.708,0.482,1.142,1.158,1.142
										C338.47,243.872,338.952,243.438,338.952,242.73z"/>
								</g>
								<g>
									<path style="fill:#FFFFFF;" d="M374.37,234.976v11.262h-3.796v-8.398h-1.931v-2.864H374.37z"/>
									<path style="fill:#FFFFFF;" d="M385.262,234.976v2.333l-3.749,8.929h-4.15l3.571-8.318h-2.172v1.641h-3.137v-4.585H385.262
										z"/>
								</g>
								<g>
									<path style="fill:#FFFFFF;" d="M417.084,234.976v11.262h-3.797v-8.398h-1.931v-2.864H417.084z"/>
									<path style="fill:#FFFFFF;" d="M428.507,242.891c0,2.189-2.075,3.604-5.052,3.604c-2.976,0-5.051-1.415-5.051-3.604
										c0-1.126,0.563-2.011,1.512-2.59c-0.691-0.547-1.11-1.287-1.11-2.221c0-2.043,1.914-3.362,4.649-3.362
										c2.736,0,4.65,1.319,4.65,3.362c0,0.933-0.419,1.673-1.11,2.221C427.944,240.88,428.507,241.765,428.507,242.891z
										 M424.695,242.762c0-0.724-0.515-1.175-1.24-1.175c-0.724,0-1.238,0.451-1.238,1.175c0,0.724,0.515,1.175,1.238,1.175
										C424.18,243.937,424.695,243.486,424.695,242.762z M422.555,238.242c0,0.611,0.385,0.965,0.9,0.965
										c0.515,0,0.901-0.354,0.901-0.965s-0.386-0.965-0.901-0.965C422.94,237.276,422.555,237.63,422.555,238.242z"/>
								</g>
								<g>
									<path style="fill:#FFFFFF;" d="M460.201,234.976v11.262h-3.797v-8.398h-1.931v-2.864H460.201z"/>
									<path style="fill:#FFFFFF;" d="M471.286,240.253c0,3.941-2.526,6.242-6.242,6.242c-1.336,0-2.639-0.322-3.491-0.884
										l1.367-2.655c0.66,0.467,1.336,0.595,2.044,0.595c1.286,0,2.188-0.66,2.446-1.914c-0.564,0.402-1.288,0.627-2.237,0.627
										c-2.059,0-3.861-1.399-3.861-3.604c0-2.413,2.027-3.941,4.569-3.941C469.098,234.718,471.286,236.569,471.286,240.253z
										 M467.296,238.483c0-0.707-0.482-1.142-1.158-1.142c-0.677,0-1.159,0.434-1.159,1.142c0,0.708,0.482,1.159,1.159,1.159
										C466.814,239.641,467.296,239.191,467.296,238.483z"/>
								</g>
								<g>
									<path style="fill:#FFFFFF;" d="M505.072,243.293v2.945h-9.025v-2.333l4.07-3.764c0.773-0.724,0.885-1.159,0.885-1.545
										c0-0.547-0.371-0.885-1.094-0.885c-0.676,0-1.319,0.37-1.657,1.046l-2.863-1.432c0.821-1.544,2.446-2.606,4.874-2.606
										c2.67,0,4.553,1.384,4.553,3.523c0,1.11-0.289,2.108-1.931,3.587l-1.608,1.464H505.072z"/>
									<path style="fill:#FFFFFF;" d="M505.844,240.607c0-3.733,2.124-5.889,5.1-5.889s5.1,2.156,5.1,5.889
										c0,3.732-2.124,5.887-5.1,5.887S505.844,244.339,505.844,240.607z M512.231,240.607c0-2.173-0.547-2.848-1.287-2.848
										c-0.74,0-1.287,0.676-1.287,2.848c0,2.171,0.547,2.847,1.287,2.847C511.684,243.454,512.231,242.778,512.231,240.607z"/>
								</g>
								<g>
									<path style="fill:#FFFFFF;" d="M550.256,243.293v2.945h-9.025v-2.333l4.07-3.764c0.773-0.724,0.885-1.159,0.885-1.545
										c0-0.547-0.371-0.885-1.094-0.885c-0.676,0-1.319,0.37-1.657,1.046l-2.863-1.432c0.821-1.544,2.445-2.606,4.874-2.606
										c2.67,0,4.553,1.384,4.553,3.523c0,1.11-0.289,2.108-1.931,3.587l-1.608,1.464H550.256z"/>
									<path style="fill:#FFFFFF;" d="M556.37,234.976v11.262h-3.797v-8.398h-1.931v-2.864H556.37z"/>
								</g>
							</g>
							<g>
								<g>
									<path style="fill:#FFFFFF;" d="M290.848,286.198v2.945h-9.025v-2.333l4.07-3.764c0.772-0.724,0.885-1.158,0.885-1.544
										c0-0.547-0.37-0.885-1.094-0.885c-0.676,0-1.319,0.371-1.657,1.046l-2.864-1.432c0.821-1.544,2.445-2.606,4.875-2.606
										c2.67,0,4.553,1.384,4.553,3.523c0,1.11-0.29,2.107-1.931,3.587l-1.609,1.464H290.848z"/>
									<path style="fill:#FFFFFF;" d="M300.63,286.198v2.945h-9.025v-2.333l4.07-3.764c0.772-0.724,0.885-1.158,0.885-1.544
										c0-0.547-0.37-0.885-1.094-0.885c-0.676,0-1.319,0.371-1.657,1.046l-2.864-1.432c0.821-1.544,2.446-2.606,4.875-2.606
										c2.67,0,4.553,1.384,4.553,3.523c0,1.11-0.29,2.107-1.931,3.587l-1.609,1.464H300.63z"/>
								</g>
								<g>
									<path style="fill:#FFFFFF;" d="M333.779,286.198v2.945h-9.025v-2.333l4.07-3.764c0.772-0.724,0.885-1.158,0.885-1.544
										c0-0.547-0.37-0.885-1.094-0.885c-0.676,0-1.319,0.371-1.657,1.046l-2.864-1.432c0.821-1.544,2.446-2.606,4.875-2.606
										c2.67,0,4.553,1.384,4.553,3.523c0,1.11-0.29,2.107-1.931,3.587l-1.609,1.464H333.779z"/>
									<path style="fill:#FFFFFF;" d="M343.577,285.539c0,1.931-1.544,3.861-5.148,3.861c-1.544,0-3.234-0.337-4.44-1.013
										l1.287-2.8c0.965,0.563,2.075,0.821,3.025,0.821c0.853,0,1.464-0.29,1.464-0.869c0-0.483-0.37-0.773-1.336-0.773h-1.496
										v-2.333l1.657-1.689h-4.022v-2.864h8.398v2.333l-2.091,2.124C342.644,282.772,343.577,283.978,343.577,285.539z"/>
								</g>
								<g>
									<path style="fill:#FFFFFF;" d="M375.971,286.198v2.945h-9.025v-2.333l4.07-3.764c0.772-0.724,0.885-1.158,0.885-1.544
										c0-0.547-0.37-0.885-1.093-0.885c-0.676,0-1.32,0.371-1.657,1.046l-2.864-1.432c0.821-1.544,2.446-2.606,4.876-2.606
										c2.67,0,4.553,1.384,4.553,3.523c0,1.11-0.29,2.107-1.931,3.587l-1.609,1.464H375.971z"/>
									<path style="fill:#FFFFFF;" d="M387.667,287.212h-1.495v1.931h-3.684v-1.931h-5.84v-2.413l4.778-6.918h3.893l-4.247,6.388
										h1.528v-1.722h3.572v1.722h1.495V287.212z"/>
								</g>
								<g>
									<path style="fill:#FFFFFF;" d="M419.699,286.198v2.945h-9.025v-2.333l4.069-3.764c0.773-0.724,0.885-1.158,0.885-1.544
										c0-0.547-0.371-0.885-1.094-0.885c-0.676,0-1.319,0.371-1.657,1.046l-2.863-1.432c0.821-1.544,2.446-2.606,4.875-2.606
										c2.671,0,4.553,1.384,4.553,3.523c0,1.11-0.289,2.107-1.931,3.587l-1.608,1.464H419.699z"/>
									<path style="fill:#FFFFFF;" d="M429.674,285.442c0,2.011-1.544,3.958-5.148,3.958c-1.544,0-3.233-0.337-4.44-1.013
										l1.288-2.8c0.965,0.563,2.059,0.821,3.008,0.821c0.852,0,1.48-0.306,1.48-0.886c0-0.482-0.337-0.804-1.705-0.804h-3.265
										l0.563-6.838h7.481v2.864h-4.36l-0.08,1.11h0.579C428.403,281.855,429.674,283.447,429.674,285.442z"/>
								</g>
								<g>
									<path style="fill:#FFFFFF;" d="M462.341,286.198v2.945h-9.025v-2.333l4.07-3.764c0.772-0.724,0.885-1.158,0.885-1.544
										c0-0.547-0.37-0.885-1.093-0.885c-0.676,0-1.32,0.371-1.657,1.046l-2.864-1.432c0.821-1.544,2.445-2.606,4.875-2.606
										c2.67,0,4.553,1.384,4.553,3.523c0,1.11-0.29,2.107-1.931,3.587l-1.609,1.464H462.341z"/>
									<path style="fill:#FFFFFF;" d="M473.088,285.458c0,2.413-2.027,3.941-4.569,3.941c-3.217,0-5.405-1.85-5.405-5.534
										c0-3.942,2.525-6.242,6.241-6.242c1.336,0,2.639,0.322,3.491,0.885l-1.367,2.654c-0.66-0.467-1.336-0.595-2.044-0.595
										c-1.286,0-2.188,0.66-2.445,1.915c0.564-0.403,1.287-0.628,2.237-0.628C471.286,281.855,473.088,283.254,473.088,285.458z
										 M469.42,285.635c0-0.708-0.482-1.158-1.158-1.158c-0.677,0-1.159,0.45-1.159,1.158c0,0.708,0.482,1.142,1.159,1.142
										C468.938,286.777,469.42,286.343,469.42,285.635z"/>
								</g>
								<g>
									<path style="fill:#FFFFFF;" d="M505.45,286.198v2.945h-9.025v-2.333l4.07-3.764c0.773-0.724,0.885-1.158,0.885-1.544
										c0-0.547-0.371-0.885-1.094-0.885c-0.676,0-1.319,0.371-1.657,1.046l-2.863-1.432c0.821-1.544,2.446-2.606,4.875-2.606
										c2.67,0,4.553,1.384,4.553,3.523c0,1.11-0.289,2.107-1.931,3.587l-1.608,1.464H505.45z"/>
									<path style="fill:#FFFFFF;" d="M515.73,277.88v2.333l-3.749,8.929h-4.15l3.571-8.317h-2.172v1.641h-3.137v-4.585H515.73z"
										/>
								</g>
								<g>
									<path style="fill:#FFFFFF;" d="M548.164,286.198v2.945h-9.025v-2.333l4.069-3.764c0.773-0.724,0.885-1.158,0.885-1.544
										c0-0.547-0.371-0.885-1.094-0.885c-0.676,0-1.319,0.371-1.657,1.046l-2.863-1.432c0.821-1.544,2.446-2.606,4.875-2.606
										c2.67,0,4.553,1.384,4.553,3.523c0,1.11-0.289,2.107-1.931,3.587l-1.608,1.464H548.164z"/>
									<path style="fill:#FFFFFF;" d="M558.976,285.796c0,2.189-2.076,3.604-5.052,3.604c-2.976,0-5.052-1.415-5.052-3.604
										c0-1.126,0.564-2.011,1.513-2.59c-0.692-0.547-1.11-1.287-1.11-2.22c0-2.043,1.914-3.362,4.649-3.362
										s4.649,1.319,4.649,3.362c0,0.933-0.418,1.673-1.11,2.22C558.412,283.785,558.976,284.67,558.976,285.796z
										 M555.163,285.667c0-0.724-0.515-1.175-1.238-1.175s-1.239,0.451-1.239,1.175s0.515,1.175,1.239,1.175
										S555.163,286.391,555.163,285.667z M553.023,281.147c0,0.611,0.386,0.965,0.901,0.965s0.901-0.354,0.901-0.965
										c0-0.612-0.386-0.966-0.901-0.966S553.023,280.535,553.023,281.147z"/>
								</g>
							</g>
							<g>
								<g>
									<path style="fill:#FFFFFF;" d="M290.422,329.104v2.944h-9.025v-2.333l4.07-3.764c0.772-0.724,0.885-1.158,0.885-1.544
										c0-0.547-0.37-0.884-1.094-0.884c-0.676,0-1.319,0.37-1.657,1.045l-2.864-1.432c0.821-1.544,2.446-2.606,4.875-2.606
										c2.67,0,4.553,1.384,4.553,3.523c0,1.11-0.29,2.108-1.931,3.588l-1.609,1.464H290.422z"/>
									<path style="fill:#FFFFFF;" d="M300.896,326.063c0,3.942-2.526,6.242-6.242,6.242c-1.335,0-2.638-0.322-3.491-0.885
										l1.367-2.654c0.659,0.467,1.335,0.595,2.043,0.595c1.287,0,2.188-0.659,2.445-1.914c-0.563,0.402-1.287,0.628-2.236,0.628
										c-2.059,0-3.861-1.399-3.861-3.604c0-2.413,2.027-3.942,4.569-3.942C298.708,320.528,300.896,322.379,300.896,326.063z
										 M296.906,324.293c0-0.707-0.482-1.141-1.158-1.141c-0.676,0-1.159,0.434-1.159,1.141c0,0.708,0.483,1.159,1.159,1.159
										C296.423,325.452,296.906,325.001,296.906,324.293z"/>
								</g>
								<g>
									<path style="fill:#FFFFFF;" d="M333.119,328.444c0,1.931-1.544,3.862-5.148,3.862c-1.544,0-3.233-0.338-4.44-1.014
										l1.287-2.8c0.965,0.564,2.075,0.821,3.025,0.821c0.853,0,1.464-0.289,1.464-0.869c0-0.482-0.37-0.772-1.336-0.772h-1.496
										v-2.333l1.657-1.69h-4.022v-2.863h8.398v2.333l-2.092,2.123C332.186,325.677,333.119,326.884,333.119,328.444z"/>
									<path style="fill:#FFFFFF;" d="M333.973,326.417c0-3.732,2.123-5.888,5.1-5.888s5.1,2.156,5.1,5.888
										c0,3.732-2.124,5.888-5.1,5.888S333.973,330.149,333.973,326.417z M340.36,326.417c0-2.172-0.547-2.848-1.287-2.848
										c-0.74,0-1.287,0.676-1.287,2.848s0.547,2.848,1.287,2.848C339.813,329.264,340.36,328.589,340.36,326.417z"/>
								</g>
								<g>
									<path style="fill:#FFFFFF;" d="M378.304,328.444c0,1.931-1.544,3.862-5.148,3.862c-1.544,0-3.234-0.338-4.44-1.014
										l1.286-2.8c0.966,0.564,2.076,0.821,3.025,0.821c0.852,0,1.464-0.289,1.464-0.869c0-0.482-0.371-0.772-1.336-0.772h-1.496
										v-2.333l1.657-1.69h-4.022v-2.863h8.399v2.333l-2.092,2.123C377.37,325.677,378.304,326.884,378.304,328.444z"/>
									<path style="fill:#FFFFFF;" d="M384.498,320.786v11.261h-3.796v-8.398h-1.931v-2.863H384.498z"/>
								</g>
								<g>
									<path style="fill:#FFFFFF;" d="M422.538,320.786v11.261h-3.797v-8.398h-1.931v-2.863H422.538z"/>
								</g>
								<g>
									<path style="fill:#FFFFFF;" d="M467.658,329.104v2.944h-9.025v-2.333l4.07-3.764c0.772-0.724,0.885-1.158,0.885-1.544
										c0-0.547-0.37-0.884-1.093-0.884c-0.676,0-1.32,0.37-1.657,1.045l-2.864-1.432c0.821-1.544,2.446-2.606,4.875-2.606
										c2.67,0,4.553,1.384,4.553,3.523c0,1.11-0.29,2.108-1.931,3.588l-1.609,1.464H467.658z"/>
								</g>
								<g>
									<path style="fill:#FFFFFF;" d="M510.606,328.444c0,1.931-1.544,3.862-5.148,3.862c-1.544,0-3.234-0.338-4.44-1.014
										l1.286-2.8c0.966,0.564,2.076,0.821,3.025,0.821c0.852,0,1.464-0.289,1.464-0.869c0-0.482-0.371-0.772-1.335-0.772h-1.496
										v-2.333l1.657-1.69h-4.022v-2.863h8.398v2.333l-2.091,2.123C509.673,325.677,510.606,326.884,510.606,328.444z"/>
								</g>
								<g>
									<path style="fill:#FFFFFF;" d="M554.696,330.117H553.2v1.931h-3.684v-1.931h-5.839v-2.412l4.777-6.918h3.894l-4.248,6.387
										h1.529v-1.721h3.571v1.721h1.496V330.117z"/>
								</g>
							</g>
						</g>
					</g>
					<g>
						<g>
							<circle style="fill:#402C49;" cx="278.734" cy="93.68" r="9.307"/>
							<path style="fill:#E4E4E0;" d="M278.734,94.784L278.734,94.784c-2.439,0-4.417-1.977-4.417-4.417v-42.59
								c0-2.439,1.977-4.417,4.417-4.417h0c2.439,0,4.417,1.977,4.417,4.417v42.59C283.15,92.807,281.173,94.784,278.734,94.784z"/>
						</g>
						<g>
							<circle style="fill:#402C49;" cx="335.204" cy="93.68" r="9.307"/>
							<path style="fill:#E4E4E0;" d="M335.204,94.784L335.204,94.784c-2.439,0-4.417-1.977-4.417-4.417v-42.59
								c0-2.439,1.978-4.417,4.417-4.417h0c2.439,0,4.417,1.977,4.417,4.417v42.59C339.621,92.807,337.644,94.784,335.204,94.784z"
								/>
						</g>
						<g>
							<circle style="fill:#402C49;" cx="391.675" cy="93.68" r="9.307"/>
							<path style="fill:#E4E4E0;" d="M391.675,94.784L391.675,94.784c-2.439,0-4.417-1.977-4.417-4.417v-42.59
								c0-2.439,1.978-4.417,4.417-4.417l0,0c2.439,0,4.417,1.977,4.417,4.417v42.59C396.092,92.807,394.114,94.784,391.675,94.784z
								"/>
						</g>
						<g>
							<circle style="fill:#402C49;" cx="448.146" cy="93.68" r="9.307"/>
							<path style="fill:#E4E4E0;" d="M448.146,94.784L448.146,94.784c-2.439,0-4.417-1.977-4.417-4.417v-42.59
								c0-2.439,1.978-4.417,4.417-4.417l0,0c2.439,0,4.417,1.977,4.417,4.417v42.59C452.563,92.807,450.585,94.784,448.146,94.784z
								"/>
						</g>
						<g>
							<circle style="fill:#402C49;" cx="504.617" cy="93.68" r="9.307"/>
							<path style="fill:#E4E4E0;" d="M504.617,94.784L504.617,94.784c-2.439,0-4.417-1.977-4.417-4.417v-42.59
								c0-2.439,1.977-4.417,4.417-4.417l0,0c2.439,0,4.417,1.977,4.417,4.417v42.59C509.033,92.807,507.056,94.784,504.617,94.784z
								"/>
						</g>
						<g>
							<circle style="fill:#402C49;" cx="561.088" cy="93.68" r="9.307"/>
							<path style="fill:#E4E4E0;" d="M561.087,94.784L561.087,94.784c-2.439,0-4.417-1.977-4.417-4.417v-42.59
								c0-2.439,1.978-4.417,4.417-4.417l0,0c2.439,0,4.417,1.977,4.417,4.417v42.59C565.504,92.807,563.527,94.784,561.087,94.784z
								"/>
						</g>
					</g>
					<g style="opacity:0.5;">
						<path style="fill:#CC6164;" d="M421.207,139.727c-10.419-0.014-18.853,8.954-16.866,19.524
							c1.915,10.187,13.159,16.176,22.694,12.053c10.225-4.422,14.057-17.609,8.564-27.108
							c-5.854-10.123-18.896-12.445-28.362-6.066c-1.507,1.016-0.088,3.477,1.433,2.452c7.779-5.242,18.218-4.047,23.737,3.878
							c5.203,7.471,3.155,18.521-4.711,23.301c-7.567,4.599-17.945,0.788-20.307-7.875c-2.495-9.15,4.663-17.332,13.818-17.319
							C423.034,142.568,423.037,139.729,421.207,139.727L421.207,139.727z"/>
					</g>
					<g style="opacity:0.5;">
						<g>
							<path style="fill:#CC6164;" d="M500.151,222.669c-8.106,1.911-14.469,9.357-13.939,17.906
								c0.514,8.283,7.438,15.475,15.7,16.181c8.759,0.748,16.663-5.385,18.207-14.021c1.518-8.492-3.789-16.177-11.653-19.034
								c-1.72-0.625-2.461,2.118-0.755,2.738c6.609,2.401,11.05,9.121,9.556,16.202c-1.546,7.333-8.448,12.213-15.867,11.171
								c-6.737-0.946-12.191-7.077-12.366-13.909c-0.182-7.095,5.204-12.924,11.87-14.496
								C502.683,224.988,501.931,222.249,500.151,222.669L500.151,222.669z"/>
						</g>
						<g>
							<path style="fill:#CC6164;" d="M497.671,263.22c5.467-2.492,11.132-4.307,17.015-5.516c1.789-0.368,1.032-3.105-0.755-2.738
								c-6.127,1.259-12.004,3.208-17.693,5.802C494.577,261.526,496.019,263.973,497.671,263.22L497.671,263.22z"/>
						</g>
						<g>
							<path style="fill:#CC6164;" d="M503.418,265.572c3.989-1.647,7.978-3.294,11.967-4.941c1.665-0.688,0.935-3.436-0.755-2.738
								c-3.989,1.647-7.978,3.294-11.967,4.941C500.998,263.522,501.728,266.27,503.418,265.572L503.418,265.572z"/>
						</g>
					</g>
					<g style="opacity:0.5;">
						<path style="fill:#CC6164;" d="M417.438,271.676c-7.618,1.75-18.238,7.246-15.485,16.945
							c2.542,8.958,15.242,10.722,22.977,9.373c9.003-1.57,14.847-9.675,12.339-18.713c-2.74-9.872-13.138-14.04-22.496-14.175
							c-1.828-0.026-1.828,2.813,0,2.839c7.037,0.102,14.514,2.377,18.304,8.78c4.33,7.315,0.89,16.08-7.399,18.219
							c-6.261,1.616-17.51,0.602-20.496-6.034c-3.769-8.377,6.673-13.04,13.012-14.496
							C419.973,274.004,419.219,271.266,417.438,271.676L417.438,271.676z"/>
					</g>
				</g>
			</g>
			<g>
				<g>
					<path style="fill:#454F6B;" d="M158.363,389.678c-14.906,25.79-1.777,66.96-1.777,66.96h106.831
						c10.174-21.058,2.366-56.786-3.786-66.96H158.363z"/>
					<path style="fill:#402C49;" d="M263.63,399.379c-1.28-4.145-2.677-7.515-3.998-9.701H158.363
						c-1.624,2.809-2.914,5.801-3.926,8.901C194.217,431.275,246.104,412.014,263.63,399.379z"/>
				</g>
				<g>
					<g>
						<path style="fill:#402C49;" d="M386.543,157.172l-3.233-0.765l0.743-3.137l3.233,0.765c0.679,0.161,1.272,0.571,1.662,1.15
							l0,0c0.389,0.577,0.203,1.363-0.403,1.704l0,0C387.936,157.232,387.222,157.333,386.543,157.172z"/>
						<path style="fill:#A34262;" d="M385.122,152.832c-3.924-1.667-8.966-3.995-8.966-3.995l-0.946,3.996l-0.946,3.997
							c0,0,5.55,0.179,9.806,0.448c0.729,0.173,1.556-0.682,1.847-1.91C386.208,154.14,385.852,153.005,385.122,152.832z"/>
						<path style="fill:#CC6164;" d="M376.839,148.523l-53.11-12.573l-2.105,8.892l53.11,12.572c1.459,0.345,3.113-1.365,3.694-3.82
							C379.009,151.139,378.298,148.869,376.839,148.523z"/>
						<path style="fill:#A34262;" d="M325.318,141.022c-0.581,2.455-2.235,4.166-3.694,3.82c-1.459-0.345-2.171-2.616-1.589-5.071
							c0.581-2.455,2.235-4.166,3.694-3.82C325.188,136.296,325.899,138.567,325.318,141.022z"/>
					</g>
					<g>
						<path style="fill:#F2C9AD;" d="M266.336,220.66l25.711-9.149l38.036-60.095c1.88-2.97,4.683-5.239,7.979-6.46l21.522-7.971
							c1.946-0.721,4.134-0.208,5.557,1.302l7.967,8.455c0.822,0.872,1.279,2.025,1.279,3.222v7.126l0,0
							c-2.486-0.497-4.397-2.495-4.783-5.002l-0.304-1.978l-7.572-5.324l-2.366,1.42l8.971,9.968
							c1.612,1.791,1.802,4.448,0.461,6.45l-3.957,5.91c-1.789,2.673-5.261,3.64-8.174,2.279l-7.594-3.549l2.721-3.667l-1.141,0.415
							c-3.531,1.284-7.307,1.749-11.044,1.36l0,0l-23.249,58.959c-3.481,8.827-10.672,15.672-19.66,18.714l-23.579,7.98
							L266.336,220.66z"/>
						<polygon style="fill:#EBA58E;" points="351.791,163.598 362.32,161.764 359.245,166.556 						"/>
						<path style="fill:#402C49;" d="M277.888,216.55l-11.552,4.111l6.783,30.365l19.429-6.575
							c-0.026-5.479-1.356-10.953-3.912-15.801C286.094,223.829,282.359,219.661,277.888,216.55z"/>
					</g>
				</g>
				<g>
					<polygon style="fill:#4D569E;" points="160.829,249.285 137.068,293.378 170.43,308.758 180.841,260.253 					"/>
					<path style="fill:#EBA58E;" d="M141.585,295.461l-7.933,22.784c-3.978,11.424,1.302,24.008,12.239,29.175l27.851,13.156
						l7.098-20.822l-18.456-14.67l6.674-16.958L141.585,295.461z"/>
					<polygon style="fill:#402C49;" points="141.585,295.461 169.06,308.126 164.285,320.259 140.396,298.877 					"/>
				</g>
				<g>
					<path style="fill:#6C6FC3;" d="M219.408,233.28h-38.291l0,0c-4.995,0-9.754,2.122-13.093,5.837l0,0
						c-14.607,16.256-17.942,39.726-8.446,59.409c0.91,1.886,1.829,3.78,2.744,5.658c9.607,19.712,10.58,42.531,2.652,62.977
						l-9.924,25.594h0c28.488,15.224,62.068,17.756,92.516,6.977l17.034-6.03l-13.794-32.479c-7.856-18.498-8.339-39.3-1.349-58.143
						l0,0l0,0c7.529-5.159,10.634-14.745,7.561-23.338l-6.378-17.832l34.308-11.121l0.382-2.819
						c1.698-12.536-2.557-25.146-11.502-34.092l0,0L219.408,233.28z"/>
					<polygon style="fill:#402C49;" points="238.445,265.863 254.541,272.815 250.641,261.909 					"/>
				</g>
				<g>
					<g>
						<path style="fill:#F2C9AD;" d="M198.271,146.838L198.271,146.838c-16.552,0-29.97,13.418-29.97,29.971v13.25
							c0,10.17,5.07,19.151,12.816,24.569v18.651h24.371v-14.131c13.065-3.231,22.754-15.027,22.754-29.09v-13.25
							C228.242,160.257,214.824,146.838,198.271,146.838z"/>
						
							<ellipse transform="matrix(0.2223 -0.975 0.975 0.2223 -8.8528 366.151)" style="fill:#F2C9AD;" cx="225.101" cy="188.625" rx="10.161" ry="10.161"/>
						<path style="fill:#6A3649;" d="M181.117,214.628c-4.138-0.05-6.574-2.184-9.444-5.165c-2.87-2.982-4.804-6.739-6.362-10.573
							c-3.761-9.254-5.547-19.488-3.822-29.327c1.725-9.839,7.213-19.21,15.682-24.506c8.469-5.296,19.951-5.973,28.422-0.68
							c3.329-3.754,10.738-3.523,14.701-0.446c3.963,3.077,5.87,8.148,6.62,13.109c1.431,9.466-0.801,19.439-6.132,27.392
							c0,21.402-9.655,29.92-16.044,31.339C198.35,217.19,181.117,214.628,181.117,214.628z"/>
					</g>
					<g>
						<path style="fill:#6A3649;" d="M126.421,242.113l2.401,1.033c15.986,6.875,34.589,2.44,45.752-10.908h0
							c6.549-7.831,9.801-17.9,9.068-28.082l-3.002-41.715c-1.042-14.481-13.095-25.698-27.614-25.698h0
							c-12.967,0-24.197,9-27.021,21.656h0c-2.396,10.736-1.335,21.954,3.029,32.051l11.002,25.453
							c2.172,5.025,2.057,10.746-0.315,15.68l-0.104,0.217C137.067,237.107,132.187,240.92,126.421,242.113L126.421,242.113z"/>
						<path style="fill:#402C49;" d="M183.642,204.155l-3.002-41.715c-1.042-14.482-13.095-25.698-27.614-25.698l0,0
							c-1.482,0-2.937,0.132-4.363,0.359c12.475,2.006,22.259,12.358,23.194,25.339l3.002,41.715
							c0.733,10.182-2.519,20.251-9.068,28.082l0,0c-6.663,7.967-15.977,12.756-25.802,13.863
							c12.877,1.443,25.954-3.543,34.585-13.863C181.124,224.407,184.375,214.338,183.642,204.155z"/>
					</g>
				</g>
				<g>
					<path style="fill:#4D569E;" d="M163.963,390.23c11.984-28.806,17.982-57.259,6.766-80.406
						c-4.464-9.211-9.11-18.372-12.525-28.02c-1.849-5.224-3.066-10.854-3.095-16.383c-2.012,10.998-0.603,22.591,4.469,33.105
						c0.91,1.886,1.829,3.78,2.744,5.658c9.607,19.712,10.58,42.531,2.652,62.977l-9.924,25.594h0
						c28.488,15.224,62.068,17.756,92.516,6.977l17.034-6.03l-1.562-3.678l0,0C232.737,400.221,201.978,409.001,163.963,390.23z"/>
					<path style="fill:#4D569E;" d="M273.828,213.878l-5.452,1.944c7.569,8.511,12.033,21.375,9.474,31.182l-24.499,8.708
						c-5.759,2.047-10.893,5.543-14.907,10.151l12.196-3.953l34.308-11.121l0.382-2.819
						C287.029,235.433,282.774,222.823,273.828,213.878z"/>
				</g>
			</g>
		</g>
	</g>
</g>
</svg>
