<svg version="1.1" id="Layer_1" xmlns="http://www.w3.org/2000/svg" xmlns:xlink="http://www.w3.org/1999/xlink" x="0px" y="0px"
	 width="100%" viewBox="0 0 2000 2000" enable-background="new 0 0 2000 2000" xml:space="preserve">
<path fill="#FFFFFF" opacity="1.000000" stroke="none" 
	d="
M2001.000000,774.000000 
	C2001.000000,1183.333374 2001.000000,1592.166626 2001.000000,2001.000000 
	C1334.333374,2001.000000 667.666687,2001.000000 1.000000,2001.000000 
	C1.000000,1334.333374 1.000000,667.666687 1.000000,1.000000 
	C667.666687,1.000000 1334.333374,1.000000 2001.000000,1.000000 
	C2001.000000,258.500000 2001.000000,516.000000 2001.000000,774.000000 
M520.201111,516.834167 
	C516.620422,519.383057 518.276978,521.282043 521.010376,523.936462 
	C521.044922,526.006714 521.079529,528.076904 520.754089,530.649109 
	C518.126221,533.444641 520.333008,535.041870 522.120911,537.503723 
	C522.699463,544.539917 526.900818,549.435852 532.160400,553.369690 
	C538.822144,558.352234 552.661865,556.674622 557.808350,550.867249 
	C563.069824,550.919312 563.756531,549.956116 562.212280,544.455933 
	C562.837891,541.776794 563.463562,539.097595 564.792175,536.220337 
	C568.998779,534.889221 568.186340,532.598511 565.976685,529.187500 
	C566.000854,527.490051 566.025024,525.792542 566.653076,523.763916 
	C570.468018,521.099365 568.872986,519.031616 565.978699,516.166077 
	C565.989563,512.065918 566.214355,507.949707 565.909302,503.873169 
	C565.781677,502.166382 564.530151,500.543732 563.956177,498.128510 
	C565.526855,494.323944 566.343262,489.911224 568.821106,486.838043 
	C574.435791,479.874207 580.345337,472.970398 587.063599,467.105865 
	C611.377747,445.881287 620.330994,419.161713 614.176331,388.121765 
	C607.121155,352.539825 581.266296,329.919312 545.062317,325.225952 
	C508.920837,320.540680 477.487610,339.118103 465.306244,372.969360 
	C455.986603,398.868134 460.607391,423.410980 474.210632,446.665558 
	C481.703705,459.474792 492.596771,468.893982 504.946136,476.806244 
	C513.130127,482.049744 518.531799,489.408905 521.066833,499.482269 
	C520.747620,500.701477 520.428467,501.920654 519.875977,503.730499 
	C520.296997,505.427460 520.718018,507.124451 521.043335,509.704224 
	C520.966003,511.968903 520.888733,514.233582 520.201111,516.834167 
M615.128235,774.087097 
	C615.380676,762.620850 615.895630,751.153198 615.835754,739.688538 
	C615.663696,706.736023 615.719055,673.769775 614.649902,640.842590 
	C614.351135,631.640259 611.223999,622.276184 608.005615,613.495239 
	C604.942871,605.138794 598.468079,598.901978 588.897156,599.123840 
	C579.792786,599.335022 574.585938,605.942932 570.719910,613.523376 
	C565.960449,622.855469 565.560608,633.111267 565.224182,643.177856 
	C564.518372,664.293945 564.287659,685.431824 564.229370,706.561768 
	C564.188599,721.359802 564.725159,736.160217 565.059753,750.958252 
	C565.542358,772.303589 565.353577,793.643311 557.777466,813.964905 
	C551.277893,831.398865 544.122559,848.593872 537.007629,865.791382 
	C529.273254,884.486023 523.317688,903.525452 522.951294,924.015259 
	C522.621826,942.436035 525.931091,960.342834 529.596069,978.260071 
	C533.318176,996.456970 536.683411,1014.726807 539.723389,1033.472046 
	C537.874695,1034.589722 536.095215,1035.847290 534.165955,1036.802246 
	C521.808289,1042.919434 512.614929,1052.345459 508.297668,1065.270996 
	C504.531708,1076.546143 501.727478,1088.338257 500.197540,1100.122559 
	C497.253204,1122.801392 490.131256,1143.229370 475.136230,1161.012695 
	C467.369781,1170.223267 460.592468,1180.550049 454.959686,1191.213257 
	C445.747894,1208.651611 442.781586,1227.927612 440.646210,1247.427246 
	C436.980377,1280.902710 427.796387,1313.045898 414.095398,1343.749146 
	C392.425171,1392.311157 374.026733,1442.014038 360.444580,1493.438477 
	C345.534668,1549.890259 336.005615,1606.958618 341.982910,1665.673218 
	C344.490265,1690.302856 349.411865,1714.344116 359.720917,1737.005371 
	C374.414154,1769.303955 397.629364,1791.718628 433.173492,1799.616455 
	C455.396667,1804.554321 477.525452,1803.541016 499.401886,1797.867432 
	C528.424744,1790.340576 554.082275,1776.921875 573.238892,1753.098877 
	C587.468872,1735.402588 595.705688,1714.735718 601.989746,1693.177368 
	C602.924316,1689.971069 603.872925,1686.768677 604.815002,1683.564331 
	C610.611694,1747.441650 611.318176,1811.229004 610.958496,1875.659180 
	C615.680847,1875.659180 619.665222,1875.659302 623.649658,1875.659302 
	C720.973755,1875.659302 818.297913,1875.666870 915.622009,1875.640747 
	C921.781799,1875.639038 927.941528,1875.373413 934.729431,1875.732178 
	C947.709106,1875.812988 960.688843,1875.918091 973.668579,1875.931030 
	C974.772156,1875.932129 975.876465,1875.318359 977.920166,1874.997559 
	C1029.781250,1875.038696 1081.642456,1875.079834 1134.401245,1875.279053 
	C1139.223389,1875.405762 1144.045532,1875.640869 1148.867676,1875.642700 
	C1216.114258,1875.666748 1283.360718,1875.652100 1350.607300,1875.664551 
	C1365.419556,1875.667236 1380.231934,1875.738647 1395.187866,1876.506348 
	C1398.200806,1880.103271 1399.018921,1880.000488 1401.892944,1875.675049 
	C1470.431763,1875.675049 1538.970581,1875.675049 1607.250610,1875.675049 
	C1608.147095,1868.364258 1608.825317,1862.261719 1609.655640,1856.179932 
	C1611.548828,1842.312622 1613.987793,1828.351196 1610.850586,1814.477173 
	C1606.122192,1793.566284 1608.375977,1772.817505 1610.613892,1751.932129 
	C1611.817139,1740.702026 1612.534180,1729.354858 1612.461670,1718.066895 
	C1612.324829,1696.762939 1607.286743,1676.160767 1601.294189,1655.901611 
	C1588.332397,1612.082642 1578.123657,1567.887451 1576.243774,1521.932129 
	C1574.537354,1480.215576 1571.744141,1438.535645 1568.872803,1396.877930 
	C1567.443481,1376.143311 1565.065796,1355.458618 1562.577271,1334.816406 
	C1559.313232,1307.740601 1555.469727,1280.734863 1551.962402,1253.687866 
	C1548.802612,1229.322266 1545.744385,1205.217651 1537.289429,1181.633911 
	C1520.845581,1135.767212 1502.695312,1090.905396 1477.201782,1049.206665 
	C1462.607788,1025.335693 1446.445557,1002.811035 1424.741333,984.853638 
	C1393.607544,959.094604 1358.942383,939.138428 1321.927734,923.106201 
	C1293.286499,910.700684 1263.731323,900.501526 1237.199829,883.223267 
	C1224.841553,875.175049 1210.045288,870.751953 1196.140625,865.222534 
	C1171.885864,855.577148 1147.528076,846.180420 1123.068848,837.067871 
	C1117.419678,834.963257 1111.186523,834.426941 1105.076538,832.292297 
	C1104.605591,828.159302 1104.134644,824.026367 1103.760376,819.054565 
	C1104.402710,796.070007 1105.045166,773.085388 1105.917480,749.421326 
	C1113.268433,742.488647 1120.518433,735.445068 1127.987671,728.642395 
	C1160.041870,699.448853 1185.364014,665.470703 1202.055786,625.263184 
	C1202.791748,623.490417 1204.627808,621.816345 1206.372314,620.883179 
	C1213.410400,617.118225 1220.774780,613.948120 1227.726440,610.038940 
	C1249.457397,597.818848 1266.055176,581.134460 1273.319458,556.511292 
	C1276.562622,545.518433 1276.763794,534.662231 1272.816040,523.776672 
	C1267.048340,507.872620 1243.738647,498.858612 1232.030518,513.968140 
	C1231.254517,497.405426 1232.396606,481.076935 1237.107178,465.046875 
	C1242.626831,446.262787 1247.832153,427.385864 1253.091797,408.526306 
	C1253.981934,405.334503 1254.765503,402.056122 1255.073608,398.768555 
	C1256.515747,383.375763 1258.131958,367.985077 1258.962524,352.554657 
	C1259.449707,343.502930 1259.660156,334.188904 1258.102783,325.325348 
	C1254.728271,306.120056 1244.223633,290.151611 1231.910522,275.547638 
	C1212.772095,252.848724 1194.266602,229.788544 1181.382690,202.771805 
	C1180.244141,200.384277 1178.682739,198.188629 1177.224854,195.964645 
	C1160.582397,170.576065 1136.663208,160.171005 1106.891602,161.909775 
	C1102.918701,162.141800 1098.964233,162.824448 1094.992798,162.912827 
	C1091.486572,162.990860 1088.887085,161.195068 1088.027344,157.644302 
	C1083.078247,137.205261 1068.985229,124.999184 1050.760376,116.861359 
	C1024.563110,105.163605 996.993347,102.518112 968.710815,105.501678 
	C949.169922,107.563087 930.626526,113.758530 914.677979,124.660347 
	C894.901123,138.178986 873.882080,148.038956 851.171936,155.117096 
	C835.350525,160.048218 819.219543,164.750992 804.401611,171.967911 
	C778.364075,184.649155 762.634521,207.346420 751.035583,233.131195 
	C746.713013,242.740463 744.946350,252.728485 746.748718,263.304993 
	C748.674500,274.606110 747.788879,285.872986 745.309265,297.017181 
	C739.427124,323.453705 732.178955,349.531006 729.078430,376.633789 
	C726.316772,400.774200 728.635315,423.250641 740.884644,444.536804 
	C745.174988,451.992279 748.796936,459.934113 751.828247,467.990936 
	C758.121277,484.716980 757.902100,502.613312 759.693359,519.654053 
	C758.283508,517.806213 756.887634,515.947510 755.461243,514.112488 
	C749.319092,506.210846 742.486755,504.345215 732.970520,507.409760 
	C717.607971,512.356995 713.088013,529.244812 714.378967,542.961914 
	C716.083313,561.072266 724.679321,575.989197 737.249268,588.853088 
	C745.980286,597.788147 756.158936,604.588257 767.487305,609.656555 
	C776.526306,613.700623 783.789368,619.469849 789.345947,627.859680 
	C798.596924,641.827454 808.293884,655.509521 818.100891,669.096924 
	C830.684631,686.531311 844.088745,703.324951 861.699219,716.050537 
	C875.834167,726.264587 890.366455,735.927734 904.645569,745.944885 
	C906.663574,747.360596 909.440430,749.168457 909.828979,751.186951 
	C911.891296,761.901367 914.201599,772.697021 914.731934,783.547302 
	C915.541443,800.108582 914.965271,816.737488 914.169556,833.518066 
	C904.990417,837.325500 895.815186,841.142456 886.631409,844.938599 
	C865.606934,853.628906 844.417542,861.944397 823.608643,871.122986 
	C809.969788,877.138916 796.102966,883.225220 783.746216,891.406555 
	C769.486816,900.847656 754.356506,908.134460 738.861206,914.253540 
	C737.957214,902.851501 735.867126,891.385254 736.480347,880.065430 
	C737.102234,868.587097 740.268372,857.228027 742.553284,845.863586 
	C744.795044,834.713989 749.090210,823.940430 747.131470,812.132812 
	C745.331726,801.283691 739.031738,794.493225 729.182617,790.752930 
	C720.403992,787.419250 712.899963,790.990417 706.167419,796.305420 
	C696.570190,803.881958 692.322571,814.702759 688.375610,826.190247 
	C687.945679,826.282959 687.515686,826.375610 686.928345,825.750671 
	C679.102356,816.506836 671.860657,806.676819 663.313904,798.156006 
	C650.381836,785.263550 635.052490,776.654053 615.719116,776.547485 
	C615.493286,776.037659 615.267456,775.527771 615.128235,774.087097 
M644.393616,505.169373 
	C636.703308,497.347687 628.988647,489.549744 621.333069,481.694214 
	C617.513062,477.774536 614.006775,473.522858 609.964417,469.855896 
	C607.483398,467.605194 603.957825,466.075531 600.921021,468.746857 
	C597.572388,471.692535 599.427368,475.112091 601.226990,478.225250 
	C601.557129,478.796539 601.975952,479.330353 602.422485,479.818726 
	C613.291443,491.705200 624.097778,503.650177 635.085938,515.425598 
	C638.843689,519.452576 644.048645,520.305115 646.628357,517.637817 
	C650.295105,513.846619 648.029419,510.329834 645.752197,506.913269 
	C645.475891,506.498810 645.164490,506.107758 644.393616,505.169373 
M454.015442,332.488251 
	C442.021851,324.671692 430.034790,316.845032 418.027039,309.050323 
	C416.355499,307.965210 414.660461,306.852570 412.838196,306.077301 
	C409.497467,304.656067 405.899750,303.712799 403.333160,307.267578 
	C400.558990,311.109863 403.019012,314.151459 405.569824,316.954987 
	C406.234894,317.685974 407.014130,318.357574 407.850464,318.881561 
	C420.962799,327.096771 434.050232,335.353119 447.239380,343.443481 
	C452.840271,346.879150 457.910583,346.995422 459.373566,343.718964 
	C461.624512,338.677704 458.064301,335.701569 454.015442,332.488251 
M471.397461,481.830536 
	C472.429718,480.527802 473.627625,479.322113 474.459869,477.902130 
	C476.211365,474.913757 477.741364,471.050140 474.506927,468.940552 
	C472.571808,467.678406 468.692657,468.807770 465.918427,469.636139 
	C464.180511,470.155121 462.758911,472.003693 461.388611,473.440063 
	C451.620087,483.679077 441.857819,493.924988 432.205902,504.273468 
	C430.422333,506.185760 428.591248,508.394135 427.817261,510.799011 
	C427.207947,512.692078 427.459473,515.775696 428.672699,517.087402 
	C429.909454,518.424683 433.090149,519.129517 434.876587,518.519775 
	C437.553741,517.606018 440.113312,515.639038 442.100555,513.532837 
	C451.810028,503.242035 461.313019,492.756470 471.397461,481.830536 
M403.490814,400.857544 
	C398.999481,400.903137 394.502350,400.820984 390.018280,401.025848 
	C384.052582,401.298370 380.367950,403.976868 380.407715,407.721191 
	C380.449036,411.614166 384.653473,414.519287 390.453827,414.657074 
	C390.952454,414.668945 391.452576,414.662781 391.950806,414.639343 
	C405.887360,413.982697 419.824829,413.343750 433.759216,412.643707 
	C436.242615,412.518951 439.073853,412.803619 441.097778,411.706390 
	C443.590027,410.355255 445.404541,407.754028 447.511963,405.693085 
	C445.434631,403.813232 443.578217,401.546082 441.201752,400.190765 
	C439.638885,399.299408 437.318970,399.522217 435.350220,399.591309 
	C425.059540,399.952484 414.772705,400.424133 403.490814,400.857544 
M680.990112,414.187775 
	C684.392883,413.875488 688.024109,414.172241 691.109619,413.014465 
	C692.862366,412.356812 694.665100,409.333649 694.696472,407.348114 
	C694.723328,405.647522 692.595154,403.136139 690.820312,402.366730 
	C688.185425,401.224487 685.031250,401.017059 682.080444,400.913422 
	C671.450500,400.540100 660.813416,400.364990 650.178467,400.139771 
	C645.212646,400.034576 640.228455,399.705536 635.285095,400.008850 
	C631.888977,400.217194 628.254395,401.620483 628.182556,405.655579 
	C628.107422,409.876129 631.679077,411.258209 635.301697,411.985809 
	C635.789185,412.083740 636.291382,412.131439 636.788879,412.153900 
	C651.226257,412.805695 665.663940,413.451324 680.990112,414.187775 
M543.886414,288.474915 
	C543.840332,281.003174 543.790955,273.531494 543.750183,266.059723 
	C543.736694,263.583344 544.488037,260.763306 543.543945,258.723114 
	C542.517029,256.503754 540.069214,253.725494 537.981934,253.490387 
	C534.620911,253.111801 533.006165,256.250336 532.923645,259.596497 
	C532.564941,274.142242 532.249329,288.689087 531.961426,303.236389 
	C531.938843,304.379517 531.868469,305.823700 532.481689,306.616425 
	C533.897339,308.446594 535.644470,311.136322 537.399719,311.248596 
	C538.910706,311.345215 541.673462,308.565186 542.042542,306.694061 
	C543.156860,301.044922 543.375183,295.219055 543.886414,288.474915 
M630.219971,311.713226 
	C623.600403,316.684265 616.956238,321.623047 610.380737,326.651611 
	C608.944763,327.749756 607.202698,328.947998 606.584473,330.493347 
	C605.737183,332.611115 604.841736,335.749939 605.817139,337.240845 
	C606.659180,338.527924 610.264526,338.819397 612.326599,338.292328 
	C614.960632,337.619019 617.461365,335.931885 619.687683,334.244080 
	C627.633545,328.220490 635.421448,321.989075 643.308044,315.886780 
	C645.654907,314.070831 648.381592,312.677856 650.479126,310.625824 
	C652.834473,308.321594 654.437134,305.188354 651.815979,302.192505 
	C649.277466,299.291046 646.120483,300.155579 643.298340,302.174561 
	C639.104248,305.175049 634.955566,308.238770 630.219971,311.713226 
z"/>
<path fill="#4F95D0" opacity="1.000000" stroke="none" 
	d="
M738.937012,915.117310 
	C754.356506,908.134460 769.486816,900.847656 783.746216,891.406555 
	C796.102966,883.225220 809.969788,877.138916 823.608643,871.122986 
	C844.417542,861.944397 865.606934,853.628906 886.631409,844.938599 
	C895.815186,841.142456 904.990417,837.325500 914.622620,833.950928 
	C915.153870,839.632263 915.231995,844.880737 915.067261,850.372803 
	C898.221863,860.783875 887.493530,875.956848 880.145935,893.395020 
	C872.468262,911.616272 865.161865,930.078735 859.158813,948.903137 
	C846.226929,989.454895 843.582336,1031.565308 843.564331,1073.727661 
	C843.551453,1103.992065 845.174194,1134.290527 847.041504,1164.513550 
	C849.115967,1198.090088 854.689270,1231.236572 861.609741,1264.159302 
	C869.872559,1303.467529 882.419739,1341.543091 894.519165,1379.747925 
	C906.079163,1416.249512 916.507141,1453.021729 922.204407,1491.382690 
	C925.390991,1527.695190 929.114197,1563.556152 931.716675,1599.498291 
	C933.552490,1624.851196 934.129395,1650.307495 934.798035,1675.729980 
	C935.720825,1710.814453 936.791382,1745.912109 936.694153,1781.001221 
	C936.607056,1812.413208 935.024170,1843.820923 934.101257,1875.230591 
	C927.941528,1875.373413 921.781799,1875.639038 915.622009,1875.640747 
	C818.297913,1875.666870 720.973755,1875.659302 623.649658,1875.659302 
	C619.665222,1875.659302 615.680847,1875.659180 610.958496,1875.659180 
	C611.318176,1811.229004 610.611694,1747.441650 604.815002,1683.564331 
	C603.872925,1686.768677 602.924316,1689.971069 601.989746,1693.177368 
	C595.705688,1714.735718 587.468872,1735.402588 573.238892,1753.098877 
	C554.082275,1776.921875 528.424744,1790.340576 499.401886,1797.867432 
	C477.525452,1803.541016 455.396667,1804.554321 433.173492,1799.616455 
	C397.629364,1791.718628 374.414154,1769.303955 359.720917,1737.005371 
	C349.411865,1714.344116 344.490265,1690.302856 341.982910,1665.673218 
	C336.005615,1606.958618 345.534668,1549.890259 360.444580,1493.438477 
	C374.026733,1442.014038 392.425171,1392.311157 414.095398,1343.749146 
	C427.796387,1313.045898 436.980377,1280.902710 440.646210,1247.427246 
	C442.781586,1227.927612 445.747894,1208.651611 454.959686,1191.213257 
	C460.592468,1180.550049 467.369781,1170.223267 475.136230,1161.012695 
	C490.131256,1143.229370 497.253204,1122.801392 500.197540,1100.122559 
	C501.727478,1088.338257 504.531708,1076.546143 508.297668,1065.270996 
	C512.614929,1052.345459 521.808289,1042.919434 534.165955,1036.802246 
	C536.095215,1035.847290 537.874695,1034.589722 540.224731,1033.466797 
	C544.886414,1047.122925 548.934448,1060.820435 553.285645,1074.420898 
	C554.382996,1077.851074 555.981750,1081.326538 558.146545,1084.176147 
	C572.347900,1102.870361 590.278992,1116.484375 613.225708,1122.540405 
	C636.431824,1128.664795 656.408936,1123.320068 671.933655,1104.374390 
	C680.192871,1094.295166 684.748108,1082.281006 689.345825,1070.303223 
	C691.152832,1074.249756 692.839600,1078.001831 694.106323,1081.890747 
	C698.488831,1095.345459 700.435364,1109.108887 697.017883,1123.023804 
	C694.252075,1134.285156 690.928040,1145.431274 687.352478,1156.466797 
	C681.057922,1175.894165 676.188904,1195.550903 678.150696,1216.142700 
	C679.486145,1230.159302 681.818787,1244.078491 683.537842,1258.061890 
	C685.143005,1271.119507 686.500610,1284.253906 682.177429,1297.061768 
	C678.673157,1307.443359 674.765137,1317.690796 670.930176,1327.958130 
	C662.473022,1350.600342 661.491333,1374.706421 657.153259,1398.150757 
	C651.421814,1429.125000 646.311035,1460.215820 640.391174,1491.152832 
	C634.656067,1521.124146 628.137695,1550.944580 622.140686,1580.866943 
	C615.883362,1612.087769 609.799683,1643.343750 603.808777,1674.616821 
	C603.501160,1676.222656 604.782349,1678.133057 605.323853,1679.901611 
	C606.606262,1678.563477 608.695435,1677.406494 609.042969,1675.858521 
	C611.729736,1663.891235 614.119080,1651.855957 616.526062,1639.827026 
	C621.699097,1613.975098 626.881714,1588.124878 631.961792,1562.254639 
	C640.141541,1520.599487 648.424438,1478.963135 656.294800,1437.249268 
	C659.981934,1417.706665 662.987061,1398.028809 665.974609,1378.362549 
	C669.044067,1358.157104 672.057983,1338.036743 680.633484,1319.140259 
	C686.769348,1305.619751 691.587891,1291.378784 690.675659,1276.346069 
	C689.753601,1261.152954 686.736023,1246.094604 685.593628,1230.905151 
	C684.601135,1217.708740 683.182190,1204.142944 685.150208,1191.227783 
	C687.555847,1175.441040 692.900330,1160.038452 697.698853,1144.696411 
	C703.502441,1126.141235 706.710205,1107.450684 701.805054,1088.333008 
	C699.679199,1080.047607 699.564941,1070.576782 691.726929,1064.281738 
	C698.506775,1049.479126 704.819702,1034.841187 712.018921,1020.653015 
	C720.742981,1003.460022 730.118896,986.605530 734.558655,967.616028 
	C738.599609,950.331848 738.745667,932.722656 738.937012,915.117310 
M873.391724,1734.296997 
	C872.076538,1741.197632 873.656433,1747.109619 879.232422,1751.718262 
	C885.108093,1756.574707 893.757446,1758.460205 898.078491,1755.194092 
	C904.027161,1750.697754 907.618713,1744.578735 907.958191,1736.989380 
	C908.300293,1729.340454 904.524902,1723.941284 897.418335,1721.258667 
	C887.140137,1717.378784 877.397034,1722.418701 873.391724,1734.296997 
M883.002686,1484.436401 
	C879.289001,1468.947632 875.695984,1453.428711 871.837219,1437.976196 
	C863.011536,1402.633667 844.863159,1370.312744 838.062378,1334.286011 
	C837.829407,1333.052002 835.763672,1332.163940 834.552185,1331.114624 
	C833.950623,1332.604248 832.548523,1334.300293 832.871277,1335.551392 
	C836.102173,1348.074097 838.718750,1360.859131 843.227112,1372.928101 
	C854.748352,1403.771240 866.229736,1434.589355 873.460449,1466.791138 
	C875.494873,1475.851318 877.050903,1485.018799 879.085510,1494.078857 
	C879.343079,1495.225952 881.182556,1496.017822 882.289246,1496.974243 
	C883.015442,1495.691895 884.359253,1494.399414 884.338684,1493.129150 
	C884.296448,1490.511841 883.525757,1487.906372 883.002686,1484.436401 
M862.346985,1545.336182 
	C862.206909,1547.153809 861.950623,1548.971191 861.946472,1550.789062 
	C861.925354,1560.052490 866.770020,1565.703125 877.032593,1568.491089 
	C884.064026,1570.401245 889.287292,1567.693726 893.723389,1559.293457 
	C897.036865,1553.019043 898.356079,1546.341553 894.205383,1539.930298 
	C889.704651,1532.978394 882.580261,1531.930786 875.182556,1533.105103 
	C868.752686,1534.125854 864.583984,1538.287598 862.346985,1545.336182 
M539.932678,1177.586426 
	C537.793213,1174.832764 535.776917,1171.966797 533.433899,1169.398926 
	C532.791809,1168.695312 530.643799,1168.312256 530.119385,1168.794922 
	C529.277832,1169.569824 528.834534,1171.221313 528.939148,1172.440918 
	C529.024597,1173.436279 530.110535,1174.379272 530.832275,1175.281982 
	C544.933899,1192.916870 558.798157,1210.750000 573.257141,1228.087280 
	C581.121521,1237.517090 589.950500,1246.149292 598.502991,1254.987793 
	C599.312012,1255.823853 601.257812,1255.559937 602.675842,1255.806641 
	C602.649658,1254.330811 602.739502,1252.838989 602.537659,1251.387573 
	C602.461792,1250.841553 601.719849,1250.379883 601.264282,1249.896118 
	C595.681702,1243.967773 589.776672,1238.308594 584.571472,1232.065918 
	C569.689209,1214.217041 555.090759,1196.131714 539.932678,1177.586426 
M529.261230,1311.289307 
	C524.605713,1310.074707 519.981384,1308.706909 515.273743,1307.748291 
	C514.029297,1307.494873 512.528076,1308.502686 511.144745,1308.931396 
	C511.969757,1310.297729 512.499390,1312.446411 513.673035,1312.889648 
	C517.845459,1314.465332 522.204529,1315.595703 526.552124,1316.650391 
	C543.062317,1320.655640 559.693665,1321.536255 576.375488,1317.890747 
	C577.751892,1317.589844 578.743774,1315.529785 579.914368,1314.287109 
	C578.452332,1313.635742 576.846680,1312.210327 575.550171,1312.450928 
	C560.303467,1315.280396 545.161743,1314.807373 529.261230,1311.289307 
z"/>
<path fill="#4F95D0" opacity="1.000000" stroke="none" 
	d="
M1395.044189,1875.778442 
	C1380.231934,1875.738647 1365.419556,1875.667236 1350.607300,1875.664551 
	C1283.360718,1875.652100 1216.114258,1875.666748 1148.867676,1875.642700 
	C1144.045532,1875.640869 1139.223389,1875.405762 1134.033569,1874.726318 
	C1133.732422,1856.845703 1134.031738,1839.514648 1133.798218,1822.190918 
	C1133.578369,1805.887085 1133.105591,1789.573364 1132.191772,1773.295044 
	C1130.746582,1747.545776 1128.123047,1721.845093 1127.315796,1696.082520 
	C1126.366333,1665.785034 1127.345581,1635.428955 1126.510010,1605.125244 
	C1125.806274,1579.594849 1126.785522,1554.248779 1129.881348,1528.918457 
	C1131.979492,1511.751831 1133.459473,1494.510376 1135.327026,1477.314453 
	C1137.175171,1460.296143 1138.776855,1443.237549 1141.207031,1426.300049 
	C1143.282837,1411.833374 1146.595093,1397.548584 1148.972534,1383.119507 
	C1152.105713,1364.103149 1153.532593,1344.702026 1158.062378,1326.041504 
	C1166.570190,1290.992676 1177.512939,1256.514526 1182.494019,1220.662964 
	C1187.640503,1183.621094 1197.349854,1147.289673 1199.313477,1109.745605 
	C1200.751465,1082.250610 1200.630371,1054.817383 1197.431641,1027.465942 
	C1195.597046,1011.778198 1192.948730,996.186523 1191.049683,980.505188 
	C1187.713745,952.961060 1180.439209,926.647400 1166.645264,902.456421 
	C1156.476074,884.622192 1144.091553,868.672119 1125.621094,858.436340 
	C1119.662964,855.134521 1113.932007,851.422546 1108.053955,847.494568 
	C1107.081177,842.450317 1106.151611,837.809631 1105.222046,833.169006 
	C1111.186523,834.426941 1117.419678,834.963257 1123.068848,837.067871 
	C1147.528076,846.180420 1171.885864,855.577148 1196.140625,865.222534 
	C1210.045288,870.751953 1224.841553,875.175049 1237.199829,883.223267 
	C1263.731323,900.501526 1293.286499,910.700684 1321.927734,923.106201 
	C1358.942383,939.138428 1393.607544,959.094604 1424.741333,984.853638 
	C1446.445557,1002.811035 1462.607788,1025.335693 1477.201782,1049.206665 
	C1502.695312,1090.905396 1520.845581,1135.767212 1537.289429,1181.633911 
	C1545.744385,1205.217651 1548.802612,1229.322266 1551.962402,1253.687866 
	C1555.469727,1280.734863 1559.313232,1307.740601 1562.577271,1334.816406 
	C1565.065796,1355.458618 1567.443481,1376.143311 1568.872803,1396.877930 
	C1571.744141,1438.535645 1574.537354,1480.215576 1576.243774,1521.932129 
	C1578.123657,1567.887451 1588.332397,1612.082642 1601.294189,1655.901611 
	C1607.286743,1676.160767 1612.324829,1696.762939 1612.461670,1718.066895 
	C1612.534180,1729.354858 1611.817139,1740.702026 1610.613892,1751.932129 
	C1608.375977,1772.817505 1606.122192,1793.566284 1610.850586,1814.477173 
	C1613.987793,1828.351196 1611.548828,1842.312622 1609.655640,1856.179932 
	C1608.825317,1862.261719 1608.147095,1868.364258 1607.250610,1875.675049 
	C1538.970581,1875.675049 1470.431763,1875.675049 1401.394287,1875.279297 
	C1399.630737,1854.002441 1398.316162,1833.124146 1397.115845,1812.239258 
	C1396.038696,1793.499146 1394.937622,1774.758545 1394.115967,1756.006226 
	C1392.966187,1729.765503 1392.076294,1703.513550 1391.056030,1677.267090 
	C1390.345581,1658.991943 1389.622681,1640.717285 1388.864624,1622.444092 
	C1388.582397,1615.637573 1388.287842,1608.828613 1387.821167,1602.033081 
	C1386.262695,1579.341675 1384.630249,1556.655273 1383.012817,1533.967896 
	C1381.961914,1519.225830 1381.099243,1504.466187 1379.771851,1489.748779 
	C1378.058228,1470.748535 1375.828003,1451.795288 1374.075806,1432.798218 
	C1372.490356,1415.607910 1371.049194,1398.399048 1369.903931,1381.174561 
	C1368.438721,1359.137451 1366.815308,1337.090088 1366.235229,1315.021362 
	C1365.754761,1296.738892 1366.247314,1278.398071 1367.130127,1260.122681 
	C1367.874023,1244.722290 1369.096313,1229.275146 1371.348633,1214.032104 
	C1376.036255,1182.307007 1383.026978,1151.043091 1392.655762,1120.410767 
	C1394.549438,1114.386108 1396.582397,1108.396240 1398.172852,1102.291748 
	C1398.560913,1100.802124 1397.454834,1098.923340 1397.035767,1097.223511 
	C1395.640625,1098.242676 1394.150879,1099.160278 1392.894653,1100.328735 
	C1392.356323,1100.829590 1392.261963,1101.840942 1392.036865,1102.640259 
	C1386.814697,1121.182861 1381.289307,1139.646973 1376.450806,1158.289185 
	C1365.040283,1202.253418 1360.346313,1247.131226 1360.306763,1292.424805 
	C1360.284424,1317.837280 1361.872559,1343.259888 1363.077393,1368.661499 
	C1363.753784,1382.920532 1364.912964,1397.166382 1366.237549,1411.382568 
	C1368.300049,1433.516357 1370.839233,1455.605835 1372.894531,1477.740356 
	C1374.766602,1497.903076 1376.466675,1518.086548 1377.875977,1538.286499 
	C1379.748535,1565.125366 1381.364746,1591.983276 1382.902710,1618.843872 
	C1384.061279,1639.080688 1385.025635,1659.330078 1385.892212,1679.581787 
	C1387.000610,1705.490479 1387.901001,1731.408203 1388.935425,1757.320068 
	C1389.638428,1774.927734 1390.277222,1792.539795 1391.198120,1810.136597 
	C1392.343628,1832.024292 1393.750366,1853.898438 1395.044189,1875.778442 
M1504.518799,1745.018555 
	C1501.659180,1747.814331 1498.884277,1750.703979 1495.919434,1753.383423 
	C1491.603760,1757.283447 1487.027954,1760.904785 1482.854004,1764.945435 
	C1481.940674,1765.829468 1482.251465,1767.978149 1481.998657,1769.544556 
	C1483.430786,1769.496582 1484.935791,1769.702637 1486.271484,1769.319092 
	C1487.312256,1769.020142 1488.234131,1768.080200 1489.052124,1767.267334 
	C1500.379028,1756.010864 1512.577026,1745.472168 1522.725708,1733.234985 
	C1532.314087,1721.673462 1539.825562,1708.373779 1547.987793,1695.669678 
	C1548.793091,1694.416504 1547.761841,1691.983276 1547.582886,1690.097656 
	C1546.085083,1691.050293 1543.872437,1691.648315 1543.197144,1693.009155 
	C1533.538452,1712.473267 1520.080078,1729.081543 1504.518799,1745.018555 
M1439.201782,1023.171143 
	C1437.985474,1024.073730 1436.397095,1024.733521 1435.620605,1025.923218 
	C1432.995850,1029.944580 1430.628418,1034.135986 1428.217896,1038.294556 
	C1421.322021,1050.191528 1414.363037,1062.054077 1407.694702,1074.077637 
	C1406.913452,1075.486450 1407.793457,1077.816650 1407.903320,1079.719604 
	C1409.486572,1078.710327 1411.673340,1078.065063 1412.542114,1076.624878 
	C1415.362549,1071.949585 1417.477295,1066.850708 1420.268555,1062.155640 
	C1426.536011,1051.613647 1433.120605,1041.260376 1439.397217,1030.723755 
	C1440.672241,1028.583252 1443.516235,1026.104370 1439.201782,1023.171143 
z"/>
<path fill="#FFFBF2" opacity="1.000000" stroke="none" 
	d="
M1108.097046,847.898193 
	C1113.932007,851.422546 1119.662964,855.134521 1125.621094,858.436340 
	C1144.091553,868.672119 1156.476074,884.622192 1166.645264,902.456421 
	C1180.439209,926.647400 1187.713745,952.961060 1191.049683,980.505188 
	C1192.948730,996.186523 1195.597046,1011.778198 1197.431641,1027.465942 
	C1200.630371,1054.817383 1200.751465,1082.250610 1199.313477,1109.745605 
	C1197.349854,1147.289673 1187.640503,1183.621094 1182.494019,1220.662964 
	C1177.512939,1256.514526 1166.570190,1290.992676 1158.062378,1326.041504 
	C1153.532593,1344.702026 1152.105713,1364.103149 1148.972534,1383.119507 
	C1146.595093,1397.548584 1143.282837,1411.833374 1141.207031,1426.300049 
	C1138.776855,1443.237549 1137.175171,1460.296143 1135.327026,1477.314453 
	C1133.459473,1494.510376 1131.979492,1511.751831 1129.881348,1528.918457 
	C1126.785522,1554.248779 1125.806274,1579.594849 1126.510010,1605.125244 
	C1127.345581,1635.428955 1126.366333,1665.785034 1127.315796,1696.082520 
	C1128.123047,1721.845093 1130.746582,1747.545776 1132.191772,1773.295044 
	C1133.105591,1789.573364 1133.578369,1805.887085 1133.798218,1822.190918 
	C1134.031738,1839.514648 1133.732422,1856.845703 1133.584717,1874.647217 
	C1081.642456,1875.079834 1029.781250,1875.038696 977.453613,1874.569092 
	C976.322571,1868.564331 975.660706,1862.987671 974.993103,1857.411743 
	C973.756042,1847.080444 972.860962,1836.693115 971.188354,1826.432739 
	C969.145874,1813.904297 965.962891,1801.552979 964.144714,1788.998779 
	C961.043213,1767.583008 958.341125,1746.098999 956.004700,1724.585815 
	C954.237366,1708.312622 953.310059,1691.948364 951.988892,1675.626343 
	C951.655151,1671.503052 951.811707,1667.236938 950.775024,1663.290894 
	C945.637146,1643.734131 946.553894,1623.527832 944.026550,1603.699829 
	C942.167053,1589.111084 941.296143,1574.352783 938.627808,1559.921021 
	C934.691284,1538.630005 929.584534,1517.554077 924.858643,1496.412842 
	C924.430786,1494.499268 923.147888,1492.776978 922.262085,1490.965820 
	C916.507141,1453.021729 906.079163,1416.249512 894.519165,1379.747925 
	C882.419739,1341.543091 869.872559,1303.467529 861.609741,1264.159302 
	C854.689270,1231.236572 849.115967,1198.090088 847.041504,1164.513550 
	C845.174194,1134.290527 843.551453,1103.992065 843.564331,1073.727661 
	C843.582336,1031.565308 846.226929,989.454895 859.158813,948.903137 
	C865.161865,930.078735 872.468262,911.616272 880.145935,893.395020 
	C887.493530,875.956848 898.221863,860.783875 915.273987,850.667847 
	C915.654236,851.862732 915.722229,853.034302 915.494751,854.145447 
	C912.099182,870.734924 914.330139,886.467468 922.220642,901.494690 
	C940.844971,936.963989 972.391602,951.691040 1010.185059,954.734924 
	C1037.271118,956.916504 1060.443848,945.404053 1079.689697,927.392700 
	C1102.444702,906.097412 1113.362305,879.658691 1108.097046,847.898193 
z"/>
<path fill="#F6B49C" opacity="1.000000" stroke="none" 
	d="
M1108.053955,847.494629 
	C1113.362305,879.658691 1102.444702,906.097412 1079.689697,927.392700 
	C1060.443848,945.404053 1037.271118,956.916504 1010.185059,954.734924 
	C972.391602,951.691040 940.844971,936.963989 922.220642,901.494690 
	C914.330139,886.467468 912.099182,870.734924 915.494751,854.145447 
	C915.722229,853.034302 915.654236,851.862732 915.516968,850.424194 
	C915.231995,844.880737 915.153870,839.632263 915.026550,833.860779 
	C914.965271,816.737488 915.541443,800.108582 914.731934,783.547302 
	C914.201599,772.697021 911.891296,761.901367 909.828979,751.186951 
	C909.440430,749.168457 906.663574,747.360596 904.645569,745.944885 
	C890.366455,735.927734 875.834167,726.264587 861.699219,716.050537 
	C844.088745,703.324951 830.684631,686.531311 818.100891,669.096924 
	C808.293884,655.509521 798.596924,641.827454 789.345947,627.859680 
	C783.789368,619.469849 776.526306,613.700623 767.487305,609.656555 
	C756.158936,604.588257 745.980286,597.788147 737.249268,588.853088 
	C724.679321,575.989197 716.083313,561.072266 714.378967,542.961914 
	C713.088013,529.244812 717.607971,512.356995 732.970520,507.409760 
	C742.486755,504.345215 749.319092,506.210846 755.461243,514.112488 
	C756.887634,515.947510 758.283508,517.806213 760.204895,520.144714 
	C761.168701,523.426392 761.458252,526.255676 762.104797,529.000916 
	C763.811096,536.245850 765.099976,543.665100 767.658020,550.608643 
	C769.607361,555.900146 774.037354,560.122925 780.204041,559.658630 
	C786.519775,559.183167 789.157776,553.940918 790.920105,548.509155 
	C791.529968,546.629272 792.079834,544.612427 792.057800,542.664978 
	C791.952576,533.364807 791.942017,524.047424 791.339050,514.772461 
	C790.180908,496.958618 789.941284,479.411530 800.667480,463.804871 
	C808.294922,452.706970 815.373291,441.360565 820.918091,428.970306 
	C829.305115,410.228973 833.933533,390.915192 832.124207,370.394104 
	C830.692322,354.154480 832.276550,338.433289 839.019775,323.530518 
	C845.600220,308.987396 855.883850,298.262970 872.275879,295.433807 
	C889.100037,292.529999 906.080200,291.742706 922.864319,295.692596 
	C938.393799,299.347290 953.738403,303.785736 969.261963,307.468018 
	C985.817871,311.395233 1002.768677,313.546600 1018.890381,306.718323 
	C1053.819946,291.924042 1090.178955,291.455475 1126.839600,295.199402 
	C1155.039307,298.079254 1172.030029,314.538452 1175.959351,342.684601 
	C1177.992432,357.249207 1177.341919,372.193115 1177.826538,386.968170 
	C1178.523804,408.224762 1182.328125,428.837250 1193.809204,447.001556 
	C1204.253418,463.525330 1209.465820,481.412750 1210.956665,500.552582 
	C1211.769775,510.989349 1211.323120,521.524109 1212.131958,531.961426 
	C1212.626587,538.344910 1213.760498,544.856079 1215.835449,550.887329 
	C1217.693115,556.286621 1223.059692,556.842651 1226.222290,552.088379 
	C1228.609253,548.500244 1230.353638,544.018250 1230.869019,539.751160 
	C1231.862183,531.528992 1231.783203,523.177246 1232.148804,514.879272 
	C1243.738647,498.858612 1267.048340,507.872620 1272.816040,523.776672 
	C1276.763794,534.662231 1276.562622,545.518433 1273.319458,556.511292 
	C1266.055176,581.134460 1249.457397,597.818848 1227.726440,610.038940 
	C1220.774780,613.948120 1213.410400,617.118225 1206.372314,620.883179 
	C1204.627808,621.816345 1202.791748,623.490417 1202.055786,625.263184 
	C1185.364014,665.470703 1160.041870,699.448853 1127.987671,728.642395 
	C1120.518433,735.445068 1113.268433,742.488647 1105.463379,749.744629 
	C1104.248169,750.337158 1103.352783,750.432251 1102.745728,750.900757 
	C1084.823608,764.732788 1065.279541,775.509827 1043.517212,781.958069 
	C1029.434937,786.130798 1015.079590,788.489136 1000.380188,785.867981 
	C976.323059,781.578064 953.511169,773.813232 932.386108,761.306091 
	C928.160645,758.804443 923.473999,757.081848 918.952087,754.852905 
	C918.812744,754.655212 918.721375,754.604614 918.629944,754.553955 
	C918.753296,754.702637 918.876648,754.851318 919.138367,755.305969 
	C929.262207,765.313599 938.494934,775.988708 949.438843,784.450867 
	C961.041199,793.422180 973.797668,801.225769 986.907349,807.840454 
	C1003.107361,816.014709 1020.868103,820.335022 1038.846191,822.604248 
	C1049.825562,823.990112 1061.073730,824.090515 1072.151123,823.610657 
	C1082.689209,823.154236 1093.162109,821.192993 1103.663696,819.893372 
	C1104.134644,824.026367 1104.605591,828.159302 1105.149292,832.730652 
	C1106.151611,837.809631 1107.081177,842.450317 1108.053955,847.494629 
M1051.913452,606.581482 
	C1042.221680,607.740173 1032.556519,609.434204 1022.831055,609.918945 
	C1011.264404,610.495544 999.644470,610.139771 988.050537,609.978027 
	C981.917847,609.892517 975.786682,609.023804 969.663208,609.109375 
	C960.152405,609.242126 951.933472,615.336060 952.176636,622.790344 
	C952.358826,628.377014 953.183411,634.865601 956.183655,639.279236 
	C969.790833,659.296326 988.767517,671.235840 1013.290100,672.853027 
	C1040.965820,674.678223 1064.776123,653.459229 1073.565918,633.468811 
	C1078.662109,621.878540 1072.775146,610.697327 1060.550293,607.446899 
	C1058.020264,606.774170 1055.333984,606.689087 1051.913452,606.581482 
M1084.183594,402.673645 
	C1075.267944,405.274567 1066.704956,408.587799 1061.695312,417.074829 
	C1060.613892,418.906860 1060.090332,422.466064 1061.135620,423.815826 
	C1062.571411,425.669922 1065.762085,427.076843 1068.174194,427.037659 
	C1071.361206,426.985840 1074.531372,425.377350 1077.692993,424.387329 
	C1090.033081,420.523163 1102.255005,419.079803 1114.613892,424.712708 
	C1117.971924,426.243195 1122.070557,427.041687 1125.716309,426.752289 
	C1128.421143,426.537598 1132.156250,424.592407 1133.204834,422.367920 
	C1134.250854,420.149109 1133.432251,415.911133 1131.804932,413.830170 
	C1129.124268,410.402405 1125.452759,407.437469 1121.635620,405.268982 
	C1109.957764,398.634949 1097.535522,398.665070 1084.183594,402.673645 
M929.245789,404.198547 
	C911.669800,396.126190 895.144897,400.224182 879.234985,408.926910 
	C876.165405,410.605957 873.454895,413.602448 871.606079,416.620453 
	C870.367554,418.642242 869.869202,422.474884 871.004395,424.216949 
	C872.172729,426.009827 875.716370,426.945709 878.237122,426.978210 
	C880.927490,427.012909 883.667603,425.641144 886.333252,424.729248 
	C899.125427,420.353210 911.800476,419.125916 924.655396,424.848602 
	C928.020630,426.346710 932.072693,426.932159 935.791443,426.869843 
	C942.741089,426.753296 946.272644,420.020874 941.936218,414.669006 
	C938.700256,410.675262 933.959778,407.900604 929.245789,404.198547 
M904.836975,520.079712 
	C910.794739,520.506409 916.770508,520.332397 920.884583,515.302368 
	C925.819702,509.268494 927.998169,502.110260 926.802185,494.316345 
	C925.112122,483.302490 915.040039,475.367157 905.427429,477.141022 
	C894.963196,479.072052 886.223328,488.877716 885.994263,498.943817 
	C885.749023,509.721497 892.142090,517.216736 904.836975,520.079712 
M1099.775024,477.190369 
	C1089.494629,476.268555 1080.174805,481.400787 1075.635986,490.483124 
	C1071.273926,499.211823 1073.586182,509.629639 1081.222290,515.652710 
	C1088.580566,521.456726 1101.546021,522.301025 1107.200073,516.442810 
	C1119.399048,503.803009 1116.333618,484.051605 1099.775024,477.190369 
M1010.749084,564.973633 
	C1007.191040,562.851074 1003.713440,560.571228 1000.031921,558.690308 
	C998.720154,558.020081 996.913940,558.317383 995.333374,558.173096 
	C995.640015,559.714111 995.431946,562.111572 996.337585,562.655823 
	C1001.833374,565.958435 1007.272034,570.197021 1013.312073,571.580322 
	C1026.406616,574.579468 1041.565674,565.827332 1037.992554,548.428589 
	C1036.299561,540.184387 1033.238647,532.229065 1031.002441,524.086487 
	C1028.511353,515.016235 1025.298828,505.999390 1024.159668,496.742798 
	C1022.997192,487.296112 1024.079956,477.584503 1023.903015,467.993958 
	C1023.873352,466.386292 1022.438843,464.804504 1021.653381,463.210724 
	C1020.504883,464.627594 1018.530762,465.939545 1018.335144,467.477570 
	C1016.308289,483.420898 1016.528076,499.269379 1021.542175,514.749634 
	C1025.019287,525.484436 1029.330322,536.014771 1031.917969,546.955933 
	C1035.345947,561.449646 1025.817139,569.554932 1010.749084,564.973633 
M1254.208862,538.288879 
	C1256.746094,538.980408 1259.270264,539.727051 1261.826294,540.340027 
	C1263.088501,540.642700 1264.409912,540.698608 1265.704468,540.866211 
	C1265.773315,539.404785 1266.429810,537.595825 1265.807373,536.543274 
	C1263.387329,532.451599 1258.401245,531.243164 1252.978760,532.586182 
	C1240.670532,535.634521 1232.159912,551.220886 1236.577637,563.278320 
	C1239.437500,571.084351 1238.032104,574.133423 1231.238159,578.878723 
	C1229.876465,579.829895 1228.285034,580.535828 1227.136353,581.690002 
	C1225.049683,583.786743 1222.988403,585.989380 1221.406128,588.461304 
	C1220.886841,589.272400 1221.883789,591.054016 1222.187500,592.391785 
	C1223.473633,592.020569 1225.033569,591.989990 1225.996338,591.216370 
	C1229.322388,588.543884 1232.305420,585.439819 1235.664917,582.814758 
	C1243.214966,576.915283 1245.060059,571.974121 1242.702637,562.917664 
	C1239.547119,550.795532 1242.540283,544.060425 1254.208862,538.288879 
M771.655518,588.144531 
	C771.184692,586.342102 771.235474,584.078125 770.134216,582.833496 
	C767.850708,580.252686 765.106079,578.001282 762.281677,575.993347 
	C755.289490,571.022522 754.193909,569.149963 756.831848,561.083862 
	C759.229431,553.752869 757.398315,547.150085 754.122437,540.963745 
	C750.734070,534.565002 744.514404,531.196350 737.518372,530.460449 
	C734.818542,530.176392 731.605103,532.197510 729.106689,533.881775 
	C728.147095,534.528687 728.527588,537.163269 728.297485,538.892151 
	C729.861328,538.679810 732.007141,539.038330 732.880249,538.148376 
	C735.522888,535.454346 738.174194,535.858398 741.078796,537.162842 
	C749.838440,541.096619 753.856262,550.101074 751.055908,559.466736 
	C748.315918,568.630493 749.912354,573.785889 756.908936,579.291138 
	C760.406494,582.043091 763.600220,585.183777 767.126648,587.894714 
	C768.089233,588.634644 769.759155,588.454529 771.655518,588.144531 
z"/>
<path fill="#1F244A" opacity="1.000000" stroke="none" 
	d="
M1232.089600,514.423706 
	C1231.783203,523.177246 1231.862183,531.528992 1230.869019,539.751160 
	C1230.353638,544.018250 1228.609253,548.500244 1226.222290,552.088379 
	C1223.059692,556.842651 1217.693115,556.286621 1215.835449,550.887329 
	C1213.760498,544.856079 1212.626587,538.344910 1212.131958,531.961426 
	C1211.323120,521.524109 1211.769775,510.989349 1210.956665,500.552582 
	C1209.465820,481.412750 1204.253418,463.525330 1193.809204,447.001556 
	C1182.328125,428.837250 1178.523804,408.224762 1177.826538,386.968170 
	C1177.341919,372.193115 1177.992432,357.249207 1175.959351,342.684601 
	C1172.030029,314.538452 1155.039307,298.079254 1126.839600,295.199402 
	C1090.178955,291.455475 1053.819946,291.924042 1018.890381,306.718323 
	C1002.768677,313.546600 985.817871,311.395233 969.261963,307.468018 
	C953.738403,303.785736 938.393799,299.347290 922.864319,295.692596 
	C906.080200,291.742706 889.100037,292.529999 872.275879,295.433807 
	C855.883850,298.262970 845.600220,308.987396 839.019775,323.530518 
	C832.276550,338.433289 830.692322,354.154480 832.124207,370.394104 
	C833.933533,390.915192 829.305115,410.228973 820.918091,428.970306 
	C815.373291,441.360565 808.294922,452.706970 800.667480,463.804871 
	C789.941284,479.411530 790.180908,496.958618 791.339050,514.772461 
	C791.942017,524.047424 791.952576,533.364807 792.057800,542.664978 
	C792.079834,544.612427 791.529968,546.629272 790.920105,548.509155 
	C789.157776,553.940918 786.519775,559.183167 780.204041,559.658630 
	C774.037354,560.122925 769.607361,555.900146 767.658020,550.608643 
	C765.099976,543.665100 763.811096,536.245850 762.104797,529.000916 
	C761.458252,526.255676 761.168701,523.426392 760.487671,520.340027 
	C757.902100,502.613312 758.121277,484.716980 751.828247,467.990936 
	C748.796936,459.934113 745.174988,451.992279 740.884644,444.536804 
	C728.635315,423.250641 726.316772,400.774200 729.078430,376.633789 
	C732.178955,349.531006 739.427124,323.453705 745.309265,297.017181 
	C747.788879,285.872986 748.674500,274.606110 746.748718,263.304993 
	C744.946350,252.728485 746.713013,242.740463 751.035583,233.131195 
	C762.634521,207.346420 778.364075,184.649155 804.401611,171.967911 
	C819.219543,164.750992 835.350525,160.048218 851.171936,155.117096 
	C873.882080,148.038956 894.901123,138.178986 914.677979,124.660347 
	C930.626526,113.758530 949.169922,107.563087 968.710815,105.501678 
	C996.993347,102.518112 1024.563110,105.163605 1050.760376,116.861359 
	C1068.985229,124.999184 1083.078247,137.205261 1088.027344,157.644302 
	C1088.887085,161.195068 1091.486572,162.990860 1094.992798,162.912827 
	C1098.964233,162.824448 1102.918701,162.141800 1106.891602,161.909775 
	C1136.663208,160.171005 1160.582397,170.576065 1177.224854,195.964645 
	C1178.682739,198.188629 1180.244141,200.384277 1181.382690,202.771805 
	C1194.266602,229.788544 1212.772095,252.848724 1231.910522,275.547638 
	C1244.223633,290.151611 1254.728271,306.120056 1258.102783,325.325348 
	C1259.660156,334.188904 1259.449707,343.502930 1258.962524,352.554657 
	C1258.131958,367.985077 1256.515747,383.375763 1255.073608,398.768555 
	C1254.765503,402.056122 1253.981934,405.334503 1253.091797,408.526306 
	C1247.832153,427.385864 1242.626831,446.262787 1237.107178,465.046875 
	C1232.396606,481.076935 1231.254517,497.405426 1232.089600,514.423706 
M1072.802979,212.276596 
	C1065.765991,235.881775 1056.719604,258.423950 1039.339233,276.687042 
	C1038.329468,277.748077 1038.602417,280.029755 1038.278320,281.743378 
	C1040.028198,281.184937 1042.260132,281.130981 1043.453735,279.990387 
	C1056.110474,267.895386 1064.113403,252.766220 1070.427368,236.747879 
	C1074.010376,227.657730 1076.659546,218.189514 1079.450806,208.808701 
	C1079.833130,207.524048 1078.598877,205.758408 1078.113159,204.215485 
	C1076.785889,205.200912 1075.152710,205.963348 1074.223145,207.238678 
	C1073.404541,208.361816 1073.372437,210.058304 1072.802979,212.276596 
M937.021606,207.507446 
	C930.220520,200.100586 922.682922,193.659195 913.328064,189.655914 
	C911.364685,188.815720 908.967834,186.470154 907.384094,189.737701 
	C905.918152,192.762192 908.752625,193.320053 910.775879,194.566193 
	C916.263245,197.945938 921.978271,201.187134 926.765686,205.428421 
	C940.790527,217.853317 948.512451,234.022934 953.122437,251.925613 
	C953.521484,253.474960 955.633423,254.583206 956.949707,255.896378 
	C957.559387,254.222977 959.013245,252.333832 958.649170,250.909241 
	C954.623108,235.154907 948.411194,220.417435 937.021606,207.507446 
M863.975891,253.365311 
	C862.439758,251.495087 861.281006,248.906677 859.307129,247.869492 
	C844.904419,240.301498 829.580383,236.528992 813.232910,238.121964 
	C811.760010,238.265488 810.448975,240.071289 809.062805,241.105118 
	C810.680176,242.036865 812.247314,243.629425 813.925842,243.756973 
	C817.013855,243.991653 820.209961,242.897964 823.286072,243.178848 
	C835.463318,244.290710 846.997009,247.714249 857.896667,253.355545 
	C859.530518,254.201187 861.769165,253.878281 863.975891,253.365311 
M1098.001099,272.524689 
	C1094.962280,273.870728 1091.790771,274.986237 1088.926270,276.635071 
	C1086.599976,277.974152 1082.566162,280.799500 1082.856445,281.511627 
	C1084.789917,286.254517 1088.149048,282.790955 1090.709595,281.867126 
	C1103.985596,277.077271 1115.789429,269.664093 1126.575317,260.656494 
	C1127.694214,259.722137 1128.544312,256.990448 1127.987671,255.822662 
	C1126.706909,253.135406 1124.969971,254.906754 1123.219727,256.082275 
	C1115.096191,261.538330 1106.858521,266.824280 1098.001099,272.524689 
z"/>
<path fill="#F6B49C" opacity="1.000000" stroke="none" 
	d="
M738.899109,914.685425 
	C738.745667,932.722656 738.599609,950.331848 734.558655,967.616028 
	C730.118896,986.605530 720.742981,1003.460022 712.018921,1020.653015 
	C704.819702,1034.841187 698.506775,1049.479126 691.359924,1064.341309 
	C686.948486,1065.401611 686.818481,1067.377563 689.033142,1070.171387 
	C684.748108,1082.281006 680.192871,1094.295166 671.933655,1104.374390 
	C656.408936,1123.320068 636.431824,1128.664795 613.225708,1122.540405 
	C590.278992,1116.484375 572.347900,1102.870361 558.146545,1084.176147 
	C555.981750,1081.326538 554.382996,1077.851074 553.285645,1074.420898 
	C548.934448,1060.820435 544.886414,1047.122925 540.465576,1033.213135 
	C536.683411,1014.726807 533.318176,996.456970 529.596069,978.260071 
	C525.931091,960.342834 522.621826,942.436035 522.951294,924.015259 
	C523.317688,903.525452 529.273254,884.486023 537.007629,865.791382 
	C544.122559,848.593872 551.277893,831.398865 557.777466,813.964905 
	C565.353577,793.643311 565.542358,772.303589 565.059753,750.958252 
	C564.725159,736.160217 564.188599,721.359802 564.229370,706.561768 
	C564.287659,685.431824 564.518372,664.293945 565.224182,643.177856 
	C565.560608,633.111267 565.960449,622.855469 570.719910,613.523376 
	C574.585938,605.942932 579.792786,599.335022 588.897156,599.123840 
	C598.468079,598.901978 604.942871,605.138794 608.005615,613.495239 
	C611.223999,622.276184 614.351135,631.640259 614.649902,640.842590 
	C615.719055,673.769775 615.663696,706.736023 615.835754,739.688538 
	C615.895630,751.153198 615.380676,762.620850 614.629517,774.533569 
	C602.152527,774.692078 591.727905,779.186646 582.103333,785.758606 
	C580.764221,786.672974 580.479004,789.130798 579.705933,790.874084 
	C581.600403,790.684326 583.881348,791.109375 585.324890,790.202148 
	C593.034241,785.356812 601.179565,781.988953 610.261597,780.688049 
	C612.293457,780.396973 614.068237,778.311218 615.961365,777.051758 
	C635.052490,776.654053 650.381836,785.263550 663.313904,798.156006 
	C671.860657,806.676819 679.102356,816.506836 686.997437,826.474365 
	C687.784302,829.315186 688.314209,831.520264 689.256531,833.532227 
	C691.704346,838.758362 695.165222,843.662903 696.718750,849.123413 
	C700.042603,860.806641 701.573242,872.874329 699.933960,885.041748 
	C698.675598,894.382019 696.276367,903.472046 688.586121,909.830383 
	C686.281311,911.736084 683.081055,912.558838 679.701172,914.156433 
	C679.361938,911.659851 679.102417,910.693848 679.119568,909.732788 
	C679.328491,897.997681 676.011169,887.478027 668.717651,878.180847 
	C664.204224,872.427612 660.269104,866.204102 655.566223,860.619568 
	C646.971008,850.412964 636.531677,842.422729 622.829041,841.506287 
	C613.315002,840.869995 603.645203,842.267883 594.074341,843.095886 
	C592.658447,843.218445 591.404602,845.214661 590.075806,846.344055 
	C591.788086,847.112549 593.525391,848.589722 595.208313,848.530090 
	C603.653870,848.231079 612.085022,847.106750 620.521606,847.102661 
	C627.427490,847.099304 633.802734,849.561707 639.488831,853.787048 
	C649.831970,861.472595 656.953979,871.876343 664.554932,882.015381 
	C677.217163,898.905762 676.310425,924.766602 664.831726,941.061829 
	C658.552856,949.975342 650.122009,956.037292 638.581360,956.019775 
	C633.059692,956.011353 629.702271,951.870667 628.956726,946.528076 
	C628.024658,939.849243 627.491760,932.583984 624.415405,926.842346 
	C617.370422,913.693848 606.436890,903.830017 593.153076,896.927490 
	C590.949890,895.782715 585.807251,895.566650 585.444214,896.404358 
	C583.589294,900.683960 588.148254,900.702576 590.453430,902.034363 
	C610.792419,913.785767 627.327271,931.197388 623.083923,956.720215 
	C621.396667,966.869080 618.084900,976.045227 609.823730,982.744568 
	C603.468933,987.897949 596.702759,987.302490 592.212708,980.515442 
	C590.236755,977.528687 588.629150,973.300781 589.051208,969.909851 
	C590.371765,959.301208 585.823608,951.821167 578.007812,945.759705 
	C575.779602,944.031616 573.068726,939.686707 570.182068,942.982910 
	C566.995239,946.621887 572.013062,948.213257 574.140503,949.895142 
	C580.276611,954.745911 584.388611,960.309326 583.011719,968.640686 
	C582.797302,969.937866 582.830994,971.320923 583.005859,972.630127 
	C584.033203,980.320251 587.409790,986.543518 594.557312,990.175964 
	C601.374695,993.640747 607.500793,991.569946 613.201294,987.413147 
	C620.535583,982.065186 624.455200,974.466248 626.968628,965.996521 
	C627.654907,963.684143 628.263550,961.348755 628.562134,960.271240 
	C635.322693,960.900208 641.252625,961.451843 647.195679,962.004761 
	C646.689331,962.830566 645.694336,964.137573 645.026367,965.594421 
	C640.881348,974.634094 636.726196,983.671814 632.832092,992.819824 
	C632.402588,993.828796 633.606995,995.533203 634.053650,996.915100 
	C635.375671,996.236084 637.071960,995.857544 637.921631,994.799316 
	C638.906067,993.573242 639.224670,991.772949 639.697510,990.181824 
	C643.865723,976.155823 651.522888,963.897644 661.427979,953.589905 
	C670.077087,944.589233 676.151733,934.953979 678.339478,922.736816 
	C678.579041,921.398743 679.903748,919.307495 680.904785,919.197205 
	C693.034668,917.862000 698.667236,909.375610 702.215088,899.325073 
	C709.300415,879.253479 706.768372,859.231628 699.562622,839.833862 
	C697.629578,834.630249 692.608765,830.573608 689.005493,825.990417 
	C692.322571,814.702759 696.570190,803.881958 706.167419,796.305420 
	C712.899963,790.990417 720.403992,787.419250 729.182617,790.752930 
	C739.031738,794.493225 745.331726,801.283691 747.131470,812.132812 
	C749.090210,823.940430 744.795044,834.713989 742.553284,845.863586 
	C740.268372,857.228027 737.102234,868.587097 736.480347,880.065430 
	C735.867126,891.385254 737.957214,902.851501 738.899109,914.685425 
z"/>
<path fill="#FFBC3C" opacity="1.000000" stroke="none" 
	d="
M521.259033,498.734741 
	C518.531799,489.408905 513.130127,482.049744 504.946136,476.806244 
	C492.596771,468.893982 481.703705,459.474792 474.210632,446.665558 
	C460.607391,423.410980 455.986603,398.868134 465.306244,372.969360 
	C477.487610,339.118103 508.920837,320.540680 545.062317,325.225952 
	C581.266296,329.919312 607.121155,352.539825 614.176331,388.121765 
	C620.330994,419.161713 611.377747,445.881287 587.063599,467.105865 
	C580.345337,472.970398 574.435791,479.874207 568.821106,486.838043 
	C566.343262,489.911224 565.526855,494.323944 563.429199,498.519775 
	C559.584961,498.973053 556.267700,499.035095 552.929077,498.647858 
	C555.613892,482.107513 558.319946,466.016449 561.375977,449.895935 
	C564.451599,447.558411 568.161865,445.768890 569.705627,442.838135 
	C573.327209,435.963074 578.498230,430.880554 584.511963,426.249146 
	C593.844177,419.061981 594.639832,413.360840 589.930481,402.778778 
	C587.426941,397.153168 586.459778,390.828552 584.956482,384.780334 
	C584.318359,382.213257 584.759583,379.141693 583.494507,377.026611 
	C581.920349,374.394867 579.327393,371.009033 576.753906,370.601044 
	C569.784607,369.496094 564.287476,366.245392 559.131287,361.892426 
	C551.092041,355.105499 542.180542,354.421234 532.413086,357.567383 
	C528.062439,358.968750 523.396423,359.738892 518.825500,360.023438 
	C512.574463,360.412567 506.894989,362.118073 502.468384,366.427185 
	C500.377594,368.462494 498.214325,371.714081 498.252930,374.383179 
	C498.339081,380.339813 495.656860,383.910828 491.264099,387.277771 
	C482.475586,394.013885 480.662262,403.077606 486.503815,412.345459 
	C490.132874,418.103149 491.934631,423.852020 491.247284,430.707458 
	C490.673157,436.433441 493.184082,438.334747 498.740875,440.049011 
	C503.180237,441.418549 507.219849,444.082886 511.438141,446.170044 
	C514.776550,447.821838 518.116943,449.469788 521.640869,451.441956 
	C524.494080,467.518494 527.162842,483.272552 529.398193,499.015198 
	C526.396179,498.914093 523.827637,498.824402 521.259033,498.734741 
z"/>
<path fill="#E9EBED" opacity="1.000000" stroke="none" 
	d="
M922.204407,1491.382690 
	C923.147888,1492.776978 924.430786,1494.499268 924.858643,1496.412842 
	C929.584534,1517.554077 934.691284,1538.630005 938.627808,1559.921021 
	C941.296143,1574.352783 942.167053,1589.111084 944.026550,1603.699829 
	C946.553894,1623.527832 945.637146,1643.734131 950.775024,1663.290894 
	C951.811707,1667.236938 951.655151,1671.503052 951.988892,1675.626343 
	C953.310059,1691.948364 954.237366,1708.312622 956.004700,1724.585815 
	C958.341125,1746.098999 961.043213,1767.583008 964.144714,1788.998779 
	C965.962891,1801.552979 969.145874,1813.904297 971.188354,1826.432739 
	C972.860962,1836.693115 973.756042,1847.080444 974.993103,1857.411743 
	C975.660706,1862.987671 976.322571,1868.564331 976.983704,1874.565430 
	C975.876465,1875.318359 974.772156,1875.932129 973.668579,1875.931030 
	C960.688843,1875.918091 947.709106,1875.812988 934.415344,1875.481445 
	C935.024170,1843.820923 936.607056,1812.413208 936.694153,1781.001221 
	C936.791382,1745.912109 935.720825,1710.814453 934.798035,1675.729980 
	C934.129395,1650.307495 933.552490,1624.851196 931.716675,1599.498291 
	C929.114197,1563.556152 925.390991,1527.695190 922.204407,1491.382690 
z"/>
<path fill="#E39476" opacity="1.000000" stroke="none" 
	d="
M919.138367,755.305969 
	C923.473999,757.081848 928.160645,758.804443 932.386108,761.306091 
	C953.511169,773.813232 976.323059,781.578064 1000.380188,785.867981 
	C1015.079590,788.489136 1029.434937,786.130798 1043.517212,781.958069 
	C1065.279541,775.509827 1084.823608,764.732788 1102.745728,750.900757 
	C1103.352783,750.432251 1104.248169,750.337158 1105.348389,750.084351 
	C1105.045166,773.085388 1104.402710,796.070007 1103.712036,819.473999 
	C1093.162109,821.192993 1082.689209,823.154236 1072.151123,823.610657 
	C1061.073730,824.090515 1049.825562,823.990112 1038.846191,822.604248 
	C1020.868103,820.335022 1003.107361,816.014709 986.907349,807.840454 
	C973.797668,801.225769 961.041199,793.422180 949.438843,784.450867 
	C938.494934,775.988708 929.262207,765.313599 919.138367,755.305969 
z"/>
<path fill="#2F557B" opacity="1.000000" stroke="none" 
	d="
M1395.115967,1876.142334 
	C1393.750366,1853.898438 1392.343628,1832.024292 1391.198120,1810.136597 
	C1390.277222,1792.539795 1389.638428,1774.927734 1388.935425,1757.320068 
	C1387.901001,1731.408203 1387.000610,1705.490479 1385.892212,1679.581787 
	C1385.025635,1659.330078 1384.061279,1639.080688 1382.902710,1618.843872 
	C1381.364746,1591.983276 1379.748535,1565.125366 1377.875977,1538.286499 
	C1376.466675,1518.086548 1374.766602,1497.903076 1372.894531,1477.740356 
	C1370.839233,1455.605835 1368.300049,1433.516357 1366.237549,1411.382568 
	C1364.912964,1397.166382 1363.753784,1382.920532 1363.077393,1368.661499 
	C1361.872559,1343.259888 1360.284424,1317.837280 1360.306763,1292.424805 
	C1360.346313,1247.131226 1365.040283,1202.253418 1376.450806,1158.289185 
	C1381.289307,1139.646973 1386.814697,1121.182861 1392.036865,1102.640259 
	C1392.261963,1101.840942 1392.356323,1100.829590 1392.894653,1100.328735 
	C1394.150879,1099.160278 1395.640625,1098.242676 1397.035767,1097.223511 
	C1397.454834,1098.923340 1398.560913,1100.802124 1398.172852,1102.291748 
	C1396.582397,1108.396240 1394.549438,1114.386108 1392.655762,1120.410767 
	C1383.026978,1151.043091 1376.036255,1182.307007 1371.348633,1214.032104 
	C1369.096313,1229.275146 1367.874023,1244.722290 1367.130127,1260.122681 
	C1366.247314,1278.398071 1365.754761,1296.738892 1366.235229,1315.021362 
	C1366.815308,1337.090088 1368.438721,1359.137451 1369.903931,1381.174561 
	C1371.049194,1398.399048 1372.490356,1415.607910 1374.075806,1432.798218 
	C1375.828003,1451.795288 1378.058228,1470.748535 1379.771851,1489.748779 
	C1381.099243,1504.466187 1381.961914,1519.225830 1383.012817,1533.967896 
	C1384.630249,1556.655273 1386.262695,1579.341675 1387.821167,1602.033081 
	C1388.287842,1608.828613 1388.582397,1615.637573 1388.864624,1622.444092 
	C1389.622681,1640.717285 1390.345581,1658.991943 1391.056030,1677.267090 
	C1392.076294,1703.513550 1392.966187,1729.765503 1394.115967,1756.006226 
	C1394.937622,1774.758545 1396.038696,1793.499146 1397.115845,1812.239258 
	C1398.316162,1833.124146 1399.630737,1854.002441 1400.925049,1875.332764 
	C1399.018921,1880.000488 1398.200806,1880.103271 1395.115967,1876.142334 
z"/>
<path fill="#AE6C51" opacity="1.000000" stroke="none" 
	d="
M688.690552,826.090332 
	C692.608765,830.573608 697.629578,834.630249 699.562622,839.833862 
	C706.768372,859.231628 709.300415,879.253479 702.215088,899.325073 
	C698.667236,909.375610 693.034668,917.862000 680.904785,919.197205 
	C679.903748,919.307495 678.579041,921.398743 678.339478,922.736816 
	C676.151733,934.953979 670.077087,944.589233 661.427979,953.589905 
	C651.522888,963.897644 643.865723,976.155823 639.697510,990.181824 
	C639.224670,991.772949 638.906067,993.573242 637.921631,994.799316 
	C637.071960,995.857544 635.375671,996.236084 634.053650,996.915100 
	C633.606995,995.533203 632.402588,993.828796 632.832092,992.819824 
	C636.726196,983.671814 640.881348,974.634094 645.026367,965.594421 
	C645.694336,964.137573 646.689331,962.830566 647.195679,962.004761 
	C641.252625,961.451843 635.322693,960.900208 628.562134,960.271240 
	C628.263550,961.348755 627.654907,963.684143 626.968628,965.996521 
	C624.455200,974.466248 620.535583,982.065186 613.201294,987.413147 
	C607.500793,991.569946 601.374695,993.640747 594.557312,990.175964 
	C587.409790,986.543518 584.033203,980.320251 583.005859,972.630127 
	C582.830994,971.320923 582.797302,969.937866 583.011719,968.640686 
	C584.388611,960.309326 580.276611,954.745911 574.140503,949.895142 
	C572.013062,948.213257 566.995239,946.621887 570.182068,942.982910 
	C573.068726,939.686707 575.779602,944.031616 578.007812,945.759705 
	C585.823608,951.821167 590.371765,959.301208 589.051208,969.909851 
	C588.629150,973.300781 590.236755,977.528687 592.212708,980.515442 
	C596.702759,987.302490 603.468933,987.897949 609.823730,982.744568 
	C618.084900,976.045227 621.396667,966.869080 623.083923,956.720215 
	C627.327271,931.197388 610.792419,913.785767 590.453430,902.034363 
	C588.148254,900.702576 583.589294,900.683960 585.444214,896.404358 
	C585.807251,895.566650 590.949890,895.782715 593.153076,896.927490 
	C606.436890,903.830017 617.370422,913.693848 624.415405,926.842346 
	C627.491760,932.583984 628.024658,939.849243 628.956726,946.528076 
	C629.702271,951.870667 633.059692,956.011353 638.581360,956.019775 
	C650.122009,956.037292 658.552856,949.975342 664.831726,941.061829 
	C676.310425,924.766602 677.217163,898.905762 664.554932,882.015381 
	C656.953979,871.876343 649.831970,861.472595 639.488831,853.787048 
	C633.802734,849.561707 627.427490,847.099304 620.521606,847.102661 
	C612.085022,847.106750 603.653870,848.231079 595.208313,848.530090 
	C593.525391,848.589722 591.788086,847.112549 590.075806,846.344055 
	C591.404602,845.214661 592.658447,843.218445 594.074341,843.095886 
	C603.645203,842.267883 613.315002,840.869995 622.829041,841.506287 
	C636.531677,842.422729 646.971008,850.412964 655.566223,860.619568 
	C660.269104,866.204102 664.204224,872.427612 668.717651,878.180847 
	C676.011169,887.478027 679.328491,897.997681 679.119568,909.732788 
	C679.102417,910.693848 679.361938,911.659851 679.701172,914.156433 
	C683.081055,912.558838 686.281311,911.736084 688.586121,909.830383 
	C696.276367,903.472046 698.675598,894.382019 699.933960,885.041748 
	C701.573242,872.874329 700.042603,860.806641 696.718750,849.123413 
	C695.165222,843.662903 691.704346,838.758362 689.256531,833.532227 
	C688.314209,831.520264 687.784302,829.315186 687.076172,826.833130 
	C687.515686,826.375610 687.945679,826.282959 688.690552,826.090332 
z"/>
<path fill="#FFBD3E" opacity="1.000000" stroke="none" 
	d="
M644.631470,505.437622 
	C645.164490,506.107758 645.475891,506.498810 645.752197,506.913269 
	C648.029419,510.329834 650.295105,513.846619 646.628357,517.637817 
	C644.048645,520.305115 638.843689,519.452576 635.085938,515.425598 
	C624.097778,503.650177 613.291443,491.705200 602.422485,479.818726 
	C601.975952,479.330353 601.557129,478.796539 601.226990,478.225250 
	C599.427368,475.112091 597.572388,471.692535 600.921021,468.746857 
	C603.957825,466.075531 607.483398,467.605194 609.964417,469.855896 
	C614.006775,473.522858 617.513062,477.774536 621.333069,481.694214 
	C628.988647,489.549744 636.703308,497.347687 644.631470,505.437622 
z"/>
<path fill="#FFBD3E" opacity="1.000000" stroke="none" 
	d="
M454.310852,332.697754 
	C458.064301,335.701569 461.624512,338.677704 459.373566,343.718964 
	C457.910583,346.995422 452.840271,346.879150 447.239380,343.443481 
	C434.050232,335.353119 420.962799,327.096771 407.850464,318.881561 
	C407.014130,318.357574 406.234894,317.685974 405.569824,316.954987 
	C403.019012,314.151459 400.558990,311.109863 403.333160,307.267578 
	C405.899750,303.712799 409.497467,304.656067 412.838196,306.077301 
	C414.660461,306.852570 416.355499,307.965210 418.027039,309.050323 
	C430.034790,316.845032 442.021851,324.671692 454.310852,332.697754 
z"/>
<path fill="#FFBD3E" opacity="1.000000" stroke="none" 
	d="
M471.143250,482.085144 
	C461.313019,492.756470 451.810028,503.242035 442.100555,513.532837 
	C440.113312,515.639038 437.553741,517.606018 434.876587,518.519775 
	C433.090149,519.129517 429.909454,518.424683 428.672699,517.087402 
	C427.459473,515.775696 427.207947,512.692078 427.817261,510.799011 
	C428.591248,508.394135 430.422333,506.185760 432.205902,504.273468 
	C441.857819,493.924988 451.620087,483.679077 461.388611,473.440063 
	C462.758911,472.003693 464.180511,470.155121 465.918427,469.636139 
	C468.692657,468.807770 472.571808,467.678406 474.506927,468.940552 
	C477.741364,471.050140 476.211365,474.913757 474.459869,477.902130 
	C473.627625,479.322113 472.429718,480.527802 471.143250,482.085144 
z"/>
<path fill="#FFBC3C" opacity="1.000000" stroke="none" 
	d="
M403.987671,400.857452 
	C414.772705,400.424133 425.059540,399.952484 435.350220,399.591309 
	C437.318970,399.522217 439.638885,399.299408 441.201752,400.190765 
	C443.578217,401.546082 445.434631,403.813232 447.511963,405.693085 
	C445.404541,407.754028 443.590027,410.355255 441.097778,411.706390 
	C439.073853,412.803619 436.242615,412.518951 433.759216,412.643707 
	C419.824829,413.343750 405.887360,413.982697 391.950806,414.639343 
	C391.452576,414.662781 390.952454,414.668945 390.453827,414.657074 
	C384.653473,414.519287 380.449036,411.614166 380.407715,407.721191 
	C380.367950,403.976868 384.052582,401.298370 390.018280,401.025848 
	C394.502350,400.820984 398.999481,400.903137 403.987671,400.857452 
z"/>
<path fill="#FFBC3C" opacity="1.000000" stroke="none" 
	d="
M680.545837,414.142883 
	C665.663940,413.451324 651.226257,412.805695 636.788879,412.153900 
	C636.291382,412.131439 635.789185,412.083740 635.301697,411.985809 
	C631.679077,411.258209 628.107422,409.876129 628.182556,405.655579 
	C628.254395,401.620483 631.888977,400.217194 635.285095,400.008850 
	C640.228455,399.705536 645.212646,400.034576 650.178467,400.139771 
	C660.813416,400.364990 671.450500,400.540100 682.080444,400.913422 
	C685.031250,401.017059 688.185425,401.224487 690.820312,402.366730 
	C692.595154,403.136139 694.723328,405.647522 694.696472,407.348114 
	C694.665100,409.333649 692.862366,412.356812 691.109619,413.014465 
	C688.024109,414.172241 684.392883,413.875488 680.545837,414.142883 
z"/>
<path fill="#FFBD3E" opacity="1.000000" stroke="none" 
	d="
M543.914612,288.968506 
	C543.375183,295.219055 543.156860,301.044922 542.042542,306.694061 
	C541.673462,308.565186 538.910706,311.345215 537.399719,311.248596 
	C535.644470,311.136322 533.897339,308.446594 532.481689,306.616425 
	C531.868469,305.823700 531.938843,304.379517 531.961426,303.236389 
	C532.249329,288.689087 532.564941,274.142242 532.923645,259.596497 
	C533.006165,256.250336 534.620911,253.111801 537.981934,253.490387 
	C540.069214,253.725494 542.517029,256.503754 543.543945,258.723114 
	C544.488037,260.763306 543.736694,263.583344 543.750183,266.059723 
	C543.790955,273.531494 543.840332,281.003174 543.914612,288.968506 
z"/>
<path fill="#FFBD3E" opacity="1.000000" stroke="none" 
	d="
M630.503784,311.494415 
	C634.955566,308.238770 639.104248,305.175049 643.298340,302.174561 
	C646.120483,300.155579 649.277466,299.291046 651.815979,302.192505 
	C654.437134,305.188354 652.834473,308.321594 650.479126,310.625824 
	C648.381592,312.677856 645.654907,314.070831 643.308044,315.886780 
	C635.421448,321.989075 627.633545,328.220490 619.687683,334.244080 
	C617.461365,335.931885 614.960632,337.619019 612.326599,338.292328 
	C610.264526,338.819397 606.659180,338.527924 605.817139,337.240845 
	C604.841736,335.749939 605.737183,332.611115 606.584473,330.493347 
	C607.202698,328.947998 608.944763,327.749756 610.380737,326.651611 
	C616.956238,321.623047 623.600403,316.684265 630.503784,311.494415 
z"/>
<path fill="#DCDCDB" opacity="1.000000" stroke="none" 
	d="
M552.950378,499.097107 
	C556.267700,499.035095 559.584961,498.973053 563.345947,498.896912 
	C564.530151,500.543732 565.781677,502.166382 565.909302,503.873169 
	C566.214355,507.949707 565.989563,512.065918 565.587402,516.577637 
	C551.642395,512.342651 538.101868,507.656647 524.513855,503.112640 
	C523.196045,502.671906 521.584473,503.109802 520.109253,503.139862 
	C520.428467,501.920654 520.747620,500.701477 521.162964,499.108521 
	C523.827637,498.824402 526.396179,498.914093 529.484192,499.383728 
	C531.158081,500.831207 532.312622,501.898712 533.467102,502.966248 
	C534.434692,501.716248 535.402283,500.466248 536.793579,499.191559 
	C540.112244,499.221619 543.007080,499.276398 546.007324,499.659485 
	C547.381958,500.977875 548.826965,502.907196 549.874512,502.711334 
	C551.082886,502.485352 551.940491,500.384064 552.950378,499.097107 
z"/>
<path fill="#DCDCDB" opacity="1.000000" stroke="none" 
	d="
M556.992737,550.742188 
	C552.661865,556.674622 538.822144,558.352234 532.160400,553.369690 
	C526.900818,549.435852 522.699463,544.539917 522.546509,537.177734 
	C534.312256,541.481873 545.652527,546.112061 556.992737,550.742188 
z"/>
<path fill="#DCDCDB" opacity="1.000000" stroke="none" 
	d="
M564.089172,536.418457 
	C563.463562,539.097595 562.837891,541.776794 561.693604,544.723755 
	C550.635620,540.790161 540.121338,536.524170 529.539917,532.431763 
	C526.840515,531.387817 523.928406,530.893799 521.114136,530.147156 
	C521.079529,528.076904 521.044922,526.006714 521.370483,523.509155 
	C535.850098,527.527344 549.969666,531.972900 564.089172,536.418457 
z"/>
<path fill="#A4938A" opacity="1.000000" stroke="none" 
	d="
M519.992615,503.435181 
	C521.584473,503.109802 523.196045,502.671906 524.513855,503.112640 
	C538.101868,507.656647 551.642395,512.342651 565.557739,517.051514 
	C568.872986,519.031616 570.468018,521.099365 565.974976,523.887573 
	C550.577637,518.947998 535.858276,513.884705 521.138977,508.821411 
	C520.718018,507.124451 520.296997,505.427460 519.992615,503.435181 
z"/>
<path fill="#A4938A" opacity="1.000000" stroke="none" 
	d="
M564.440674,536.319397 
	C549.969666,531.972900 535.850098,527.527344 521.351685,523.066895 
	C518.276978,521.282043 516.620422,519.383057 520.914185,516.784790 
	C523.710022,517.301575 525.808350,517.816467 527.872986,518.442505 
	C540.577454,522.294373 553.274414,526.171448 565.973816,530.040100 
	C568.186340,532.598511 568.998779,534.889221 564.440674,536.319397 
z"/>
<path fill="#DCDCDB" opacity="1.000000" stroke="none" 
	d="
M565.975220,529.613770 
	C553.274414,526.171448 540.577454,522.294373 527.872986,518.442505 
	C525.808350,517.816467 523.710022,517.301575 521.219360,516.616821 
	C520.888733,514.233582 520.966003,511.968903 521.091187,509.262817 
	C535.858276,513.884705 550.577637,518.947998 565.673096,524.053223 
	C566.025024,525.792542 566.000854,527.490051 565.975220,529.613770 
z"/>
<path fill="#A4938A" opacity="1.000000" stroke="none" 
	d="
M520.934082,530.398132 
	C523.928406,530.893799 526.840515,531.387817 529.539917,532.431763 
	C540.121338,536.524170 550.635620,540.790161 561.533630,545.065430 
	C563.756531,549.956116 563.069824,550.919312 557.400513,550.804688 
	C545.652527,546.112061 534.312256,541.481873 522.614136,536.780518 
	C520.333008,535.041870 518.126221,533.444641 520.934082,530.398132 
z"/>
<path fill="#AE6C51" opacity="1.000000" stroke="none" 
	d="
M615.840210,776.799683 
	C614.068237,778.311218 612.293457,780.396973 610.261597,780.688049 
	C601.179565,781.988953 593.034241,785.356812 585.324890,790.202148 
	C583.881348,791.109375 581.600403,790.684326 579.705933,790.874084 
	C580.479004,789.130798 580.764221,786.672974 582.103333,785.758606 
	C591.727905,779.186646 602.152527,774.692078 614.586182,774.998901 
	C615.267456,775.527771 615.493286,776.037659 615.840210,776.799683 
z"/>
<path fill="#30567C" opacity="1.000000" stroke="none" 
	d="
M689.345825,1070.303223 
	C686.818481,1067.377563 686.948486,1065.401611 691.285767,1064.705322 
	C699.564941,1070.576782 699.679199,1080.047607 701.805054,1088.333008 
	C706.710205,1107.450684 703.502441,1126.141235 697.698853,1144.696411 
	C692.900330,1160.038452 687.555847,1175.441040 685.150208,1191.227783 
	C683.182190,1204.142944 684.601135,1217.708740 685.593628,1230.905151 
	C686.736023,1246.094604 689.753601,1261.152954 690.675659,1276.346069 
	C691.587891,1291.378784 686.769348,1305.619751 680.633484,1319.140259 
	C672.057983,1338.036743 669.044067,1358.157104 665.974609,1378.362549 
	C662.987061,1398.028809 659.981934,1417.706665 656.294800,1437.249268 
	C648.424438,1478.963135 640.141541,1520.599487 631.961792,1562.254639 
	C626.881714,1588.124878 621.699097,1613.975098 616.526062,1639.827026 
	C614.119080,1651.855957 611.729736,1663.891235 609.042969,1675.858521 
	C608.695435,1677.406494 606.606262,1678.563477 605.323853,1679.901611 
	C604.782349,1678.133057 603.501160,1676.222656 603.808777,1674.616821 
	C609.799683,1643.343750 615.883362,1612.087769 622.140686,1580.866943 
	C628.137695,1550.944580 634.656067,1521.124146 640.391174,1491.152832 
	C646.311035,1460.215820 651.421814,1429.125000 657.153259,1398.150757 
	C661.491333,1374.706421 662.473022,1350.600342 670.930176,1327.958130 
	C674.765137,1317.690796 678.673157,1307.443359 682.177429,1297.061768 
	C686.500610,1284.253906 685.143005,1271.119507 683.537842,1258.061890 
	C681.818787,1244.078491 679.486145,1230.159302 678.150696,1216.142700 
	C676.188904,1195.550903 681.057922,1175.894165 687.352478,1156.466797 
	C690.928040,1145.431274 694.252075,1134.285156 697.017883,1123.023804 
	C700.435364,1109.108887 698.488831,1095.345459 694.106323,1081.890747 
	C692.839600,1078.001831 691.152832,1074.249756 689.345825,1070.303223 
z"/>
<path fill="#376390" opacity="1.000000" stroke="none" 
	d="
M873.542969,1733.913818 
	C877.397034,1722.418701 887.140137,1717.378784 897.418335,1721.258667 
	C904.524902,1723.941284 908.300293,1729.340454 907.958191,1736.989380 
	C907.618713,1744.578735 904.027161,1750.697754 898.078491,1755.194092 
	C893.757446,1758.460205 885.108093,1756.574707 879.232422,1751.718262 
	C873.656433,1747.109619 872.076538,1741.197632 873.542969,1733.913818 
z"/>
<path fill="#2F557B" opacity="1.000000" stroke="none" 
	d="
M883.028748,1484.866211 
	C883.525757,1487.906372 884.296448,1490.511841 884.338684,1493.129150 
	C884.359253,1494.399414 883.015442,1495.691895 882.289185,1496.974243 
	C881.182556,1496.017822 879.343079,1495.225952 879.085510,1494.078857 
	C877.050903,1485.018799 875.494873,1475.851318 873.460449,1466.791138 
	C866.229736,1434.589355 854.748352,1403.771240 843.227112,1372.928101 
	C838.718750,1360.859131 836.102173,1348.074097 832.871277,1335.551392 
	C832.548523,1334.300293 833.950623,1332.604248 834.552185,1331.114624 
	C835.763672,1332.163940 837.829407,1333.052002 838.062378,1334.286011 
	C844.863159,1370.312744 863.011536,1402.633667 871.837219,1437.976196 
	C875.695984,1453.428711 879.289001,1468.947632 883.028748,1484.866211 
z"/>
<path fill="#376390" opacity="1.000000" stroke="none" 
	d="
M862.505371,1544.954346 
	C864.583984,1538.287598 868.752686,1534.125854 875.182556,1533.105103 
	C882.580261,1531.930786 889.704651,1532.978394 894.205383,1539.930298 
	C898.356079,1546.341553 897.036865,1553.019043 893.723389,1559.293457 
	C889.287292,1567.693726 884.064026,1570.401245 877.032593,1568.491089 
	C866.770020,1565.703125 861.925354,1560.052490 861.946472,1550.789062 
	C861.950623,1548.971191 862.206909,1547.153809 862.505371,1544.954346 
z"/>
<path fill="#2F557B" opacity="1.000000" stroke="none" 
	d="
M540.156677,1177.862793 
	C555.090759,1196.131714 569.689209,1214.217041 584.571472,1232.065918 
	C589.776672,1238.308594 595.681702,1243.967773 601.264282,1249.896118 
	C601.719849,1250.379883 602.461792,1250.841553 602.537659,1251.387573 
	C602.739502,1252.838989 602.649658,1254.330811 602.675903,1255.806641 
	C601.257812,1255.559937 599.312012,1255.823853 598.502991,1254.987793 
	C589.950500,1246.149292 581.121521,1237.517090 573.257141,1228.087280 
	C558.798157,1210.750000 544.933899,1192.916870 530.832275,1175.281982 
	C530.110535,1174.379272 529.024597,1173.436279 528.939148,1172.440918 
	C528.834534,1171.221313 529.277832,1169.569824 530.119385,1168.794922 
	C530.643799,1168.312256 532.791809,1168.695312 533.433899,1169.398926 
	C535.776917,1171.966797 537.793213,1174.832764 540.156677,1177.862793 
z"/>
<path fill="#30567C" opacity="1.000000" stroke="none" 
	d="
M529.656738,1311.435303 
	C545.161743,1314.807373 560.303467,1315.280396 575.550171,1312.450928 
	C576.846680,1312.210327 578.452332,1313.635742 579.914368,1314.287109 
	C578.743774,1315.529785 577.751892,1317.589844 576.375488,1317.890747 
	C559.693665,1321.536255 543.062317,1320.655640 526.552124,1316.650391 
	C522.204529,1315.595703 517.845459,1314.465332 513.673035,1312.889648 
	C512.499390,1312.446411 511.969757,1310.297729 511.144745,1308.931396 
	C512.528076,1308.502686 514.029297,1307.494873 515.273743,1307.748291 
	C519.981384,1308.706909 524.605713,1310.074707 529.656738,1311.435303 
z"/>
<path fill="#30567C" opacity="1.000000" stroke="none" 
	d="
M1504.768555,1744.768311 
	C1520.080078,1729.081543 1533.538452,1712.473267 1543.197144,1693.009155 
	C1543.872437,1691.648315 1546.085083,1691.050293 1547.583008,1690.097656 
	C1547.761841,1691.983276 1548.793091,1694.416504 1547.987793,1695.669678 
	C1539.825562,1708.373779 1532.314087,1721.673462 1522.725708,1733.234985 
	C1512.577026,1745.472168 1500.379028,1756.010864 1489.052124,1767.267334 
	C1488.234131,1768.080200 1487.312256,1769.020142 1486.271484,1769.319092 
	C1484.935791,1769.702637 1483.430786,1769.496582 1481.998657,1769.544556 
	C1482.251465,1767.978149 1481.940674,1765.829468 1482.854004,1764.945435 
	C1487.027954,1760.904785 1491.603760,1757.283447 1495.919434,1753.383423 
	C1498.884277,1750.703979 1501.659180,1747.814331 1504.768555,1744.768311 
z"/>
<path fill="#2F557B" opacity="1.000000" stroke="none" 
	d="
M1439.532471,1023.316284 
	C1443.516235,1026.104370 1440.672241,1028.583252 1439.397217,1030.723755 
	C1433.120605,1041.260376 1426.536011,1051.613647 1420.268555,1062.155640 
	C1417.477295,1066.850708 1415.362549,1071.949585 1412.542114,1076.624878 
	C1411.673340,1078.065063 1409.486572,1078.710327 1407.903320,1079.719604 
	C1407.793457,1077.816650 1406.913452,1075.486450 1407.694702,1074.077637 
	C1414.363037,1062.054077 1421.322021,1050.191528 1428.217896,1038.294556 
	C1430.628418,1034.135986 1432.995850,1029.944580 1435.620605,1025.923218 
	C1436.397095,1024.733521 1437.985474,1024.073730 1439.532471,1023.316284 
z"/>
<path fill="#FFFEFE" opacity="1.000000" stroke="none" 
	d="
M1052.316650,606.457336 
	C1055.333984,606.689087 1058.020264,606.774170 1060.550293,607.446899 
	C1072.775146,610.697327 1078.662109,621.878540 1073.565918,633.468811 
	C1064.776123,653.459229 1040.965820,674.678223 1013.290100,672.853027 
	C988.767517,671.235840 969.790833,659.296326 956.183655,639.279236 
	C953.183411,634.865601 952.358826,628.377014 952.176636,622.790344 
	C951.933472,615.336060 960.152405,609.242126 969.663208,609.109375 
	C975.786682,609.023804 981.917847,609.892517 988.050537,609.978027 
	C999.644470,610.139771 1011.264404,610.495544 1022.831055,609.918945 
	C1032.556519,609.434204 1042.221680,607.740173 1052.316650,606.457336 
z"/>
<path fill="#22264B" opacity="1.000000" stroke="none" 
	d="
M1084.553589,402.505554 
	C1097.535522,398.665070 1109.957764,398.634949 1121.635620,405.268982 
	C1125.452759,407.437469 1129.124268,410.402405 1131.804932,413.830170 
	C1133.432251,415.911133 1134.250854,420.149109 1133.204834,422.367920 
	C1132.156250,424.592407 1128.421143,426.537598 1125.716309,426.752289 
	C1122.070557,427.041687 1117.971924,426.243195 1114.613892,424.712708 
	C1102.255005,419.079803 1090.033081,420.523163 1077.692993,424.387329 
	C1074.531372,425.377350 1071.361206,426.985840 1068.174194,427.037659 
	C1065.762085,427.076843 1062.571411,425.669922 1061.135620,423.815826 
	C1060.090332,422.466064 1060.613892,418.906860 1061.695312,417.074829 
	C1066.704956,408.587799 1075.267944,405.274567 1084.553589,402.505554 
z"/>
<path fill="#22264B" opacity="1.000000" stroke="none" 
	d="
M929.567505,404.390808 
	C933.959778,407.900604 938.700256,410.675262 941.936218,414.669006 
	C946.272644,420.020874 942.741089,426.753296 935.791443,426.869843 
	C932.072693,426.932159 928.020630,426.346710 924.655396,424.848602 
	C911.800476,419.125916 899.125427,420.353210 886.333252,424.729248 
	C883.667603,425.641144 880.927490,427.012909 878.237122,426.978210 
	C875.716370,426.945709 872.172729,426.009827 871.004395,424.216949 
	C869.869202,422.474884 870.367554,418.642242 871.606079,416.620453 
	C873.454895,413.602448 876.165405,410.605957 879.234985,408.926910 
	C895.144897,400.224182 911.669800,396.126190 929.567505,404.390808 
z"/>
<path fill="#2D1C11" opacity="1.000000" stroke="none" 
	d="
M904.395935,520.040222 
	C892.142090,517.216736 885.749023,509.721497 885.994263,498.943817 
	C886.223328,488.877716 894.963196,479.072052 905.427429,477.141022 
	C915.040039,475.367157 925.112122,483.302490 926.802185,494.316345 
	C927.998169,502.110260 925.819702,509.268494 920.884583,515.302368 
	C916.770508,520.332397 910.794739,520.506409 904.395935,520.040222 
z"/>
<path fill="#2D1C11" opacity="1.000000" stroke="none" 
	d="
M1100.165161,477.317749 
	C1116.333618,484.051605 1119.399048,503.803009 1107.200073,516.442810 
	C1101.546021,522.301025 1088.580566,521.456726 1081.222290,515.652710 
	C1073.586182,509.629639 1071.273926,499.211823 1075.635986,490.483124 
	C1080.174805,481.400787 1089.494629,476.268555 1100.165161,477.317749 
z"/>
<path fill="#AE6C51" opacity="1.000000" stroke="none" 
	d="
M1011.106567,565.121338 
	C1025.817139,569.554932 1035.345947,561.449646 1031.917969,546.955933 
	C1029.330322,536.014771 1025.019287,525.484436 1021.542175,514.749634 
	C1016.528076,499.269379 1016.308289,483.420898 1018.335144,467.477570 
	C1018.530762,465.939545 1020.504883,464.627594 1021.653442,463.210754 
	C1022.438843,464.804504 1023.873352,466.386292 1023.903015,467.993958 
	C1024.079956,477.584503 1022.997192,487.296112 1024.159668,496.742798 
	C1025.298828,505.999390 1028.511353,515.016235 1031.002441,524.086487 
	C1033.238647,532.229065 1036.299561,540.184387 1037.992554,548.428589 
	C1041.565674,565.827332 1026.406616,574.579468 1013.312073,571.580322 
	C1007.272034,570.197021 1001.833374,565.958435 996.337585,562.655823 
	C995.431946,562.111572 995.640015,559.714111 995.333374,558.173096 
	C996.913940,558.317383 998.720154,558.020081 1000.031921,558.690308 
	C1003.713440,560.571228 1007.191040,562.851074 1011.106567,565.121338 
z"/>
<path fill="#AE6C51" opacity="1.000000" stroke="none" 
	d="
M1253.853149,538.457397 
	C1242.540283,544.060425 1239.547119,550.795532 1242.702637,562.917664 
	C1245.060059,571.974121 1243.214966,576.915283 1235.664917,582.814758 
	C1232.305420,585.439819 1229.322388,588.543884 1225.996338,591.216370 
	C1225.033569,591.989990 1223.473633,592.020569 1222.187500,592.391785 
	C1221.883789,591.054016 1220.886841,589.272400 1221.406128,588.461304 
	C1222.988403,585.989380 1225.049683,583.786743 1227.136353,581.690002 
	C1228.285034,580.535828 1229.876465,579.829895 1231.238159,578.878723 
	C1238.032104,574.133423 1239.437500,571.084351 1236.577637,563.278320 
	C1232.159912,551.220886 1240.670532,535.634521 1252.978760,532.586182 
	C1258.401245,531.243164 1263.387329,532.451599 1265.807373,536.543274 
	C1266.429810,537.595825 1265.773315,539.404785 1265.704468,540.866211 
	C1264.409912,540.698608 1263.088501,540.642700 1261.826294,540.340027 
	C1259.270264,539.727051 1256.746094,538.980408 1253.853149,538.457397 
z"/>
<path fill="#AE6C51" opacity="1.000000" stroke="none" 
	d="
M771.380005,588.420654 
	C769.759155,588.454529 768.089233,588.634644 767.126648,587.894714 
	C763.600220,585.183777 760.406494,582.043091 756.908936,579.291138 
	C749.912354,573.785889 748.315918,568.630493 751.055908,559.466736 
	C753.856262,550.101074 749.838440,541.096619 741.078796,537.162842 
	C738.174194,535.858398 735.522888,535.454346 732.880249,538.148376 
	C732.007141,539.038330 729.861328,538.679810 728.297485,538.892151 
	C728.527588,537.163269 728.147095,534.528687 729.106689,533.881775 
	C731.605103,532.197510 734.818542,530.176392 737.518372,530.460449 
	C744.514404,531.196350 750.734070,534.565002 754.122437,540.963745 
	C757.398315,547.150085 759.229431,553.752869 756.831848,561.083862 
	C754.193909,569.149963 755.289490,571.022522 762.281677,575.993347 
	C765.106079,578.001282 767.850708,580.252686 770.134216,582.833496 
	C771.235474,584.078125 771.184692,586.342102 771.380005,588.420654 
z"/>
<path fill="#E39476" opacity="1.000000" stroke="none" 
	d="
M918.952087,754.852905 
	C918.876648,754.851318 918.753296,754.702637 918.629944,754.553955 
	C918.721375,754.604614 918.812744,754.655212 918.952087,754.852905 
z"/>
<path fill="#020204" opacity="1.000000" stroke="none" 
	d="
M1072.897949,211.889099 
	C1073.372437,210.058304 1073.404541,208.361816 1074.223145,207.238678 
	C1075.152710,205.963348 1076.785889,205.200912 1078.113159,204.215485 
	C1078.598877,205.758408 1079.833130,207.524048 1079.450806,208.808701 
	C1076.659546,218.189514 1074.010376,227.657730 1070.427368,236.747879 
	C1064.113403,252.766220 1056.110474,267.895386 1043.453735,279.990387 
	C1042.260132,281.130981 1040.028198,281.184937 1038.278320,281.743408 
	C1038.602417,280.029755 1038.329468,277.748077 1039.339233,276.687042 
	C1056.719604,258.423950 1065.765991,235.881775 1072.897949,211.889099 
z"/>
<path fill="#020204" opacity="1.000000" stroke="none" 
	d="
M937.267334,207.765625 
	C948.411194,220.417435 954.623108,235.154907 958.649170,250.909241 
	C959.013245,252.333832 957.559387,254.222977 956.949707,255.896362 
	C955.633423,254.583206 953.521484,253.474960 953.122437,251.925613 
	C948.512451,234.022934 940.790527,217.853317 926.765686,205.428421 
	C921.978271,201.187134 916.263245,197.945938 910.775879,194.566193 
	C908.752625,193.320053 905.918152,192.762192 907.384094,189.737701 
	C908.967834,186.470154 911.364685,188.815720 913.328064,189.655914 
	C922.682922,193.659195 930.220520,200.100586 937.267334,207.765625 
z"/>
<path fill="#020204" opacity="1.000000" stroke="none" 
	d="
M863.851929,253.730652 
	C861.769165,253.878281 859.530518,254.201187 857.896667,253.355545 
	C846.997009,247.714249 835.463318,244.290710 823.286072,243.178848 
	C820.209961,242.897964 817.013855,243.991653 813.925842,243.756973 
	C812.247314,243.629425 810.680176,242.036865 809.062805,241.105133 
	C810.448975,240.071289 811.760010,238.265488 813.232910,238.121964 
	C829.580383,236.528992 844.904419,240.301498 859.307129,247.869492 
	C861.281006,248.906677 862.439758,251.495087 863.851929,253.730652 
z"/>
<path fill="#020204" opacity="1.000000" stroke="none" 
	d="
M1098.331299,272.347900 
	C1106.858521,266.824280 1115.096191,261.538330 1123.219727,256.082275 
	C1124.969971,254.906754 1126.706909,253.135406 1127.987671,255.822662 
	C1128.544312,256.990448 1127.694214,259.722137 1126.575317,260.656494 
	C1115.789429,269.664093 1103.985596,277.077271 1090.709595,281.867126 
	C1088.149048,282.790955 1084.789917,286.254517 1082.856445,281.511627 
	C1082.566162,280.799500 1086.599976,277.974152 1088.926270,276.635071 
	C1091.790771,274.986237 1094.962280,273.870728 1098.331299,272.347900 
z"/>
<path fill="#FEFDFC" opacity="1.000000" stroke="none" 
	d="
M521.456421,451.119446 
	C518.116943,449.469788 514.776550,447.821838 511.438141,446.170044 
	C507.219849,444.082886 503.180237,441.418549 498.740875,440.049011 
	C493.184082,438.334747 490.673157,436.433441 491.247284,430.707458 
	C491.934631,423.852020 490.132874,418.103149 486.503815,412.345459 
	C480.662262,403.077606 482.475586,394.013885 491.264099,387.277771 
	C495.656860,383.910828 498.339081,380.339813 498.252930,374.383179 
	C498.214325,371.714081 500.377594,368.462494 502.468384,366.427185 
	C506.894989,362.118073 512.574463,360.412567 518.825500,360.023438 
	C523.396423,359.738892 528.062439,358.968750 532.413086,357.567383 
	C542.180542,354.421234 551.092041,355.105499 559.131287,361.892426 
	C564.287476,366.245392 569.784607,369.496094 576.753906,370.601044 
	C579.327393,371.009033 581.920349,374.394867 583.494507,377.026611 
	C584.759583,379.141693 584.318359,382.213257 584.956482,384.780334 
	C586.459778,390.828552 587.426941,397.153168 589.930481,402.778778 
	C594.639832,413.360840 593.844177,419.061981 584.511963,426.249146 
	C578.498230,430.880554 573.327209,435.963074 569.705627,442.838135 
	C568.161865,445.768890 564.451599,447.558411 561.338989,449.489075 
	C562.642639,442.362366 564.158630,435.560272 566.172058,428.908752 
	C566.570618,427.591888 568.749207,426.429688 570.336487,425.939697 
	C573.307251,425.022552 577.094177,425.510010 579.339783,423.818085 
	C581.777588,421.981323 583.925049,418.419800 584.181030,415.437195 
	C584.398132,412.907806 582.381042,409.234283 580.201965,407.677399 
	C577.023132,405.406097 573.534607,407.514709 570.785034,409.925842 
	C569.541992,411.015900 568.391968,412.242889 567.356201,413.533295 
	C562.105835,420.074554 561.672485,420.258545 554.079224,416.548340 
	C551.866394,415.467102 549.889954,413.881714 547.863281,412.445343 
	C545.312317,410.637421 544.517456,408.671265 545.677734,405.268524 
	C547.959961,398.575470 548.712585,391.509491 545.411804,384.897675 
	C544.464722,383.000641 541.864014,380.864594 539.960205,380.805267 
	C538.004639,380.744324 535.347412,382.673401 534.141663,384.490875 
	C532.767212,386.562714 531.870667,389.568512 532.163818,391.999908 
	C532.751038,396.870422 534.390991,401.605682 535.370300,406.442596 
	C535.644836,407.798248 535.674927,410.041443 534.885376,410.632172 
	C531.083923,413.476227 527.046448,416.037689 522.926208,418.410339 
	C520.414673,419.856628 518.568787,419.000732 516.775635,416.414307 
	C514.640320,413.334229 511.979370,410.350983 508.914978,408.243622 
	C504.013672,404.872925 498.764435,407.645020 497.951660,413.511932 
	C496.894073,421.145599 501.284180,425.737854 510.387695,425.728241 
	C514.037903,425.724396 515.936401,426.805908 516.704590,430.284760 
	C518.240540,437.240234 519.867188,444.175720 521.456421,451.119446 
z"/>
<path fill="#AB471C" opacity="1.000000" stroke="none" 
	d="
M521.640869,451.441925 
	C519.867188,444.175720 518.240540,437.240234 516.704590,430.284760 
	C515.936401,426.805908 514.037903,425.724396 510.387695,425.728241 
	C501.284180,425.737854 496.894073,421.145599 497.951660,413.511932 
	C498.764435,407.645020 504.013672,404.872925 508.914978,408.243622 
	C511.979370,410.350983 514.640320,413.334229 516.775635,416.414307 
	C518.568787,419.000732 520.414673,419.856628 522.926208,418.410339 
	C527.046448,416.037689 531.083923,413.476227 534.885376,410.632172 
	C535.674927,410.041443 535.644836,407.798248 535.370300,406.442596 
	C534.390991,401.605682 532.751038,396.870422 532.163818,391.999908 
	C531.870667,389.568512 532.767212,386.562714 534.141663,384.490875 
	C535.347412,382.673401 538.004639,380.744324 539.960205,380.805267 
	C541.864014,380.864594 544.464722,383.000641 545.411804,384.897675 
	C548.712585,391.509491 547.959961,398.575470 545.677734,405.268524 
	C544.517456,408.671265 545.312317,410.637421 547.863281,412.445343 
	C549.889954,413.881714 551.866394,415.467102 554.079224,416.548340 
	C561.672485,420.258545 562.105835,420.074554 567.356201,413.533295 
	C568.391968,412.242889 569.541992,411.015900 570.785034,409.925842 
	C573.534607,407.514709 577.023132,405.406097 580.201965,407.677399 
	C582.381042,409.234283 584.398132,412.907806 584.181030,415.437195 
	C583.925049,418.419800 581.777588,421.981323 579.339783,423.818085 
	C577.094177,425.510010 573.307251,425.022552 570.336487,425.939697 
	C568.749207,426.429688 566.570618,427.591888 566.172058,428.908752 
	C564.158630,435.560272 562.642639,442.362366 560.989136,449.518494 
	C558.319946,466.016449 555.613892,482.107513 552.929077,498.647827 
	C551.940491,500.384064 551.082886,502.485352 549.874512,502.711334 
	C548.826965,502.907196 547.381958,500.977875 546.097046,499.218048 
	C546.942749,493.426361 547.836731,488.409821 548.658813,483.381470 
	C550.461975,472.352570 552.228638,461.317719 554.134888,449.887115 
	C556.114624,441.475037 557.969666,433.461182 559.615112,426.352875 
	C552.876648,422.590668 546.448914,419.001923 540.392944,415.620758 
	C534.659119,419.066345 528.612366,422.699921 522.547119,426.344604 
	C524.267395,433.807800 526.164429,442.038147 528.041626,450.671509 
	C530.804443,467.121826 533.587158,483.169037 536.369873,499.216278 
	C535.402283,500.466248 534.434692,501.716248 533.467102,502.966248 
	C532.312622,501.898712 531.158081,500.831207 529.917603,499.395142 
	C527.162842,483.272552 524.494080,467.518494 521.640869,451.441925 
M538.139648,391.750214 
	C538.589172,394.531952 539.038696,397.313690 539.488220,400.095428 
	C540.056274,400.013458 540.624390,399.931458 541.192444,399.849457 
	C540.954895,395.955902 540.717407,392.062347 540.479858,388.168793 
	C540.029358,388.165924 539.578857,388.163025 539.128418,388.160126 
	C538.842529,389.086792 538.556702,390.013458 538.139648,391.750214 
M572.857056,419.484619 
	C576.248169,418.905060 579.392883,418.142975 576.877441,411.829742 
	C574.917542,415.061401 573.556641,417.305328 572.857056,419.484619 
M508.061493,415.404266 
	C506.953217,414.687653 505.844910,413.971039 504.343170,413.000000 
	C503.292694,419.267059 507.020477,419.067871 511.261688,419.569153 
	C510.049835,417.930725 509.300079,416.917053 508.061493,415.404266 
z"/>
<path fill="#FEBA3B" opacity="1.000000" stroke="none" 
	d="
M536.793579,499.191559 
	C533.587158,483.169037 530.804443,467.121826 528.474121,450.679016 
	C537.287781,450.284088 545.648987,450.284698 554.010254,450.285309 
	C552.228638,461.317719 550.461975,472.352570 548.658813,483.381470 
	C547.836731,488.409821 546.942749,493.426361 545.991699,498.889709 
	C543.007080,499.276398 540.112244,499.221619 536.793579,499.191559 
z"/>
<path fill="#FEFDFC" opacity="1.000000" stroke="none" 
	d="
M554.134888,449.887115 
	C545.648987,450.284698 537.287781,450.284088 528.494019,450.275970 
	C526.164429,442.038147 524.267395,433.807800 522.547119,426.344604 
	C528.612366,422.699921 534.659119,419.066345 540.392944,415.620758 
	C546.448914,419.001923 552.876648,422.590668 559.615112,426.352875 
	C557.969666,433.461182 556.114624,441.475037 554.134888,449.887115 
z"/>
<path fill="#E9EBED" opacity="1.000000" stroke="none" 
	d="
M538.205261,391.345154 
	C538.556702,390.013458 538.842529,389.086792 539.128418,388.160126 
	C539.578857,388.163025 540.029358,388.165924 540.479858,388.168793 
	C540.717407,392.062347 540.954895,395.955902 541.192444,399.849457 
	C540.624390,399.931458 540.056274,400.013458 539.488220,400.095428 
	C539.038696,397.313690 538.589172,394.531952 538.205261,391.345154 
z"/>
<path fill="#E9EBED" opacity="1.000000" stroke="none" 
	d="
M572.526367,419.516937 
	C573.556641,417.305328 574.917542,415.061401 576.877441,411.829742 
	C579.392883,418.142975 576.248169,418.905060 572.526367,419.516937 
z"/>
<path fill="#E9EBED" opacity="1.000000" stroke="none" 
	d="
M508.305908,415.653809 
	C509.300079,416.917053 510.049835,417.930725 511.261688,419.569153 
	C507.020477,419.067871 503.292694,419.267059 504.343170,413.000000 
	C505.844910,413.971039 506.953217,414.687653 508.305908,415.653809 
z"/>
</svg>