<?xml version="1.0" encoding="utf-8"?>
<!-- Generator: Adobe Illustrator 27.5.0, SVG Export Plug-In . SVG Version: 6.00 Build 0)  -->
<svg version="1.1" xmlns="http://www.w3.org/2000/svg" xmlns:xlink="http://www.w3.org/1999/xlink" x="0px" y="0px"
	 viewBox="0 0 500 500" style="enable-background:new 0 0 500 500;" xml:space="preserve">
<g id="Background_Complete">
	<g>
		<g>
			<g>
				<path style="fill:#EBEBEB;" d="M120.823,421.409c20.598-14.391,25.272-41.103,24.457-65.114
					c-0.135-4.008,0.305-8.233-1.602-11.75c-1.908-3.516-6.356-5.919-9.944-4.23c-2.977,1.401-4.274,4.863-5.939,7.727
					c-2.215,3.81-5.516,6.962-9.4,8.978c-2.552,1.324-5.71,2.134-8.229,0.745c-3.457-1.908-3.865-6.684-3.84-10.671
					c0.047-7.43,0.093-14.86,0.139-22.288c0.025-3.986,0.036-8.056-1.203-11.84c-1.24-3.783-3.979-7.298-7.771-8.36
					c-3.793-1.062-8.482,1.124-9.283,5.026c-0.333,1.624-0.003,3.309-0.113,4.964c-0.111,1.655-0.882,3.486-2.453,3.947
					c-1.591,0.467-3.186-0.663-4.378-1.829c-4.115-4.025-6.906-9.21-9.516-14.366c-2.609-5.156-5.142-10.435-8.875-14.825
					c-3.733-4.39-8.897-7.869-14.606-8.192c-5.71-0.323-11.792,3.201-13.235,8.805c-1.447,5.62,1.832,11.322,5.4,15.871
					c5.293,6.75,11.555,12.718,18.527,17.66c1.257,0.892,2.619,1.855,3.099,3.332c0.866,2.658-1.652,5.297-4.276,6.171
					c-2.971,0.99-6.196,0.681-9.304,1.047c-3.108,0.366-6.475,1.737-7.651,4.675c-1.633,4.074,1.775,8.345,5.128,11.142
					c6.714,5.602,14.381,10.026,22.559,13.023c2.932,1.073,6.018,2.014,8.383,4.074c2.365,2.061-1.305,9.353-2.733,12.161
					c-1.43,2.811,0,0-3.072-0.57c-3.07-0.569-5.821-2.237-8.748-3.341c-5.478-2.068-12.553-1.69-16.062,3.044
					c-2.306,3.112-2.509,7.446-1.342,11.155c1.166,3.71,3.531,6.905,6.043,9.852c8.78,10.301,20.02,18.594,32.729,23.001
					C96.419,424.835,108.194,426.027,120.823,421.409"/>
			</g>
		</g>
		<g>
			<g>
				<g>
					<path style="fill:#E0E0E0;" d="M121.138,439.21c-0.87-9.512-2.956-20.746-6.513-32.854
						c-3.534-12.118-8.509-25.079-14.179-38.457c-1.43-3.339-2.842-6.638-4.234-9.89c-1.397-3.242-2.783-6.459-4.332-9.52
						c-3.073-6.138-6.495-11.805-9.912-17.083c-3.415-5.281-6.849-10.168-10.093-14.714c-3.255-4.541-6.369-8.716-9.369-12.401
						c-5.979-7.394-11.498-12.776-15.437-16.316c-1.966-1.777-3.537-3.106-4.613-3.992c-0.518-0.421-0.924-0.751-1.23-1
						c-0.28-0.221-0.427-0.33-0.435-0.32c-0.009,0.01,0.122,0.138,0.387,0.379c0.294,0.262,0.686,0.611,1.184,1.055
						c1.044,0.922,2.583,2.285,4.519,4.091c3.874,3.601,9.315,9.02,15.226,16.434c2.966,3.695,6.048,7.878,9.276,12.428
						c3.22,4.559,6.63,9.451,10.022,14.728c3.392,5.275,6.788,10.929,9.835,17.037c1.536,3.047,2.906,6.236,4.305,9.487
						c1.391,3.25,2.801,6.548,4.229,9.886c5.664,13.368,10.646,26.29,14.206,38.361c3.581,12.06,5.711,23.238,6.643,32.709"/>
				</g>
			</g>
		</g>
		<g>
			<g>
				<g>
					<path style="fill:#E0E0E0;" d="M91.67,348.461c0.049,0.008,0.185-0.598,0.389-1.701c0.21-1.102,0.46-2.705,0.74-4.69
						c0.564-3.969,1.155-9.477,1.784-15.551c0.629-6.078,1.297-11.561,1.919-15.511c0.306-1.975,0.569-3.572,0.766-4.673
						c0.19-1.103,0.272-1.719,0.223-1.731c-0.049-0.011-0.225,0.583-0.501,1.671c-0.283,1.085-0.625,2.673-0.996,4.643
						c-0.757,3.941-1.509,9.438-2.138,15.521c-0.606,5.996-1.152,11.421-1.57,15.566c-0.201,1.871-0.371,3.448-0.508,4.714
						C91.661,347.832,91.619,348.453,91.67,348.461z"/>
				</g>
			</g>
		</g>
		<g>
			<g>
				<g>
					<path style="fill:#E0E0E0;" d="M40.418,338.883c-0.001,0.051,0.728,0.135,2.044,0.245c1.315,0.117,3.219,0.276,5.564,0.548
						c4.694,0.507,11.154,1.434,18.236,2.768c7.082,1.348,13.439,2.84,18.006,4.052c2.289,0.59,4.128,1.117,5.401,1.474
						c1.272,0.362,1.983,0.539,2,0.491c0.016-0.049-0.667-0.319-1.915-0.767c-1.25-0.441-3.072-1.047-5.349-1.704
						c-4.544-1.345-10.905-2.923-18.008-4.276c-7.103-1.337-13.599-2.186-18.321-2.56c-2.36-0.206-4.275-0.287-5.599-0.314
						C41.153,338.819,40.421,338.831,40.418,338.883z"/>
				</g>
			</g>
		</g>
		<g>
			<g>
				<g>
					<path style="fill:#E0E0E0;" d="M113.995,405.413c0.023,0.01,0.143-0.204,0.351-0.625c0.237-0.501,0.526-1.113,0.876-1.854
						c0.754-1.613,1.784-3.977,3.018-6.913c2.473-5.871,5.633-14.089,8.998-23.204c3.367-9.119,6.447-17.355,8.793-23.269
						c1.15-2.875,2.096-5.24,2.799-6.998c0.301-0.763,0.548-1.392,0.751-1.909c0.164-0.439,0.24-0.675,0.216-0.686
						c-0.023-0.009-0.143,0.206-0.352,0.626c-0.237,0.501-0.526,1.112-0.876,1.853c-0.754,1.613-1.784,3.977-3.018,6.913
						c-2.473,5.871-5.633,14.089-8.999,23.208c-3.366,9.116-6.446,17.351-8.792,23.266c-1.151,2.874-2.096,5.24-2.8,6.996
						c-0.301,0.763-0.548,1.393-0.751,1.909C114.047,405.167,113.971,405.403,113.995,405.413z"/>
				</g>
			</g>
		</g>
		<g>
			<g>
				<g>
					<path style="fill:#E0E0E0;" d="M45.89,383.464c-0.007,0.025,0.227,0.12,0.676,0.279c0.533,0.178,1.186,0.397,1.978,0.663
						c1.827,0.592,4.293,1.392,7.293,2.363c6.158,1.997,14.631,4.853,23.989,8.021c9.361,3.171,17.869,5.951,24.07,7.82
						c3.1,0.936,5.616,1.668,7.365,2.138c0.809,0.212,1.475,0.387,2.017,0.53c0.464,0.113,0.711,0.16,0.718,0.135
						c0.007-0.025-0.227-0.12-0.676-0.28c-0.531-0.177-1.185-0.396-1.978-0.661c-1.827-0.593-4.292-1.391-7.292-2.363
						c-6.158-1.996-14.632-4.853-23.993-8.022c-9.358-3.169-17.865-5.949-24.066-7.819c-3.1-0.936-5.616-1.668-7.366-2.138
						c-0.808-0.212-1.474-0.388-2.017-0.53C46.144,383.486,45.898,383.439,45.89,383.464z"/>
				</g>
			</g>
		</g>
	</g>
	<g>
		<g>
			<polygon style="fill:#E6E6E6;" points="373.2,71.379 318.159,205.791 416.968,245.475 471.166,111.935 			"/>
			<g>
				<path style="fill:#E6E6E6;" d="M373.2,71.379c0.897,0.37,38.621,15.938,98.011,40.448l0.108,0.045l-0.044,0.108
					c-15.22,37.522-33.948,83.689-54.173,133.55l-0.054,0.133l-0.133-0.054c-0.227-0.091-0.474-0.19-0.721-0.289
					c-35.178-14.134-68.532-27.535-98.083-39.407l-0.122-0.049l0.05-0.122C350.67,126.257,372.76,72.449,373.2,71.379
					c-0.437,1.071-22.431,54.919-54.92,134.461l-0.072-0.171c29.554,11.865,62.911,25.258,98.093,39.382
					c0.247,0.099,0.494,0.198,0.721,0.289l-0.187,0.079c20.244-49.853,38.988-96.014,54.222-133.53l0.064,0.153
					C411.786,87.403,374.096,71.751,373.2,71.379z"/>
			</g>
		</g>
		<g>
			<g>
				<polygon style="fill:#FAFAFA;" points="365.991,58.552 310.951,192.964 409.76,232.648 463.957,99.109 				"/>
				<g>
					<path style="fill:#EBEBEB;" d="M365.991,58.552c0.898,0.37,38.621,15.938,98.011,40.448l0.108,0.045l-0.044,0.108
						c-15.22,37.522-33.948,83.689-54.173,133.55l-0.054,0.133l-0.133-0.054c-0.227-0.091-0.474-0.19-0.721-0.289
						c-35.178-14.134-68.532-27.535-98.083-39.407l-0.122-0.049l0.05-0.122C343.461,113.43,365.552,59.623,365.991,58.552
						c-0.437,1.071-22.431,54.919-54.92,134.461L311,192.843c29.554,11.865,62.911,25.258,98.093,39.382
						c0.247,0.099,0.494,0.198,0.721,0.289l-0.187,0.08c20.244-49.853,38.988-96.014,54.222-133.53l0.064,0.153
						C404.577,74.576,366.888,58.924,365.991,58.552z"/>
				</g>
			</g>
			<g>
				<path style="fill:#E0E0E0;" d="M440.369,119.544c-0.087,0.223-17.218-6.248-38.258-14.45
					c-21.048-8.205-38.035-15.035-37.948-15.258c0.087-0.223,17.214,6.246,38.262,14.452
					C423.465,112.49,440.455,119.322,440.369,119.544z"/>
			</g>
			<g>
				<path style="fill:#E0E0E0;" d="M436.588,131.842c-0.087,0.223-17.218-6.248-38.258-14.45
					c-21.048-8.205-38.035-15.035-37.948-15.258c0.087-0.223,17.214,6.246,38.262,14.452
					C419.684,124.788,436.675,131.62,436.588,131.842z"/>
			</g>
			<g>
				<path style="fill:#E0E0E0;" d="M423.813,169.1c-0.087,0.223-17.218-6.248-38.258-14.45
					c-21.048-8.205-38.035-15.036-37.948-15.258c0.087-0.223,17.214,6.246,38.262,14.452
					C406.909,162.046,423.899,168.878,423.813,169.1z"/>
			</g>
			<g>
				<path style="fill:#E0E0E0;" d="M417.782,181.687c-0.087,0.223-17.218-6.248-38.258-14.45
					c-21.048-8.205-38.035-15.035-37.948-15.258c0.087-0.223,17.214,6.246,38.262,14.452
					C400.879,174.633,417.869,181.464,417.782,181.687z"/>
			</g>
			<g>
				<path style="fill:#E0E0E0;" d="M412.772,194.398c-0.087,0.223-17.218-6.248-38.258-14.45
					c-21.048-8.205-38.035-15.035-37.948-15.258c0.087-0.223,17.214,6.247,38.262,14.452
					C395.868,187.343,412.858,194.175,412.772,194.398z"/>
			</g>
			<g>
				<path style="fill:#E0E0E0;" d="M407.761,207.108c-0.087,0.223-17.218-6.248-38.258-14.45
					c-21.048-8.205-38.034-15.036-37.948-15.258c0.087-0.223,17.214,6.247,38.262,14.452
					C390.858,200.054,407.848,206.885,407.761,207.108z"/>
			</g>
			<path style="fill:#EBEBEB;" d="M377.401,106.428c-0.25,0.523-1.275,2.884-1.275,2.884l41.694,16.905l1.274-3.574L377.401,106.428
				z"/>
			<path style="fill:#EBEBEB;" d="M356.405,111.658c-0.25,0.523-1.785,3.727-1.785,3.727l78.145,29.757l1.922-4.078L356.405,111.658
				z"/>
			<path style="fill:#EBEBEB;" d="M351.872,124.317c-0.25,0.523-1.786,3.727-1.786,3.727l78.145,29.758l1.922-4.078L351.872,124.317
				z"/>
			<path style="fill:#EBEBEB;" d="M347.944,137.601c-0.089,0.185-1.407,4.022-1.407,4.022l39.112,15.001l2.204-4.6L347.944,137.601z
				"/>
		</g>
	</g>
</g>
<g id="Background_Simple" style="display:none;">
	<path style="display:inline;fill:#F0F0F0;" d="M377.691,103.648c-39.476-34.451-92.919-0.009-144.832,72.601
		c-51.913,72.611-76.615,42.072-120.78,74.049c-44.164,31.976-55.907,163.062,99.595,150.321
		C367.175,387.879,480.904,193.72,377.691,103.648z"/>
</g>
<g id="Floor">
	<g>
		<path style="fill:#263238;" d="M35.452,437.644c4.565,0,414.666,0,414.666,0"/>
		<g>
			<path style="fill:#263238;" d="M450.118,437.644c0,0.144-92.834,0.26-207.323,0.26c-114.529,0-207.343-0.117-207.343-0.26
				s92.814-0.26,207.343-0.26C357.284,437.384,450.118,437.5,450.118,437.644z"/>
		</g>
	</g>
</g>
<g id="Document">
	<g>
		<g>
			<path style="fill:#E8505B;" d="M98.935,66.793c-1.335,45.237-5.265,215.145-6.309,260.484
				c-0.143,6.192,4.737,11.331,10.928,11.52l186.232,5.692c6.262,0.191,11.479-4.758,11.617-11.021l2.899-131.339l15.766-0.256
				c3.879-0.063,7.002-3.202,7.047-7.081l1.212-105.838c0.045-3.944-3.106-7.182-7.05-7.245l-14.245-0.225l0.108-10.235
				c0.065-6.144-4.828-11.196-10.971-11.328l-185.786-3.999C104.229,55.788,99.117,60.638,98.935,66.793z"/>
			<path style="opacity:0.4;" d="M98.935,66.793c-1.335,45.237-5.265,215.145-6.309,260.484c-0.143,6.192,4.737,11.331,10.928,11.52
				l186.232,5.692c6.262,0.191,11.479-4.758,11.617-11.021l2.899-131.339l15.766-0.256c3.879-0.063,7.002-3.202,7.047-7.081
				l1.212-105.838c0.045-3.944-3.106-7.182-7.05-7.245l-14.245-0.225l0.108-10.235c0.065-6.144-4.828-11.196-10.971-11.328
				l-185.786-3.999C104.229,55.788,99.117,60.638,98.935,66.793z"/>
		</g>
		<polygon style="fill:#E0E0E0;" points="113.088,68.729 96.662,330.404 288.576,341.149 304.063,81.453 		"/>
		<polygon style="fill:#EBEBEB;" points="90.024,63.052 91.301,325.239 283.502,323.004 281.423,62.855 		"/>
		<g>
			<g>
				<polygon style="fill:#FAFAFA;" points="64.861,81.09 101.136,340.759 291.317,312.88 254.52,55.338 				"/>
				<g>
					<path style="fill:#263238;" d="M64.861,81.09c1.736-0.238,74.724-10.231,189.63-25.963l0.209-0.029l0.03,0.209
						c10.352,72.356,23.089,161.385,36.845,257.535l0.037,0.257l-0.257,0.038c-0.437,0.064-0.912,0.134-1.387,0.203
						c-67.714,9.917-131.916,19.32-188.797,27.651l-0.236,0.034l-0.033-0.236C79.582,187.161,65.148,83.16,64.861,81.09
						c0.291,2.067,14.911,106.044,36.508,259.635l-0.268-0.201c56.88-8.345,121.079-17.765,188.79-27.699
						c0.475-0.07,0.95-0.139,1.387-0.203l-0.22,0.294c-13.721-96.155-26.425-185.189-36.75-257.548l0.239,0.18
						C139.608,71.025,66.597,80.857,64.861,81.09z"/>
				</g>
			</g>
			<g>
				<path style="fill:#263238;" d="M242.57,141.264c0.067,0.426-32.533,5.899-72.806,12.222
					c-40.286,6.326-72.988,11.106-73.055,10.68c-0.067-0.426,32.527-5.898,72.813-12.223
					C209.794,145.62,242.503,140.838,242.57,141.264z"/>
			</g>
			<g>
				<path style="fill:#263238;" d="M256.497,210.988c0.067,0.426-32.534,5.899-72.806,12.222
					c-40.286,6.325-72.988,11.106-73.055,10.68c-0.067-0.426,32.527-5.898,72.813-12.223
					C223.721,215.344,256.43,210.562,256.497,210.988z"/>
			</g>
			<g>
				<path style="fill:#263238;" d="M258.527,236.1c0.067,0.426-32.534,5.899-72.806,12.222
					c-40.286,6.325-72.988,11.106-73.055,10.68c-0.067-0.426,32.526-5.898,72.813-12.223
					C225.751,240.455,258.46,235.674,258.527,236.1z"/>
			</g>
			<g>
				<path style="fill:#263238;" d="M235.17,86.17c0.016,0.391-21.881,3.804-48.902,7.622c-27.031,3.819-48.949,6.597-48.965,6.206
					c-0.016-0.391,21.876-3.803,48.907-7.622C213.231,88.558,235.154,85.779,235.17,86.17z"/>
			</g>
			<g>
				<path style="fill:#263238;" d="M238.263,100.071c0.016,0.391-21.881,3.804-48.902,7.622
					c-27.031,3.819-48.949,6.597-48.965,6.206c-0.016-0.391,21.876-3.803,48.907-7.622
					C216.324,102.459,238.247,99.68,238.263,100.071z"/>
			</g>
			<g>
				<path style="fill:#263238;" d="M241.997,114.744c0.016,0.391-21.881,3.804-48.902,7.622
					c-27.031,3.819-48.949,6.597-48.965,6.206c-0.016-0.391,21.876-3.803,48.907-7.622
					C220.058,117.132,241.981,114.353,241.997,114.744z"/>
			</g>
			<g>
				<path style="fill:#263238;" d="M262.26,260.478c0.067,0.426-32.533,5.899-72.806,12.222
					c-40.286,6.325-72.988,11.106-73.055,10.68c-0.067-0.426,32.527-5.898,72.813-12.223
					C229.484,264.834,262.193,260.052,262.26,260.478z"/>
			</g>
			<g>
				<path style="fill:#263238;" d="M265.994,284.857c0.067,0.426-32.534,5.899-72.806,12.222
					c-40.286,6.326-72.988,11.106-73.055,10.68c-0.067-0.426,32.526-5.898,72.813-12.223
					C233.218,289.213,265.927,284.431,265.994,284.857z"/>
			</g>
			<path style="fill:#E8505B;" d="M127.158,155.4c0.084,1.043,0.631,5.658,0.631,5.658l80.395-11.514l-1.259-6.733L127.158,155.4z"
				/>
			<path style="fill:#E8505B;" d="M99.161,182.635c0.084,1.043,0.601,7.436,0.601,7.436l148.93-24.588l-0.707-8.107L99.161,182.635z
				"/>
			<path style="fill:#E8505B;" d="M103.591,206.5c0.084,1.043,0.601,7.436,0.601,7.436l148.93-24.588l-0.707-8.107L103.591,206.5z"
				/>
			<path style="fill:#E8505B;" d="M109.536,230.789c0.03,0.369,1.46,7.553,1.46,7.553l74.638-12.138l-0.742-9.177L109.536,230.789z"
				/>
			<polygon style="fill:#263238;" points="87.855,98.581 94.544,146.779 138.43,140.634 132.451,92.576 			"/>
			<g>
				<defs>
					<polygon id="SVGID_1_" points="87.855,98.581 94.544,146.779 138.43,140.634 132.451,92.576 					"/>
				</defs>
				<use xlink:href="#SVGID_1_"  style="overflow:visible;fill:#E8505B;"/>
				<clipPath id="SVGID_00000155846655488668559410000014901978766483056053_">
					<use xlink:href="#SVGID_1_"  style="overflow:visible;"/>
				</clipPath>
				<g style="clip-path:url(#SVGID_00000155846655488668559410000014901978766483056053_);">
					<g>
						<g>
							<g>
								<g>
									<path style="fill:#FFBE9D;" d="M109.741,138.496l13.224-3.578c-0.209-1.583-1.453-7.626-1.453-7.626
										s5.424-1.911,4.45-7.508c-0.974-5.597-4.336-18.24-4.336-18.24l0,0c-6.983-1.571-14.27,0.76-19.045,6.092l-0.709,0.792
										L109.741,138.496z"/>
								</g>
								<g>
									<g>
										<path style="fill:#263238;" d="M122.133,111.381c-0.388-0.239-0.509-0.747-0.27-1.135c0.239-0.388,0.747-0.509,1.135-0.27
											c0.388,0.239,0.509,0.747,0.27,1.135S122.521,111.62,122.133,111.381z"/>
									</g>
									<g>
										<g>
											<path style="fill:#263238;" d="M123.249,109.853c-0.069,0.113-0.697-0.207-1.466-0.067
												c-0.772,0.129-1.254,0.642-1.357,0.559c-0.05-0.036,0.005-0.227,0.214-0.457c0.205-0.229,0.582-0.483,1.063-0.567
												c0.48-0.084,0.921,0.028,1.191,0.174C123.168,109.641,123.284,109.802,123.249,109.853z"/>
										</g>
									</g>
								</g>
								<g>
									<g>
										<path style="fill:#263238;" d="M114.513,112.178c0.425,0.163,0.638,0.641,0.474,1.066
											c-0.163,0.425-0.641,0.638-1.066,0.474c-0.425-0.163-0.638-0.641-0.474-1.066
											C113.61,112.227,114.088,112.015,114.513,112.178z"/>
									</g>
									<g>
										<g>
											<path style="fill:#263238;" d="M115.021,112.09c-0.07,0.113-0.697-0.207-1.466-0.067
												c-0.772,0.129-1.254,0.642-1.357,0.559c-0.05-0.036,0.005-0.227,0.214-0.457c0.205-0.229,0.582-0.483,1.063-0.567
												c0.48-0.084,0.921,0.028,1.191,0.174C114.94,111.879,115.056,112.039,115.021,112.09z"/>
										</g>
									</g>
								</g>
								<g>
									<g>
										<path style="fill:#263238;" d="M119.29,117.86c-0.016-0.059,0.441-0.244,1.195-0.496c0.197-0.059,0.347-0.134,0.341-0.245
											c0.013-0.128-0.105-0.329-0.252-0.549c-0.293-0.472-0.589-0.949-0.9-1.449c-1.256-2.07-2.189-3.799-2.084-3.863
											c0.105-0.064,1.208,1.562,2.464,3.632c0.3,0.507,0.587,0.99,0.87,1.468c0.117,0.219,0.308,0.464,0.266,0.816
											c-0.025,0.177-0.16,0.326-0.287,0.386c-0.126,0.065-0.239,0.086-0.335,0.109
											C119.794,117.841,119.307,117.919,119.29,117.86z"/>
									</g>
								</g>
								<g>
									<path style="fill:#FFFFFF;" d="M116.95,119.176c-0.891-0.327,2.425,0.76,3.977,0.392c0,0-0.63,1.603-2.35,1.314
										C116.791,120.582,116.95,119.176,116.95,119.176z"/>
								</g>
								<g>
									<path style="fill:#EB996E;" d="M121.507,127.21c0,0-3.476,0.946-7.667-0.71c0,0,2.471,3.698,7.95,2.155L121.507,127.21z"/>
								</g>
							</g>
						</g>
						<g>
							<g>
								<path style="fill:#FFBE9D;" d="M102.869,113.833c-0.131-0.015-4.221,0.465-2.671,5.048c1.549,4.583,5.666,1.503,5.629,1.368
									C105.791,120.116,102.869,113.833,102.869,113.833z"/>
							</g>
							<g>
								<g>
									<path style="fill:#EB996E;" d="M103.879,119.116c-0.025-0.008-0.061,0.083-0.175,0.19
										c-0.111,0.105-0.323,0.223-0.593,0.214c-0.544-0.014-1.212-0.645-1.513-1.463c-0.153-0.413-0.2-0.84-0.163-1.219
										c0.027-0.383,0.164-0.69,0.393-0.816c0.224-0.138,0.445-0.05,0.545,0.06c0.105,0.108,0.107,0.209,0.134,0.208
										c0.017,0.007,0.072-0.11-0.028-0.287c-0.05-0.084-0.14-0.174-0.277-0.226c-0.14-0.052-0.317-0.043-0.481,0.033
										c-0.345,0.144-0.553,0.577-0.594,0.993c-0.059,0.424-0.016,0.907,0.155,1.371c0.341,0.914,1.106,1.618,1.834,1.586
										c0.351-0.025,0.587-0.213,0.689-0.368C103.909,119.23,103.898,119.119,103.879,119.116z"/>
								</g>
							</g>
						</g>
						<path style="fill:#263238;" d="M121.582,101.382c-0.733,4.103-6.01,6.655-10.059,7.646c1.585-2.015,0.479-1.452,1.432-2.838
							c-2.037,2.6-5.864,5.59-10.579,6.348c-0.978-1.771-1.205-3.941-0.615-5.877c0.59-1.935,1.989-3.61,3.788-4.535
							c1.188-0.611,2.515-0.897,3.739-1.431c1.034-0.451,1.992-1.076,3.059-1.444C115.548,98.148,120.723,96.263,121.582,101.382"/>
						<path style="fill:#263238;" d="M104.503,109.989c-0.112,0.578-0.106,7.138-0.106,7.138l-2.566-5.848L104.503,109.989z"/>
					</g>
					<path style="fill:#455A64;" d="M83.457,161.847l11.118-16.363l0.002,0.003c2.135-3.242,4.855-5.853,8.314-7.887
						c1.68-0.988,3.52-1.735,5.715-2.242l0,0c5.047,0.584,9.819-0.304,14.315-2.664c2.012-0.12,6.457-0.383,11.889,1.124l0-0.001
						l22,4.479l-3.178,19.3l-11.652-1.643l2.525,17.118l6.914,25.029l-42.354,8.362l-3.758-23.17l-3.084-16.695l-5.01,7.103
						L83.457,161.847z"/>
				</g>
			</g>
		</g>
	</g>
</g>
<g id="Character">
	<g>
		<g>
			<g>
				<g>
					<g>
						<g>
							<path style="fill:#E8505B;" d="M323.691,434.159l-0.053-9.195l17.223-0.209l0.219,13.452l-1.067,0.081
								c-4.749,0.321-24.171,1.3-27.36,0.375C309.098,437.632,323.691,434.159,323.691,434.159z"/>
						</g>
					</g>
					<g>
						<g>
							<path style="fill:#E8505B;" d="M334.835,438.148c0.228-1.442,1.012-2.789,2.153-3.699c1.141-0.91,2.554-1.4,4.011-1.301
								l0.062,4.813L334.835,438.148z"/>
						</g>
					</g>
				</g>
				<g>
					<g>
						<path style="fill:#E8505B;" d="M316.564,436.111c0,0-5.111,1.542-4.461,2.379c0.65,0.837,20.314,0.587,28.978-0.283
							l-0.032-0.385l-22.935,0.487C318.115,438.31,317.567,436.141,316.564,436.111z"/>
					</g>
				</g>
				<g>
					<g>
						<g>
							<path style="fill:#263238;" d="M341.319,437.809c0,0.007-0.102,0.019-0.296,0.036c-0.255,0.019-0.535,0.039-0.85,0.062
								c-0.85,0.048-1.895,0.106-3.129,0.175c-2.643,0.129-6.296,0.258-10.333,0.313c-4.038,0.054-7.694,0.023-10.339-0.034
								c-1.235-0.036-2.281-0.066-3.132-0.09c-0.316-0.015-0.595-0.027-0.851-0.039c-0.194-0.011-0.296-0.021-0.296-0.028
								c0-0.007,0.103-0.012,0.297-0.014c0.256,0,0.536,0,0.852,0c0.851,0.006,1.897,0.014,3.132,0.024
								c2.645,0.02,6.299,0.027,10.335-0.026c4.035-0.055,7.686-0.161,10.33-0.252c1.234-0.043,2.28-0.079,3.13-0.108
								c0.316-0.009,0.596-0.016,0.852-0.023C341.216,437.8,341.319,437.802,341.319,437.809z"/>
						</g>
					</g>
				</g>
				<g>
					<g>
						<g>
							<path style="fill:#263238;" d="M318.122,438.578c-0.064,0.009-0.122-0.738-0.604-1.487c-0.469-0.757-1.118-1.131-1.082-1.185
								c0.012-0.052,0.754,0.263,1.259,1.073C318.209,437.784,318.174,438.589,318.122,438.578z"/>
						</g>
					</g>
				</g>
				<g>
					<g>
						<g>
							<path style="fill:#263238;" d="M323.172,435.935c-0.048,0.031-0.295-0.261-0.551-0.654c-0.256-0.393-0.425-0.736-0.377-0.768
								c0.048-0.032,0.295,0.261,0.551,0.654C323.051,435.559,323.22,435.903,323.172,435.935z"/>
						</g>
					</g>
				</g>
				<g>
					<g>
						<g>
							<path style="fill:#263238;" d="M324.557,435.18c-0.038,0.043-0.312-0.135-0.612-0.397c-0.3-0.263-0.513-0.511-0.475-0.554
								c0.038-0.043,0.312,0.135,0.612,0.397C324.382,434.888,324.595,435.136,324.557,435.18z"/>
						</g>
					</g>
				</g>
				<g>
					<g>
						<g>
							<path style="fill:#263238;" d="M325.418,433.543c0.001,0.058-0.4,0.114-0.897,0.126c-0.497,0.012-0.901-0.025-0.902-0.083
								c-0.001-0.058,0.4-0.114,0.897-0.126C325.012,433.448,325.416,433.485,325.418,433.543z"/>
						</g>
					</g>
				</g>
				<g>
					<g>
						<g>
							<path style="fill:#263238;" d="M325.706,432.392c0.02,0.051-0.416,0.255-0.999,0.304c-0.583,0.053-1.048-0.071-1.037-0.125
								c0.009-0.06,0.465-0.032,1.019-0.083C325.242,432.442,325.687,432.335,325.706,432.392z"/>
						</g>
					</g>
				</g>
				<g>
					<g>
						<g>
							<path style="fill:#263238;" d="M322.568,434.44c0.002,0.023-0.423,0.081-1.107,0.007c-0.341-0.037-0.746-0.112-1.182-0.245
								c-0.217-0.074-0.443-0.129-0.678-0.269c-0.11-0.072-0.233-0.173-0.278-0.34c-0.048-0.165,0.039-0.353,0.162-0.444
								c1.051-0.561,2.118,0.02,2.517,0.562c0.22,0.276,0.322,0.547,0.371,0.734c0.047,0.189,0.045,0.297,0.032,0.299
								c-0.039,0.015-0.08-0.435-0.516-0.938c-0.215-0.246-0.539-0.485-0.953-0.602c-0.392-0.111-0.949-0.135-1.318,0.107
								c-0.174,0.132-0.103,0.338,0.094,0.452c0.184,0.115,0.42,0.184,0.626,0.258c0.421,0.139,0.812,0.228,1.143,0.282
								C322.146,434.41,322.568,434.405,322.568,434.44z"/>
						</g>
					</g>
				</g>
				<g>
					<g>
						<g>
							<path style="fill:#263238;" d="M322.282,434.498c-0.016,0.012-0.182-0.268-0.137-0.767c0.024-0.245,0.11-0.536,0.292-0.812
								c0.192-0.248,0.439-0.59,0.914-0.576c0.257,0.03,0.386,0.32,0.348,0.507c-0.018,0.194-0.103,0.362-0.182,0.497
								c-0.161,0.279-0.344,0.505-0.514,0.676c-0.343,0.343-0.615,0.477-0.628,0.456c-0.02-0.027,0.218-0.201,0.519-0.556
								c0.15-0.177,0.312-0.402,0.455-0.67c0.149-0.236,0.248-0.657-0.031-0.704c-0.277-0.023-0.557,0.256-0.723,0.479
								c-0.171,0.242-0.264,0.501-0.304,0.724C322.212,434.203,322.319,434.489,322.282,434.498z"/>
						</g>
					</g>
				</g>
				<g>
					<g>
						<g>
							<path style="fill:#263238;" d="M340.908,433.101c-0.003,0.039-0.494-0.041-1.271,0.061c-0.77,0.095-1.838,0.425-2.762,1.179
								c-0.922,0.756-1.457,1.738-1.704,2.474c-0.254,0.742-0.273,1.238-0.311,1.234c-0.013-0.001-0.021-0.124-0.005-0.347
								c0.015-0.223,0.064-0.545,0.176-0.931c0.216-0.767,0.75-1.802,1.712-2.59c0.963-0.786,2.083-1.105,2.878-1.165
								c0.4-0.033,0.726-0.017,0.948,0.012C340.79,433.056,340.91,433.088,340.908,433.101z"/>
						</g>
					</g>
				</g>
				<g>
					<g>
						<g>
							<path style="fill:#263238;" d="M339.032,425.956c0.058-0.001,0.145,1.582,0.194,3.535c0.05,1.955,0.043,3.54-0.014,3.541
								c-0.057,0.001-0.145-1.581-0.194-3.536C338.967,427.543,338.974,425.958,339.032,425.956z"/>
						</g>
					</g>
				</g>
				<g>
					<g>
						<g>
							<path style="fill:#263238;" d="M332.646,436.496c0.008,0.054-1.112,0.252-2.511,0.281c-1.4,0.033-2.527-0.116-2.521-0.17
								c0.005-0.061,1.13-0.006,2.517-0.039C331.517,436.54,332.639,436.436,332.646,436.496z"/>
						</g>
					</g>
				</g>
				<g>
					<g>
						<g>
							<path style="fill:#263238;" d="M336.022,436.448c0.043,0.042-0.089,0.24-0.201,0.499c-0.115,0.258-0.172,0.489-0.231,0.486
								c-0.056,0-0.092-0.271,0.039-0.57C335.76,436.564,335.984,436.407,336.022,436.448z"/>
						</g>
					</g>
				</g>
				<g>
					<g>
						<g>
							<path style="fill:#263238;" d="M337.274,434.849c0.042,0.04-0.067,0.221-0.243,0.404c-0.176,0.183-0.352,0.299-0.394,0.259
								c-0.042-0.04,0.067-0.22,0.243-0.404C337.056,434.925,337.232,434.809,337.274,434.849z"/>
						</g>
					</g>
				</g>
				<g>
					<g>
						<g>
							<path style="fill:#263238;" d="M339.085,434.102c-0.011,0.059-0.24,0.059-0.492,0.152c-0.254,0.086-0.432,0.229-0.478,0.191
								c-0.047-0.031,0.095-0.278,0.409-0.388C338.836,433.946,339.102,434.049,339.085,434.102z"/>
						</g>
					</g>
				</g>
				<g>
					<g>
						<g>
							<path style="fill:#263238;" d="M340.376,433.744c0.021,0.054-0.076,0.143-0.219,0.2c-0.142,0.057-0.275,0.06-0.297,0.007
								c-0.021-0.053,0.076-0.143,0.219-0.2C340.222,433.694,340.355,433.691,340.376,433.744z"/>
						</g>
					</g>
				</g>
			</g>
		</g>
		<g>
			<g>
				<g>
					<g>
						<g>
							<path style="fill:#E8505B;" d="M411.709,429.407l-2.804-8.757l-16.437,5.147l3.967,12.855l1.04-0.254
								c4.615-1.169,23.381-6.267,26.125-8.135C426.66,428.178,411.709,429.407,411.709,429.407z"/>
						</g>
					</g>
					<g>
						<g>
							<path style="fill:#E8505B;" d="M402.353,436.657c-0.664-1.3-1.827-2.337-3.195-2.848s-2.862-0.538-4.216,0.008l1.435,4.595
								L402.353,436.657z"/>
						</g>
					</g>
				</g>
				<g>
					<g>
						<path style="fill:#E8505B;" d="M419.09,429.05c0,0,5.337-0.121,4.979,0.877c-0.358,0.997-19.129,6.863-27.635,8.726
							l-0.089-0.375l21.953-6.655C418.299,431.621,418.146,429.389,419.09,429.05z"/>
					</g>
				</g>
				<g>
					<g>
						<g>
							<path style="fill:#263238;" d="M396.084,438.347c0.002,0.007,0.103-0.013,0.292-0.058c0.248-0.061,0.52-0.129,0.827-0.205
								c0.823-0.219,1.835-0.488,3.028-0.805c2.552-0.698,6.065-1.709,9.92-2.91c3.855-1.202,7.321-2.366,9.818-3.242
								c1.163-0.417,2.148-0.771,2.949-1.058c0.296-0.112,0.558-0.211,0.797-0.302c0.181-0.071,0.276-0.112,0.273-0.118
								c-0.003-0.007-0.101,0.021-0.287,0.079c-0.243,0.079-0.509,0.166-0.81,0.264c-0.807,0.27-1.799,0.603-2.97,0.995
								c-2.508,0.84-5.979,1.981-9.832,3.182c-3.852,1.2-7.357,2.233-9.898,2.967c-1.187,0.342-2.192,0.633-3.01,0.869
								c-0.303,0.09-0.572,0.17-0.817,0.243C396.179,438.307,396.082,438.34,396.084,438.347z"/>
						</g>
					</g>
				</g>
				<g>
					<g>
						<g>
							<path style="fill:#263238;" d="M418.374,431.878c0.063-0.011-0.113-0.74,0.112-1.601c0.211-0.865,0.711-1.422,0.661-1.462
								c-0.027-0.046-0.635,0.484-0.864,1.411C418.045,431.15,418.328,431.905,418.374,431.878z"/>
						</g>
					</g>
				</g>
				<g>
					<g>
						<g>
							<path style="fill:#263238;" d="M412.754,430.933c0.056,0.015,0.199-0.34,0.321-0.793c0.122-0.453,0.175-0.832,0.12-0.847
								c-0.056-0.015-0.199,0.34-0.321,0.793C412.752,430.539,412.698,430.918,412.754,430.933z"/>
						</g>
					</g>
				</g>
				<g>
					<g>
						<g>
							<path style="fill:#263238;" d="M411.203,430.645c0.05,0.029,0.255-0.225,0.459-0.568c0.204-0.343,0.329-0.645,0.279-0.674
								c-0.05-0.029-0.255,0.225-0.459,0.568C411.279,430.314,411.153,430.616,411.203,430.645z"/>
						</g>
					</g>
				</g>
				<g>
					<g>
						<g>
							<path style="fill:#263238;" d="M409.876,429.356c0.017,0.055,0.416-0.016,0.892-0.159c0.476-0.143,0.848-0.304,0.832-0.359
								c-0.016-0.055-0.416,0.016-0.892,0.159C410.232,429.141,409.86,429.301,409.876,429.356z"/>
						</g>
					</g>
				</g>
				<g>
					<g>
						<g>
							<path style="fill:#263238;" d="M409.246,428.352c-0.003,0.055,0.474,0.113,1.044-0.021c0.571-0.131,0.974-0.393,0.947-0.441
								c-0.027-0.054-0.452,0.114-0.994,0.237C409.702,428.256,409.246,428.292,409.246,428.352z"/>
						</g>
					</g>
				</g>
				<g>
					<g>
						<g>
							<path style="fill:#263238;" d="M412.864,429.324c0.006,0.023,0.427-0.055,1.054-0.337c0.313-0.141,0.674-0.338,1.047-0.599
								c0.183-0.138,0.381-0.26,0.561-0.466c0.083-0.103,0.168-0.237,0.159-0.41c-0.006-0.172-0.146-0.323-0.292-0.372
								c-1.173-0.208-2.007,0.676-2.219,1.315c-0.123,0.331-0.136,0.62-0.124,0.813c0.014,0.194,0.05,0.296,0.062,0.294
								c0.042,0.002-0.059-0.438,0.2-1.052c0.128-0.301,0.361-0.628,0.719-0.868c0.338-0.227,0.86-0.423,1.286-0.308
								c0.207,0.072,0.203,0.29,0.051,0.459c-0.139,0.167-0.342,0.305-0.515,0.439c-0.357,0.263-0.701,0.468-0.999,0.623
								C413.256,429.165,412.853,429.292,412.864,429.324z"/>
						</g>
					</g>
				</g>
				<g>
					<g>
						<g>
							<path style="fill:#263238;" d="M413.154,429.291c0.019,0.007,0.09-0.312-0.107-0.771c-0.099-0.225-0.271-0.475-0.53-0.682
								c-0.26-0.176-0.601-0.424-1.048-0.264c-0.235,0.108-0.268,0.424-0.173,0.59c0.077,0.179,0.21,0.312,0.327,0.416
								c0.239,0.215,0.484,0.373,0.699,0.483c0.432,0.22,0.733,0.262,0.738,0.239c0.01-0.032-0.27-0.124-0.665-0.367
								c-0.197-0.122-0.421-0.285-0.64-0.496c-0.215-0.178-0.439-0.548-0.19-0.679c0.257-0.108,0.609,0.071,0.836,0.231
								c0.238,0.177,0.407,0.394,0.514,0.593C413.129,428.989,413.116,429.294,413.154,429.291z"/>
						</g>
					</g>
				</g>
				<g>
					<g>
						<g>
							<path style="fill:#263238;" d="M395.014,433.744c0.015,0.036,0.457-0.192,1.227-0.337c0.762-0.148,1.88-0.166,2.991,0.264
								c1.111,0.432,1.925,1.2,2.387,1.823c0.471,0.626,0.643,1.092,0.679,1.076c0.012-0.005-0.019-0.125-0.103-0.332
								c-0.084-0.207-0.23-0.499-0.456-0.831c-0.443-0.662-1.272-1.48-2.431-1.931c-1.159-0.449-2.323-0.404-3.097-0.214
								c-0.391,0.093-0.696,0.209-0.897,0.306C395.112,433.665,395.009,433.733,395.014,433.744z"/>
						</g>
					</g>
				</g>
				<g>
					<g>
						<g>
							<path style="fill:#263238;" d="M394.58,426.37c-0.055,0.016,0.353,1.548,0.913,3.421c0.559,1.874,1.058,3.378,1.113,3.362
								c0.055-0.017-0.353-1.548-0.913-3.422C395.134,427.859,394.635,426.353,394.58,426.37z"/>
						</g>
					</g>
				</g>
				<g>
					<g>
						<g>
							<path style="fill:#263238;" d="M403.922,434.407c0.009,0.054,1.135-0.105,2.474-0.512c1.341-0.403,2.366-0.894,2.344-0.944
								c-0.023-0.056-1.076,0.345-2.404,0.744C405.009,434.099,403.91,434.348,403.922,434.407z"/>
						</g>
					</g>
				</g>
				<g>
					<g>
						<g>
							<path style="fill:#263238;" d="M400.698,435.409c-0.027,0.053,0.159,0.2,0.345,0.412c0.19,0.21,0.315,0.412,0.37,0.39
								c0.053-0.017,0.004-0.286-0.214-0.529C400.983,435.439,400.721,435.359,400.698,435.409z"/>
						</g>
					</g>
				</g>
				<g>
					<g>
						<g>
							<path style="fill:#263238;" d="M399.011,434.278c-0.027,0.051,0.133,0.189,0.356,0.308c0.224,0.119,0.427,0.175,0.455,0.124
								c0.027-0.051-0.132-0.189-0.357-0.308C399.242,434.282,399.038,434.227,399.011,434.278z"/>
						</g>
					</g>
				</g>
				<g>
					<g>
						<g>
							<path style="fill:#263238;" d="M397.058,434.13c0.029,0.052,0.247-0.018,0.515-0.008c0.268,0.003,0.482,0.084,0.514,0.033
								c0.035-0.044-0.177-0.235-0.509-0.242C397.246,433.904,397.025,434.085,397.058,434.13z"/>
						</g>
					</g>
				</g>
				<g>
					<g>
						<g>
							<path style="fill:#263238;" d="M395.719,434.191c-0.004,0.058,0.117,0.113,0.27,0.123c0.153,0.01,0.28-0.028,0.284-0.086
								c0.004-0.057-0.117-0.112-0.27-0.123C395.85,434.095,395.723,434.134,395.719,434.191z"/>
						</g>
					</g>
				</g>
			</g>
		</g>
		<g>
			<polyline style="fill:#263238;" points="311.972,251.546 320.01,430.197 346.831,430.761 342.377,281.196 390.979,432.543 
				412.901,426.543 363.988,251.546 			"/>
			<polygon style="fill:#455A64;" points="389.832,431.528 391.083,433.933 414.312,427.162 412.901,423.262 			"/>
			<g>
				<g>
					<path style="fill:#455A64;" d="M410.221,422.37c0.138-0.041,0.346,0.247,0.465,0.644c0.119,0.397,0.104,0.752-0.034,0.793
						c-0.138,0.041-0.346-0.247-0.465-0.644C410.068,422.766,410.084,422.411,410.221,422.37z"/>
				</g>
				<g>
					<path style="fill:#455A64;" d="M408.482,416.569c0.138-0.041,0.444,0.574,0.684,1.375c0.24,0.801,0.323,1.484,0.185,1.525
						c-0.138,0.041-0.444-0.574-0.684-1.376C408.427,417.293,408.344,416.61,408.482,416.569z"/>
				</g>
				<g>
					<path style="fill:#455A64;" d="M406.742,410.768c0.138-0.041,0.444,0.575,0.684,1.375c0.24,0.801,0.323,1.484,0.185,1.525
						c-0.138,0.041-0.444-0.574-0.684-1.376C406.688,411.492,406.604,410.81,406.742,410.768z"/>
				</g>
				<g>
					<path style="fill:#455A64;" d="M405.003,404.967c0.138-0.041,0.444,0.575,0.684,1.375c0.24,0.801,0.323,1.484,0.186,1.525
						c-0.138,0.041-0.444-0.574-0.684-1.375C404.948,405.691,404.865,405.009,405.003,404.967z"/>
				</g>
				<g>
					<path style="fill:#455A64;" d="M403.263,399.166c0.138-0.041,0.444,0.574,0.684,1.375c0.24,0.801,0.323,1.484,0.186,1.525
						c-0.138,0.041-0.444-0.574-0.684-1.375C403.208,399.891,403.125,399.208,403.263,399.166z"/>
				</g>
				<g>
					<path style="fill:#455A64;" d="M401.523,393.366c0.138-0.041,0.444,0.575,0.684,1.375c0.24,0.801,0.323,1.484,0.185,1.525
						c-0.138,0.041-0.444-0.574-0.684-1.375C401.469,394.09,401.386,393.407,401.523,393.366z"/>
				</g>
				<g>
					<path style="fill:#455A64;" d="M399.784,387.565c0.138-0.041,0.444,0.575,0.684,1.375c0.24,0.801,0.323,1.484,0.185,1.525
						c-0.138,0.041-0.444-0.574-0.684-1.376C399.729,388.289,399.646,387.606,399.784,387.565z"/>
				</g>
				<g>
					<path style="fill:#455A64;" d="M398.044,381.764c0.138-0.041,0.444,0.575,0.684,1.375c0.24,0.801,0.323,1.484,0.186,1.525
						c-0.138,0.041-0.444-0.574-0.684-1.376C397.99,382.488,397.906,381.805,398.044,381.764z"/>
				</g>
				<g>
					<path style="fill:#455A64;" d="M396.305,375.963c0.138-0.041,0.444,0.575,0.684,1.375c0.24,0.801,0.323,1.484,0.186,1.525
						c-0.138,0.041-0.444-0.574-0.684-1.376C396.25,376.687,396.167,376.004,396.305,375.963z"/>
				</g>
				<g>
					<path style="fill:#455A64;" d="M394.565,370.162c0.138-0.041,0.444,0.575,0.684,1.375c0.24,0.801,0.323,1.484,0.185,1.525
						c-0.138,0.041-0.444-0.574-0.684-1.376C394.51,370.886,394.427,370.203,394.565,370.162z"/>
				</g>
				<g>
					<path style="fill:#455A64;" d="M392.825,364.361c0.138-0.041,0.444,0.574,0.684,1.375c0.24,0.801,0.323,1.484,0.185,1.525
						c-0.138,0.041-0.444-0.574-0.684-1.376C392.771,365.085,392.688,364.402,392.825,364.361z"/>
				</g>
				<g>
					<path style="fill:#455A64;" d="M391.086,358.56c0.138-0.041,0.444,0.574,0.684,1.375c0.24,0.801,0.323,1.484,0.185,1.525
						c-0.138,0.041-0.444-0.574-0.684-1.375C391.031,359.284,390.948,358.601,391.086,358.56z"/>
				</g>
				<g>
					<path style="fill:#455A64;" d="M389.346,352.759c0.138-0.041,0.444,0.574,0.684,1.375c0.24,0.801,0.323,1.484,0.185,1.525
						c-0.138,0.041-0.444-0.574-0.684-1.375C389.292,353.483,389.209,352.801,389.346,352.759z"/>
				</g>
				<g>
					<path style="fill:#455A64;" d="M387.607,346.958c0.138-0.041,0.444,0.574,0.684,1.375c0.24,0.801,0.323,1.484,0.186,1.525
						c-0.138,0.041-0.444-0.574-0.684-1.375C387.552,347.682,387.469,347,387.607,346.958z"/>
				</g>
				<g>
					<path style="fill:#455A64;" d="M385.867,341.158c0.138-0.041,0.444,0.575,0.684,1.375c0.24,0.801,0.323,1.484,0.186,1.525
						c-0.138,0.041-0.444-0.574-0.684-1.375C385.812,341.882,385.729,341.199,385.867,341.158z"/>
				</g>
				<g>
					<path style="fill:#455A64;" d="M384.128,335.357c0.138-0.041,0.444,0.575,0.684,1.375c0.24,0.801,0.323,1.484,0.186,1.525
						c-0.138,0.041-0.444-0.574-0.684-1.375C384.073,336.081,383.99,335.398,384.128,335.357z"/>
				</g>
				<g>
					<path style="fill:#455A64;" d="M382.388,329.556c0.138-0.041,0.444,0.575,0.684,1.375c0.24,0.801,0.323,1.484,0.185,1.525
						c-0.138,0.041-0.444-0.574-0.684-1.376C382.333,330.28,382.25,329.597,382.388,329.556z"/>
				</g>
				<g>
					<path style="fill:#455A64;" d="M380.648,323.755c0.138-0.041,0.444,0.575,0.684,1.375c0.24,0.801,0.323,1.484,0.185,1.525
						c-0.138,0.041-0.444-0.574-0.684-1.376C380.594,324.479,380.511,323.796,380.648,323.755z"/>
				</g>
				<g>
					<path style="fill:#455A64;" d="M378.909,317.954c0.138-0.041,0.444,0.575,0.684,1.375c0.24,0.801,0.323,1.484,0.186,1.525
						c-0.138,0.041-0.444-0.574-0.684-1.375C378.854,318.678,378.771,317.995,378.909,317.954z"/>
				</g>
				<g>
					<path style="fill:#455A64;" d="M377.169,312.153c0.138-0.041,0.444,0.575,0.684,1.375c0.24,0.801,0.323,1.484,0.186,1.525
						c-0.138,0.041-0.444-0.574-0.684-1.375C377.114,312.877,377.031,312.194,377.169,312.153z"/>
				</g>
				<g>
					<path style="fill:#455A64;" d="M375.43,306.352c0.138-0.041,0.444,0.574,0.684,1.375c0.24,0.801,0.323,1.484,0.185,1.525
						c-0.138,0.041-0.444-0.574-0.684-1.375C375.375,307.076,375.292,306.393,375.43,306.352z"/>
				</g>
				<g>
					<path style="fill:#455A64;" d="M373.69,300.551c0.138-0.041,0.444,0.574,0.684,1.375c0.24,0.801,0.323,1.484,0.185,1.525
						c-0.138,0.041-0.444-0.574-0.684-1.375C373.635,301.275,373.552,300.592,373.69,300.551z"/>
				</g>
				<g>
					<path style="fill:#455A64;" d="M371.95,294.75c0.138-0.041,0.444,0.574,0.684,1.375c0.24,0.801,0.323,1.484,0.185,1.525
						c-0.138,0.041-0.444-0.574-0.684-1.375C371.896,295.474,371.813,294.792,371.95,294.75z"/>
				</g>
				<g>
					<path style="fill:#455A64;" d="M370.211,288.949c0.138-0.041,0.444,0.574,0.684,1.375c0.24,0.801,0.323,1.484,0.185,1.525
						c-0.138,0.041-0.444-0.574-0.684-1.376C370.156,289.674,370.073,288.991,370.211,288.949z"/>
				</g>
				<g>
					<path style="fill:#455A64;" d="M368.471,283.149c0.138-0.041,0.444,0.575,0.684,1.375c0.24,0.801,0.323,1.484,0.185,1.525
						c-0.138,0.041-0.444-0.574-0.684-1.376C368.417,283.873,368.333,283.19,368.471,283.149z"/>
				</g>
				<g>
					<path style="fill:#455A64;" d="M366.732,277.348c0.138-0.041,0.444,0.575,0.684,1.375c0.24,0.801,0.323,1.484,0.185,1.525
						c-0.138,0.041-0.444-0.574-0.684-1.376C366.677,278.072,366.594,277.389,366.732,277.348z"/>
				</g>
				<g>
					<path style="fill:#455A64;" d="M364.992,271.547c0.138-0.041,0.444,0.574,0.684,1.375c0.24,0.801,0.323,1.484,0.185,1.525
						c-0.138,0.041-0.444-0.574-0.684-1.376C364.937,272.271,364.854,271.588,364.992,271.547z"/>
				</g>
				<g>
					<path style="fill:#455A64;" d="M363.252,265.746c0.138-0.041,0.444,0.574,0.684,1.375c0.24,0.801,0.323,1.484,0.185,1.525
						c-0.138,0.041-0.444-0.574-0.684-1.375C363.198,266.47,363.115,265.787,363.252,265.746z"/>
				</g>
				<g>
					<path style="fill:#455A64;" d="M361.513,259.945c0.138-0.041,0.444,0.574,0.684,1.375c0.24,0.801,0.323,1.484,0.185,1.525
						c-0.138,0.041-0.444-0.574-0.684-1.375C361.458,260.669,361.375,259.986,361.513,259.945z"/>
				</g>
				<g>
					<path style="fill:#455A64;" d="M360.212,255.608c0.138-0.041,0.346,0.247,0.465,0.644c0.119,0.397,0.104,0.752-0.034,0.793
						c-0.138,0.041-0.346-0.247-0.465-0.644C360.059,256.004,360.074,255.649,360.212,255.608z"/>
				</g>
			</g>
			<g>
				<g>
					<path style="fill:#455A64;" d="M342.207,429.299c0.144-0.007,0.277,0.322,0.299,0.735c0.021,0.413-0.078,0.754-0.221,0.762
						c-0.144,0.008-0.277-0.321-0.299-0.735C341.965,429.647,342.064,429.306,342.207,429.299z"/>
				</g>
				<g>
					<path style="fill:#455A64;" d="M341.961,423.348c0.144-0.005,0.286,0.657,0.317,1.478c0.031,0.822-0.06,1.492-0.204,1.498
						c-0.144,0.006-0.285-0.656-0.317-1.478C341.726,424.024,341.817,423.353,341.961,423.348z"/>
				</g>
				<g>
					<path style="fill:#455A64;" d="M341.777,417.395c0.144-0.004,0.28,0.659,0.303,1.481c0.024,0.822-0.074,1.492-0.217,1.496
						c-0.144,0.004-0.279-0.659-0.303-1.481C341.536,418.069,341.633,417.399,341.777,417.395z"/>
				</g>
				<g>
					<path style="fill:#455A64;" d="M341.626,411.44c0.144-0.004,0.277,0.66,0.297,1.482c0.02,0.822-0.08,1.492-0.224,1.495
						c-0.144,0.003-0.277-0.66-0.297-1.483C341.382,412.113,341.482,411.444,341.626,411.44z"/>
				</g>
				<g>
					<path style="fill:#455A64;" d="M341.484,405.483c0.144-0.003,0.276,0.661,0.296,1.483c0.02,0.823-0.081,1.492-0.225,1.496
						c-0.144,0.003-0.276-0.661-0.296-1.483C341.24,406.156,341.341,405.487,341.484,405.483z"/>
				</g>
				<g>
					<path style="fill:#455A64;" d="M341.329,399.524c0.144-0.004,0.278,0.66,0.301,1.483c0.022,0.823-0.076,1.493-0.22,1.497
						c-0.144,0.004-0.278-0.66-0.301-1.483C341.087,400.198,341.186,399.528,341.329,399.524z"/>
				</g>
				<g>
					<path style="fill:#455A64;" d="M341.133,393.567c0.144-0.006,0.284,0.657,0.313,1.479c0.029,0.823-0.064,1.494-0.207,1.498
						c-0.144,0.005-0.284-0.658-0.313-1.48C340.896,394.244,340.989,393.573,341.133,393.567z"/>
				</g>
				<g>
					<path style="fill:#455A64;" d="M340.882,387.616c0.144-0.006,0.288,0.655,0.323,1.477c0.034,0.822-0.054,1.493-0.198,1.499
						c-0.144,0.006-0.288-0.655-0.323-1.477C340.65,388.293,340.739,387.622,340.882,387.616z"/>
				</g>
				<g>
					<path style="fill:#455A64;" d="M340.65,381.664c0.144-0.006,0.285,0.656,0.317,1.478c0.031,0.822-0.06,1.493-0.204,1.498
						s-0.285-0.656-0.317-1.478C340.415,382.34,340.507,381.669,340.65,381.664z"/>
				</g>
				<g>
					<path style="fill:#455A64;" d="M340.443,375.71c0.144-0.005,0.283,0.658,0.311,1.479c0.028,0.822-0.066,1.492-0.21,1.497
						c-0.144,0.005-0.283-0.658-0.311-1.48C340.205,376.385,340.299,375.715,340.443,375.71z"/>
				</g>
				<g>
					<path style="fill:#455A64;" d="M340.26,369.752c0.144-0.004,0.28,0.659,0.304,1.481c0.024,0.822-0.073,1.492-0.216,1.496
						c-0.144,0.004-0.28-0.659-0.304-1.481C340.02,370.426,340.117,369.756,340.26,369.752z"/>
				</g>
				<g>
					<path style="fill:#455A64;" d="M340.105,363.797c0.144-0.004,0.277,0.66,0.298,1.482c0.021,0.822-0.079,1.492-0.223,1.495
						c-0.144,0.004-0.277-0.66-0.298-1.482C339.861,364.47,339.961,363.801,340.105,363.797z"/>
				</g>
				<g>
					<path style="fill:#455A64;" d="M339.976,357.842c0.144-0.003,0.274,0.661,0.291,1.483c0.017,0.822-0.086,1.491-0.23,1.494
						c-0.144,0.003-0.274-0.661-0.291-1.484C339.729,358.514,339.832,357.845,339.976,357.842z"/>
				</g>
				<g>
					<path style="fill:#455A64;" d="M339.876,351.886c0.144-0.002,0.271,0.663,0.284,1.485c0.013,0.823-0.093,1.491-0.237,1.493
						c-0.144,0.002-0.271-0.663-0.284-1.485C339.626,352.556,339.732,351.888,339.876,351.886z"/>
				</g>
				<g>
					<path style="fill:#455A64;" d="M339.804,345.93c0.144-0.002,0.268,0.664,0.276,1.486c0.009,0.823-0.1,1.49-0.244,1.492
						c-0.144,0.001-0.268-0.664-0.276-1.486C339.551,346.599,339.66,345.931,339.804,345.93z"/>
				</g>
				<g>
					<path style="fill:#455A64;" d="M339.762,339.973c0.144-0.001,0.264,0.665,0.269,1.487c0.005,0.823-0.108,1.49-0.252,1.491
						s-0.264-0.665-0.269-1.488C339.505,340.642,339.618,339.974,339.762,339.973z"/>
				</g>
				<g>
					<path style="fill:#455A64;" d="M339.749,334.017c0.144,0,0.261,0.666,0.262,1.489c0.001,0.823-0.115,1.489-0.259,1.489
						c-0.144,0-0.261-0.666-0.262-1.489C339.489,334.684,339.605,334.017,339.749,334.017z"/>
				</g>
				<g>
					<path style="fill:#455A64;" d="M339.766,328.06c0.144,0,0.258,0.668,0.254,1.49c-0.003,0.823-0.123,1.489-0.267,1.488
						c-0.144-0.001-0.258-0.668-0.254-1.49C339.503,328.726,339.622,328.06,339.766,328.06z"/>
				</g>
				<g>
					<path style="fill:#455A64;" d="M339.813,322.104c0.144,0.001,0.254,0.669,0.247,1.491c-0.008,0.823-0.13,1.488-0.274,1.487
						c-0.144-0.001-0.254-0.669-0.247-1.492C339.546,322.768,339.669,322.102,339.813,322.104z"/>
				</g>
				<g>
					<path style="fill:#455A64;" d="M339.89,316.147c0.144,0.002,0.251,0.67,0.239,1.493c-0.012,0.823-0.138,1.488-0.282,1.486
						c-0.144-0.002-0.251-0.67-0.239-1.493C339.62,316.81,339.746,316.145,339.89,316.147z"/>
				</g>
				<g>
					<path style="fill:#455A64;" d="M339.996,310.193c0.144,0.003,0.247,0.672,0.232,1.494c-0.015,0.822-0.144,1.487-0.288,1.484
						c-0.144-0.003-0.248-0.671-0.233-1.494C339.723,310.855,339.852,310.19,339.996,310.193z"/>
				</g>
				<g>
					<path style="fill:#455A64;" d="M340.13,304.234c0.144,0.004,0.244,0.674,0.224,1.496c-0.02,0.823-0.153,1.487-0.297,1.484
						c-0.144-0.003-0.244-0.673-0.224-1.496C339.854,304.894,339.987,304.23,340.13,304.234z"/>
				</g>
				<g>
					<path style="fill:#455A64;" d="M340.34,298.275c0.144,0.007,0.234,0.678,0.201,1.5c-0.033,0.822-0.176,1.484-0.319,1.479
						c-0.144-0.005-0.234-0.676-0.201-1.5C340.053,298.931,340.196,298.268,340.34,298.275z"/>
				</g>
				<g>
					<path style="fill:#455A64;" d="M340.687,292.325c0.143,0.011,0.216,0.684,0.163,1.504c-0.054,0.82-0.214,1.478-0.357,1.47
						c-0.144-0.008-0.216-0.681-0.163-1.504C340.384,292.973,340.543,292.315,340.687,292.325z"/>
				</g>
				<g>
					<path style="fill:#455A64;" d="M341.232,286.393c0.143,0.016,0.191,0.691,0.108,1.508c-0.083,0.817-0.267,1.468-0.41,1.455
						c-0.143-0.013-0.192-0.688-0.108-1.508C340.906,287.028,341.089,286.377,341.232,286.393z"/>
				</g>
				<g>
					<path style="fill:#455A64;" d="M341.808,281.965c0.142,0.021,0.21,0.37,0.152,0.779c-0.058,0.409-0.221,0.725-0.363,0.706
						c-0.143-0.019-0.211-0.368-0.152-0.779C341.503,282.26,341.666,281.944,341.808,281.965z"/>
				</g>
			</g>
			<polygon style="fill:#455A64;" points="319.31,431.065 347.674,431.528 347.451,426.802 319.31,426.951 			"/>
			<g>
				<path style="fill:#455A64;" d="M337.91,253.812c0.036-0.002,0.094,0.387,0.169,1.092c0.075,0.705,0.166,1.727,0.268,2.99
					c0.204,2.526,0.449,6.018,0.688,9.877c0.112,1.923,0.218,3.755,0.316,5.442c0.1,1.674,0.096,3.188,0.518,4.346
					c0.395,1.166,1.202,1.862,1.81,2.151c0.624,0.291,1.036,0.244,1.032,0.296c0.001,0.015-0.097,0.041-0.288,0.045
					c-0.191,0.006-0.478-0.029-0.824-0.155c-0.679-0.25-1.601-0.963-2.075-2.209c-0.497-1.233-0.525-2.789-0.652-4.445
					c-0.111-1.686-0.231-3.517-0.357-5.439c-0.239-3.859-0.426-7.354-0.536-9.886c-0.055-1.266-0.09-2.291-0.103-3
					C337.864,254.207,337.874,253.814,337.91,253.812z"/>
			</g>
			<g>
				<path style="fill:#455A64;" d="M340.664,256.184c0.04,0.067-0.225,0.244-0.249,0.666c-0.012,0.201,0.044,0.454,0.207,0.611
					c0.153,0.16,0.431,0.201,0.7,0.095c0.267-0.111,0.438-0.335,0.436-0.556c0.008-0.226-0.129-0.446-0.278-0.582
					c-0.312-0.286-0.625-0.228-0.643-0.304c-0.047-0.048,0.331-0.302,0.859,0.006c0.239,0.148,0.508,0.433,0.541,0.867
					c0.041,0.442-0.291,0.888-0.719,1.052c-0.422,0.181-0.97,0.093-1.249-0.253c-0.279-0.334-0.285-0.726-0.216-0.999
					C340.216,256.199,340.664,256.116,340.664,256.184z"/>
			</g>
			<g>
				<path style="fill:#455A64;" d="M365.901,260.42c0.027,0.045-0.764,0.549-2.228,0.849c-1.442,0.306-3.606,0.305-5.713-0.635
					c-2.106-0.943-3.55-2.555-4.284-3.833c-0.752-1.291-0.904-2.216-0.853-2.226c0.085-0.031,0.362,0.839,1.164,2.029
					c0.787,1.184,2.198,2.665,4.186,3.555c1.988,0.887,4.033,0.95,5.44,0.747C365.035,260.71,365.868,260.336,365.901,260.42z"/>
			</g>
			<g>
				<path style="fill:#455A64;" d="M321.298,253.813c0.056-0.005,0.172,0.75-0.095,1.935c-0.255,1.172-0.988,2.776-2.401,4.016
					c-1.416,1.239-3.102,1.753-4.297,1.853c-1.211,0.109-1.943-0.105-1.931-0.16c0.008-0.087,0.742-0.009,1.882-0.205
					c1.131-0.187,2.685-0.727,4.003-1.879c1.315-1.155,2.055-2.625,2.388-3.721C321.192,254.547,321.211,253.809,321.298,253.813z"
					/>
			</g>
		</g>
		<path style="fill:#FFBE9D;" d="M317.314,176.144c0,0-26.72,11.296-27.572,10.87c-0.728-0.364-1.449-21.956-1.449-21.956h-13.329
			c0,0-2.521,31.926,5.489,37.039c10.948,6.988,37.456-7.557,37.456-7.557L317.314,176.144z"/>
		<g>
			<path style="fill:#263238;" d="M228.082,137.587l-2.746,11.941l12.82,3.052c0,0,5.272,1.169,10.516,8.639
				c5.243,7.47,7.27,10.82,7.27,10.82l8.879-43.881l-9.642,6.83c-1.908,1.351-4.029,2.366-6.274,3.015
				c-2.759,0.797-6.428,1.709-8.472,1.606C235.799,139.374,228.082,137.587,228.082,137.587z"/>
			<path style="fill:#E8505B;" d="M371.928,188.516l-115.986-16.478l8.879-43.881l112.778,27.165
				c2.516,0.606,4.14,3.049,3.725,5.603l-3.817,23.486C377.075,187.07,374.595,188.895,371.928,188.516z"/>
			<path style="fill:#E8505B;" d="M217.731,138.147c-0.348-0.067-0.653,0.241-0.582,0.588c0.346,1.705,1.241,5.946,1.912,7.684
				c0.266,0.689,6.688,1.314,6.688,1.314l1.773-7.712L217.731,138.147z"/>
			<polygon style="fill:#263238;" points="362.617,173.413 364.387,166.322 289.461,151.115 287.934,158.253 			"/>
		</g>
		<g>
			<g>
				<g>
					<g>
						<path style="fill:#FFBE9D;" d="M348.056,173.167l-16.559-1.322c-0.103-1.934,0.035-9.413,0.035-9.413s-6.89-1.071-6.975-7.959
							c-0.085-6.888,1.109-22.706,1.109-22.706l0,0c7.974-3.427,17.178-2.27,24.055,3.024l1.021,0.786L348.056,173.167z"/>
					</g>
					<g>
						<g>
							<path style="fill:#263238;" d="M327.252,143.605c0.409-0.371,0.44-1.004,0.069-1.413c-0.371-0.409-1.004-0.44-1.413-0.069
								c-0.409,0.371-0.44,1.004-0.069,1.413C326.21,143.945,326.842,143.976,327.252,143.605z"/>
						</g>
						<g>
							<g>
								<path style="fill:#263238;" d="M325.582,142.033c0.108,0.119,0.784-0.401,1.733-0.406c0.949-0.018,1.637,0.486,1.742,0.364
									c0.051-0.054-0.056-0.269-0.357-0.498c-0.295-0.227-0.801-0.446-1.393-0.439c-0.591,0.007-1.092,0.238-1.381,0.472
									C325.632,141.762,325.53,141.98,325.582,142.033z"/>
							</g>
						</g>
					</g>
					<g>
						<g>
							<path style="fill:#263238;" d="M336.512,142.86c-0.47,0.289-0.617,0.905-0.328,1.376c0.29,0.471,0.906,0.617,1.376,0.328
								c0.471-0.289,0.618-0.906,0.328-1.376C337.599,142.717,336.983,142.57,336.512,142.86z"/>
						</g>
						<g>
							<g>
								<path style="fill:#263238;" d="M335.887,142.868c0.108,0.119,0.784-0.401,1.733-0.406c0.949-0.019,1.637,0.486,1.742,0.364
									c0.051-0.054-0.056-0.269-0.357-0.498c-0.295-0.227-0.801-0.446-1.393-0.439c-0.591,0.007-1.092,0.238-1.381,0.472
									C335.936,142.598,335.834,142.815,335.887,142.868z"/>
							</g>
						</g>
					</g>
					<g>
						<g>
							<path style="fill:#263238;" d="M332.082,150.695c0.006-0.074-0.58-0.193-1.534-0.325c-0.248-0.027-0.443-0.083-0.461-0.217
								c-0.045-0.15,0.052-0.415,0.178-0.711c0.244-0.627,0.491-1.262,0.75-1.928c1.036-2.747,1.763-5.015,1.624-5.068
								s-1.092,2.131-2.129,4.877c-0.245,0.671-0.479,1.31-0.71,1.943c-0.091,0.287-0.264,0.622-0.136,1.031
								c0.069,0.205,0.264,0.353,0.428,0.396c0.164,0.05,0.304,0.05,0.423,0.055C331.477,150.785,332.076,150.769,332.082,150.695z"
								/>
						</g>
					</g>
					<g>
						<path style="fill:#FFFFFF;" d="M335.165,151.743c0.989-0.589-2.722,1.446-4.653,1.352c0,0,1.108,1.77,3.094,1.044
							C335.667,153.384,335.165,151.743,335.165,151.743z"/>
					</g>
					<g>
						<path style="fill:#EB996E;" d="M331.521,162.333c0,0,4.353,0.354,8.98-2.552c0,0-2.123,4.957-8.996,4.337L331.521,162.333z"/>
					</g>
				</g>
			</g>
			<g>
				<g>
					<path style="fill:#FFBE9D;" d="M350.759,142.242c0.152-0.047,5.134-0.385,4.307,5.423c-0.827,5.807-6.419,3.052-6.405,2.884
						C348.675,150.38,350.759,142.242,350.759,142.242z"/>
				</g>
				<g>
					<g>
						<path style="fill:#EB996E;" d="M350.73,148.763c0.028-0.015,0.091,0.085,0.251,0.188c0.156,0.1,0.435,0.193,0.754,0.123
							c0.646-0.138,1.301-1.038,1.478-2.081c0.09-0.527,0.051-1.046-0.077-1.489c-0.117-0.45-0.349-0.786-0.65-0.885
							c-0.297-0.115-0.542,0.039-0.637,0.192c-0.101,0.151-0.081,0.273-0.113,0.278c-0.018,0.012-0.111-0.115-0.03-0.348
							c0.041-0.112,0.128-0.239,0.28-0.331c0.156-0.094,0.369-0.122,0.581-0.068c0.443,0.095,0.788,0.564,0.928,1.051
							c0.165,0.492,0.221,1.077,0.12,1.669c-0.204,1.165-0.959,2.175-1.833,2.298c-0.424,0.048-0.747-0.123-0.903-0.286
							C350.721,148.905,350.709,148.771,350.73,148.763z"/>
					</g>
				</g>
			</g>
			<path style="fill:#263238;" d="M325.684,131.565c1.787,4.728,8.644,6.595,13.69,6.876c-2.338-2.049-0.893-1.624-2.338-3.064
				c3.006,2.646,8.234,5.358,14.022,5.213c0.771-2.329,0.559-4.966-0.575-7.142c-1.134-2.175-3.174-3.86-5.524-4.563
				c-1.552-0.464-3.197-0.51-4.775-0.874c-1.333-0.307-2.614-0.84-3.967-1.041C332.156,126.368,325.569,125.272,325.684,131.565"/>
			<path style="fill:#263238;" d="M347.956,138.023c0.263,0.663,1.714,8.485,1.714,8.485l1.757-7.541L347.956,138.023z"/>
		</g>
		<path style="fill:#FFBE9D;" d="M397.248,234.711c5.507-6.332,5.475-15.763-0.076-22.057l-26.746-30.328l-7.158,20.011
			c0.488,0.325,20.824,22.126,20.824,22.126l-17.476,21.78c-2.692,3.355-3.475,7.856-2.075,11.923l4.669,11.431l12.785-5.735
			l-0.971-1.492h-9.596l-0.57-2.3l0,0L397.248,234.711z"/>
		<path style="fill:#455A64;" d="M384.581,195.15l-16.892-17.029l-0.002,0.004c-3.266-3.389-7.089-5.896-11.665-7.551
			c-2.222-0.804-4.581-1.285-7.31-1.401l0,0c-5.885,1.819-11.771,1.822-17.656,0.011c-2.424,0.304-7.781,0.98-13.921,3.985l0-0.002
			l-25.225,10.234l8.082,22.297l13.523-4.551l0.8,20.965l-2.671,31.371l52.344,0.543l-0.676-28.454l-0.038-20.585l7.552,7.352
			L384.581,195.15z"/>
	</g>
</g>
</svg>
