<?xml version="1.0" encoding="utf-8"?>
<!-- Generator: Adobe Illustrator 27.5.0, SVG Export Plug-In . SVG Version: 6.00 Build 0)  -->
<svg version="1.1" xmlns="http://www.w3.org/2000/svg" xmlns:xlink="http://www.w3.org/1999/xlink" x="0px" y="0px"
	 viewBox="0 0 3710 3710" style="enable-background:new 0 0 3710 3710;" xml:space="preserve">
<g id="Background">
	<g>
		<g>
			<rect style="fill:#FFFFFF;" width="3710" height="3710"/>
		</g>
	</g>
</g>
<g id="Illustration">
	<g id="Order_shipped">
		<path style="fill:#F4F7FA;" d="M1751.945,485.462C1410.372,323.387,593.669,827.983,454.871,1526.033
			c-155.425,781.667,554.301,1729.913,1413.778,1728.967c557.504-0.614,1088.768-400.506,1277.037-943.191
			c230.335-663.943-78.427-1467.553-416.343-1541.521c-196.34-42.978-332.958,175.599-573.796,100.099
			C1929.4,799.492,1925.313,567.725,1751.945,485.462z"/>
		<g>
			<defs>
				<path id="SVGID_1_" d="M1693.478,1427.906h140.161c0,0,26.384-71.899-7.964-122.641
					c-70.08-103.528,25.484-157.681,62.117-186.35c55.246-43.236,85.074-105.43,3.844-132.507
					c-81.229-27.076,0.399-152.965,99.683-209.931c97.157-55.746,54.125-260.62-167.237-159.273
					c-132.197,60.524-111.491,200.684-117.862,273.95c-6.371,73.266-115.336,79.328-78.044,168.83
					c31.855,76.451,92.378,132.197,46.189,184.757C1628.176,1297.302,1623.397,1356.233,1693.478,1427.906z"/>
			</defs>
			<clipPath id="SVGID_00000107554824942142697590000010163185081746358951_">
				<use xlink:href="#SVGID_1_"  style="overflow:visible;"/>
			</clipPath>
			
				<linearGradient id="SVGID_00000165935836124569721630000007943649864689260987_" gradientUnits="userSpaceOnUse" x1="1941.5195" y1="612.1444" x2="1662.4905" y2="1405.1752">
				<stop  offset="0" style="stop-color:#AA80F9"/>
				<stop  offset="0.9964" style="stop-color:#6165D7"/>
			</linearGradient>
			
				<path style="clip-path:url(#SVGID_00000107554824942142697590000010163185081746358951_);fill:url(#SVGID_00000165935836124569721630000007943649864689260987_);" d="
				M1693.478,1427.906h140.161c0,0,26.384-71.899-7.964-122.641c-70.08-103.528,25.484-157.681,62.117-186.35
				c55.246-43.236,79.59-99.099,13.155-135.336c-75.168-41.001-8.911-150.135,90.373-207.102
				c97.157-55.746,54.125-260.62-167.237-159.273c-132.197,60.524-111.491,200.684-117.862,273.95
				c-6.371,73.266-115.336,79.328-78.044,168.83c31.855,76.451,92.378,132.197,46.189,184.757
				C1628.176,1297.302,1623.397,1356.233,1693.478,1427.906z"/>
			<g style="clip-path:url(#SVGID_00000107554824942142697590000010163185081746358951_);">
				<path style="fill:#BEB8F2;" d="M1753.796,1440.976c-0.331-1.806-32.846-182.834-10.969-372.044
					c12.862-111.241,41.728-203.533,85.798-274.309c55.187-88.631,134.457-143.569,235.608-163.289l0.702,3.592
					c-100.104,19.516-178.558,73.884-233.185,161.598c-43.781,70.305-72.475,162.069-85.281,272.753
					c-21.829,188.677,10.595,369.237,10.924,371.039L1753.796,1440.976z"/>
				<path style="fill:#BEB8F2;" d="M1807.135,832.851c-12.248-98.372,25.154-237.825,25.533-239.219l3.533,0.956
					c-0.377,1.391-37.593,140.161-25.434,237.808L1807.135,832.851z"/>
				<path style="fill:#BEB8F2;" d="M1846.02,775.111l-1.934-3.104c100.962-62.91,195.447-32.621,196.388-32.305l-1.153,3.473
					C2038.394,742.866,1945.469,713.154,1846.02,775.111z"/>
				<path style="fill:#BEB8F2;" d="M1738.912,1193.496l-3.562-0.844c33.444-141.025,225.971-176.437,227.831-176.437l0.12,3.655
					C1961.424,1020.061,1771.672,1055.355,1738.912,1193.496z"/>
				<path style="fill:#BEB8F2;" d="M1737.313,1134.373c-18.337-88.169-114.318-149.082-115.286-149.685l1.941-3.104
					c0.98,0.613,98.27,62.33,116.927,152.045L1737.313,1134.373z"/>
				<path style="fill:#BEB8F2;" d="M1752.921,1411.878l-3.648-0.283c2.31-29.412,25.164-55.166,43.93-71.593
					c20.204-17.687,40.155-28.667,40.354-28.776l1.756,3.21C1834.532,1314.864,1757.172,1357.77,1752.921,1411.878z"/>
				<path style="fill:#BEB8F2;" d="M1743.972,1369.245c-7.023-41.134-70.38-87.827-91.201-103.17
					c-4.355-3.213-5.891-4.353-6.453-4.986l2.735-2.432l-1.368,1.216l1.361-1.223c0.415,0.438,2.956,2.31,5.896,4.478
					c21.114,15.561,85.367,62.913,92.638,105.503L1743.972,1369.245z"/>
			</g>
		</g>
		<g>
			<g>
				
					<linearGradient id="SVGID_00000057141058831785725990000008703273540459581346_" gradientUnits="userSpaceOnUse" x1="1752.0138" y1="1500.1149" x2="942.4326" y2="100.2159">
					<stop  offset="0" style="stop-color:#FFC444"/>
					<stop  offset="0.9964" style="stop-color:#F36F56"/>
				</linearGradient>
				<path style="fill:url(#SVGID_00000057141058831785725990000008703273540459581346_);" d="M1576.825,1730.649
					c-36.544,57.626-17.577,122.612,2.955,167.377c6.195,0.857,9.569,3.055,15.632,5.407
					c54.721,21.233,113.477,31.917,170.406,43.68c12.253,2.532,24.276,3.12,36.711,4.726l12.673,1.295
					c0,0,81.903-173.587,11.002-224.93c-70.902-51.343-22.01-196.076-4.89-276.272c46.453-217.595-193.817-229.038-156.473-513.427
					c9.932-75.639,54.166-216.565-1.63-285.237c-63.567-78.237-125.504-17.929-164.622-81.496
					c-61.14-99.353-175.353-147.199-258.179-64.229c-81.746,81.888-21.047,274.448,170.198,448.057
					c123.093,140.09,120.449,176.805,97.761,264.067c-15.892,61.122-96.573,215.15-20.782,290.941
					C1563.378,1586.4,1618.601,1664.771,1576.825,1730.649z"/>
				<g>
					<defs>
						<path id="SVGID_00000113343791655263734990000013370640912747209860_" d="M1609.831,1953.133h205.371
							c0,0,81.904-173.587,11.002-224.93c-70.902-51.343-22.01-196.075-4.89-276.272
							c46.453-217.595-193.817-229.038-156.473-513.426c9.932-75.639,54.166-216.565-1.63-285.237
							c-63.567-78.236-125.504-17.929-164.622-81.496c-61.14-99.353-175.353-147.199-258.179-64.229
							c-81.746,81.888-21.047,274.448,170.198,448.057c123.093,140.09,120.449,176.805,97.761,264.067
							c-15.892,61.122-96.573,215.15-20.781,290.942c75.792,75.792,131.014,154.163,89.238,220.04
							C1513.258,1830.889,1609.831,1953.133,1609.831,1953.133z"/>
					</defs>
					<clipPath id="SVGID_00000155125006087408763860000016672852911839211431_">
						<use xlink:href="#SVGID_00000113343791655263734990000013370640912747209860_"  style="overflow:visible;"/>
					</clipPath>
					<g style="clip-path:url(#SVGID_00000155125006087408763860000016672852911839211431_);">
						<path style="fill:#FCFDFE;" d="M1708.241,1931.32l-3.674-0.026c0.19-25.424,0.068-51.026-0.364-76.092
							c-3.195-185.866-23.627-364.705-60.727-531.556c-31.427-141.331-75.226-276.048-130.184-400.415
							c-44.187-99.983-95.79-193.847-153.378-278.978c-40.465-59.815-83.445-114.737-127.747-163.236
							c-7.669-8.394-16.018-16.586-24.091-24.512c-10.883-10.68-22.137-21.727-31.992-33.508l2.819-2.359
							c9.738,11.646,20.926,22.626,31.746,33.244c8.11,7.958,16.495,16.19,24.23,24.656
							c44.424,48.631,87.515,103.691,128.08,163.658c57.71,85.309,109.42,179.364,153.694,279.552
							c55.055,124.584,98.932,259.532,130.412,401.1c37.153,167.092,57.614,346.178,60.812,532.288
							C1708.309,1880.234,1708.432,1905.866,1708.241,1931.32z"/>
						<path style="fill:#FCFDFE;" d="M1574.018,1077.606c-55.777-175.825,52.547-471.721,53.648-474.69l3.447,1.279
							c-1.097,2.956-108.986,297.683-53.592,472.298L1574.018,1077.606z"/>
						<path style="fill:#FCFDFE;" d="M1686.106,1579.414c-23.406-121.236-230.347-240.422-232.435-241.611l1.819-3.19
							c2.103,1.196,210.501,121.229,234.225,244.102L1686.106,1579.414z"/>
						<path style="fill:#FCFDFE;" d="M1693.55,1650.421c-1.068-82.547,41.404-195.406,119.591-317.785
							c1.793-2.808,3.208-5.022,3.412-5.447l1.384,0.666h2.157c0,0.722,0,0.722-3.857,6.759
							c-77.805,121.783-120.071,233.923-119.013,315.762L1693.55,1650.421z"/>
						<path style="fill:#FCFDFE;" d="M1704.244,1884.815c-26.325-84.159-148.851-132.417-150.085-132.895l1.325-3.427
							c1.252,0.484,125.419,49.395,152.267,135.228L1704.244,1884.815z"/>
						<path style="fill:#FCFDFE;" d="M1710.345,1932.365l-3.447-1.279c25.452-68.726,71.405-132.338,140.488-194.47l2.458,2.735
							C1781.215,1801.072,1735.585,1864.205,1710.345,1932.365z"/>
						<path style="fill:#FCFDFE;" d="M1393.115,695.128c-36.344-95.726-52.315-204.571-57.563-240.336
							c-0.923-6.291-1.651-11.257-1.903-12.018l3.486-1.16c0.339,1.015,0.844,4.399,2.053,12.645
							c5.233,35.67,21.16,144.215,57.364,239.565L1393.115,695.128z"/>
						<path style="fill:#FCFDFE;" d="M1474.837,841.323c-57.741-74.124-252.002-97.578-253.956-97.805l0.425-3.651
							c0.493,0.059,49.86,5.919,105.78,20.956c75.294,20.247,125.981,46.571,150.651,78.24L1474.837,841.323z"/>
					</g>
				</g>
			</g>
			<g>
				
					<linearGradient id="SVGID_00000089545620685569444890000013462806911365513867_" gradientUnits="userSpaceOnUse" x1="1060.7887" y1="681.3431" x2="1540.5978" y2="1471.2325">
					<stop  offset="0.0036" style="stop-color:#E38DDD"/>
					<stop  offset="1" style="stop-color:#9571F6"/>
				</linearGradient>
				<path style="fill:url(#SVGID_00000089545620685569444890000013462806911365513867_);" d="M1361.367,1390.767
					c0.815,0.357,1.611,0.746,2.446,1.068c58.689,22.637,120.983,34.028,181.677,46.569c8.176,1.689,16.405,3.106,24.667,4.356
					c10.96-30.648,19.355-75.822-19.948-87.915c-61.037-18.781-61.675-126.395-44.604-164.33
					c21.128-46.952,68.08-157.288-25.823-187.807c-78.174-25.407-133.812-25.823-138.507-126.769
					c-4.695-100.946-59.276-164.33-150.832-159.048c-96.348,5.559-174.308-123.248-253.539-80.992
					c-138.055,73.63-15.26,296.969,151.419,362.701c166.678,65.732,70.304,125.221,65.145,207.761
					c-7.043,112.684,145.55,89.795,185.459,134.399C1352.444,1355.868,1358.937,1373.384,1361.367,1390.767z"/>
				<g>
					<defs>
						<path id="SVGID_00000069365410544857233010000004622857672742978236_" d="M1356.437,1452.857h209.84
							c12.224-29.705,27.832-84.503-16.07-98.012c-61.037-18.781-61.675-126.396-44.604-164.331
							c21.128-46.952,68.08-157.288-25.824-187.807c-78.174-25.407-133.812-25.823-138.507-126.769
							c-4.695-100.946-59.276-164.331-150.832-159.048c-96.348,5.558-174.308-123.248-253.539-80.992
							c-138.055,73.629-15.259,296.969,151.419,362.701c166.678,65.732,70.304,125.222,65.145,207.761
							c-7.043,112.684,145.55,89.795,185.459,134.399C1370.212,1375.726,1363.98,1423.589,1356.437,1452.857z"/>
					</defs>
					<clipPath id="SVGID_00000072972853492238801140000014117176043539323272_">
						<use xlink:href="#SVGID_00000069365410544857233010000004622857672742978236_"  style="overflow:visible;"/>
					</clipPath>
					<g style="clip-path:url(#SVGID_00000072972853492238801140000014117176043539323272_);">
						<path style="fill:#FCFDFE;" d="M1455.669,1419.767c-31.389-159.443-101.237-314.266-201.994-447.73
							c-101.326-134.22-231.239-243.19-375.694-315.126l1.638-3.289c144.961,72.19,275.322,181.529,376.989,316.2
							c101.091,133.906,171.171,289.25,202.666,449.233L1455.669,1419.767z"/>
						<path style="fill:#FCFDFE;" d="M1409.11,1245.033l-3.674-0.013c0.585-132.513,114.234-235.033,115.381-236.055l2.442,2.748
							C1522.124,1012.722,1409.688,1114.188,1409.11,1245.033z"/>
						<path style="fill:#FCFDFE;" d="M1442.178,1359.965c-61.315-114.859-299.64-132.239-302.039-132.404l0.247-3.665
							c2.421,0.161,242.771,17.7,305.035,134.335L1442.178,1359.965z"/>
						<path style="fill:#FCFDFE;" d="M1245.154,961.135c-42.084-98.194,22.18-247.879,22.834-249.382l3.368,1.47
							c-0.648,1.486-64.279,149.734-22.824,246.462L1245.154,961.135z"/>
						<path style="fill:#FCFDFE;" d="M1100.615,806.879c-100.301-62.254-256.823-28.68-258.393-28.331l-0.792-3.589
							c1.588-0.353,159.545-34.253,261.123,28.796L1100.615,806.879z"/>
					</g>
				</g>
			</g>
			<path style="fill:#D8DEE8;" d="M1706.279,1614.137c-0.003,0,1.199,5.872,1.196,5.872
				c-101.739-0.712-224.876-49.747-226.07-50.238c-0.885-0.362,1.21-6.701,1.573-7.586c0.364-0.886,1.379-1.315,2.258-0.946
				c1.189,0.487,119.995,48.725,221.054,49.432c0.957,0.007,1.727,0.788,1.72,1.744
				C1708.004,1613.369,1707.229,1614.137,1706.279,1614.137z"/>
		</g>
		<g>
			<g>
				
					<linearGradient id="SVGID_00000155827898245174729310000013216639854561008017_" gradientUnits="userSpaceOnUse" x1="625.4681" y1="2096.5569" x2="1391.3733" y2="2096.5569">
					<stop  offset="0" style="stop-color:#FF9085"/>
					<stop  offset="1" style="stop-color:#FB6FBB"/>
				</linearGradient>
				<polygon style="fill:url(#SVGID_00000155827898245174729310000013216639854561008017_);" points="1391.373,3120.964 
					625.468,3068.384 625.468,1123.342 1391.373,1072.15 				"/>
				<g>
					<defs>
						<polygon id="SVGID_00000181770353607638794100000009526696241140568708_" points="684.666,2983.369 684.666,1208.465 
							1391.373,1165.597 1391.373,3027.517 						"/>
					</defs>
					
						<use xlink:href="#SVGID_00000181770353607638794100000009526696241140568708_"  style="overflow:visible;opacity:0.61;fill:#FFFFFF;"/>
					<clipPath id="SVGID_00000080923234866290522060000012816140319703659685_">
						<use xlink:href="#SVGID_00000181770353607638794100000009526696241140568708_"  style="overflow:visible;opacity:0.61;"/>
					</clipPath>
					<path style="clip-path:url(#SVGID_00000080923234866290522060000012816140319703659685_);fill:#FFFFFF;" d="M3488.156,1626.552
						l-759.99,20.141c-2.532-376.594-4.62-914.693-0.502-964.632c-0.209,2.541-1.624,15.985-8.924,31.164l-100.687-78.599
						c-10.794,22.64-11.123,41.573-11.997,92.171c-0.497,28.711-0.843,69.92-1.029,122.485
						c-0.313,87.973-0.196,209.39,0.353,360.889c0.929,257.736,2.809,516.964,2.826,519.553l0.572,78.319l260.723-4.385v564.162
						l-491.698-8.441l-293.771-530.534l-403.544,6.482L2222.49,949.98l-85.728-94.52l-595.848,982.109l-256.4,4.118
						c0.36-89.072,0.951-247.414,1.305-405.099c0.313-139.281,0.38-250.789,0.202-331.421
						c-0.357-160.796-1.012-162.632-4.65-172.825l-47.898,38.132c-1.912-5.382-2.331-9.94-2.395-10.799
						c2.509,33.456,1.388,521.799-0.109,882.872l-267.749,4.301C914.592,1587.26,800.901,980.709,797.077,963.95l-89.179,51.071
						l-0.217-0.995c4.857,23.455,105.347,562.746,172.467,923.605l9.663,51.941l561.054-3.58l-348.562,574.52l-684.072-22.029
						v136.979l729.232,30.543l441.326-720.892l439.383-2.804l205.589,374.599l-543.181-9.324v1064.085l56.899,4.903v-988.306
						l531.96,11.871l536.472,977.495l98.76-88.698l-490.361-885.564l511.14,11.407v-652.228l552.706-9.296V1626.552z"/>
				</g>
			</g>
			<g>
				
					<linearGradient id="SVGID_00000130627054882635016430000004496332691339092103_" gradientUnits="userSpaceOnUse" x1="2174.3098" y1="1618.5745" x2="2987.9272" y2="3714.2527">
					<stop  offset="0" style="stop-color:#FF9085"/>
					<stop  offset="1" style="stop-color:#FB6FBB"/>
				</linearGradient>
				<polygon style="fill:url(#SVGID_00000130627054882635016430000004496332691339092103_);" points="1913.771,3009.201 
					2807.037,3009.201 2807.037,1186.614 1913.771,1186.614 				"/>
				<g>
					<defs>
						
							<rect id="SVGID_00000086685804005052623140000011872711669230949000_" x="1495.526" y="1686.854" transform="matrix(-1.836970e-16 1 -1 -1.836970e-16 4421.4644 -226.9169)" width="1657.328" height="820.839"/>
					</defs>
					
						<use xlink:href="#SVGID_00000086685804005052623140000011872711669230949000_"  style="overflow:visible;opacity:0.33;fill:#FFFFFF;"/>
					<clipPath id="SVGID_00000042013656846969309840000001088549500509151126_">
						<use xlink:href="#SVGID_00000086685804005052623140000011872711669230949000_"  style="overflow:visible;opacity:0.33;"/>
					</clipPath>
					<path style="clip-path:url(#SVGID_00000042013656846969309840000001088549500509151126_);fill:#FFFFFF;" d="M3059.383,1728.378
						h-678.979c-2.367-308.089-4.319-748.365-0.469-788.93c-0.196,2.064-1.518,12.962-8.346,24.88l-94.796-71.616
						c-10.232,17.864-10.543,33.44-11.373,75.067c-0.472,23.623-0.799,57.555-0.976,100.855
						c-0.297,72.471-0.186,172.524,0.335,297.383c0.882,212.395,2.664,426.012,2.681,428.145l0.542,64.529h243.378v457.455H2045.81
						l-291.975-447.261H1334.61l558.178-739.661l-85.748-85.346l-622.583,825.007H901.346c0.404-79.841,1.068-221.767,1.465-363.102
						c0.351-124.834,0.427-224.781,0.226-297.066c-0.401-144.155-1.136-145.846-5.222-155.233l-53.986,30.998
						c-2.162-4.97-2.636-9.098-2.709-9.875c2.837,30.263,1.57,469.489-0.124,794.278H532.633
						c-57.213-239.305-192.474-804.709-197.059-820.505l-107.646,41.208l-0.264-0.943c5.896,22.194,127.023,528.048,206.999,862.646
						l11.453,47.908h640.001l-391.913,519.338h-825.288v130.313h877.099l490.254-649.651h460.816l206.906,316.948h-558.629v928.784
						h60.356v-859.469h543.523l512.739,785.437l90.788-78.168l-461.709-707.269h480.674v-526.77h487.649V1728.378z"/>
				</g>
			</g>
			<g>
				
					<linearGradient id="SVGID_00000124860180857864741200000011487277056055699609_" gradientUnits="userSpaceOnUse" x1="1178.464" y1="2095.2664" x2="2145.9653" y2="2101.1301">
					<stop  offset="0" style="stop-color:#FF9085"/>
					<stop  offset="1" style="stop-color:#FB6FBB"/>
				</linearGradient>
				<polygon style="fill:url(#SVGID_00000124860180857864741200000011487277056055699609_);" points="1913.771,3009.201 
					1391.373,3120.964 1391.373,1072.15 1913.771,1186.614 				"/>
				<g>
					<defs>
						<polygon id="SVGID_00000010293426484402766510000018027679381568810913_" points="1391.373,3027.517 1391.373,1165.597 
							1913.771,1269.742 1913.771,2926.073 						"/>
					</defs>
					
						<use xlink:href="#SVGID_00000010293426484402766510000018027679381568810913_"  style="overflow:visible;opacity:0.33;fill:#FFFFFF;"/>
					<clipPath id="SVGID_00000121981464761776186560000011595125754628107921_">
						<use xlink:href="#SVGID_00000010293426484402766510000018027679381568810913_"  style="overflow:visible;opacity:0.33;"/>
					</clipPath>
					<path style="clip-path:url(#SVGID_00000121981464761776186560000011595125754628107921_);fill:#D8DEE8;" d="M2435.838,1776.314
						l-292.543-26.383c-1.101-291.291-2.01-707.665-0.218-745.517c-0.091,1.925-0.706,12.054-3.885,22.455l-44.671-80.632
						c-4.882,15.699-5.03,30.573-5.427,70.331c-0.225,22.565-0.382,55.026-0.467,96.481c-0.142,69.385-0.089,165.238,0.16,284.884
						c0.421,203.493,1.273,408.146,1.281,410.189l0.259,61.804l112.96,6.692v425.73l-221.925,10.96l-152.473-448.477
						l-239.655-13.617l313.594-723.319l-45.324-96.971l-360.747,815.036l-185.038-10.514c0.275-91.187,0.726-253.259,0.996-414.651
						c0.239-142.534,0.29-256.671,0.154-339.254c-0.272-164.706-0.772-166.761-3.551-178.179l-37.015,26.431
						c-1.494-6.089-1.822-10.925-1.872-11.833c1.961,35.335,1.086,541.075-0.086,915.135l-223.027-12.672
						C1003.663,1527.063,897.41,813.467,893.73,792.942l-87.89,29.906l-0.219-1.244c4.891,29.179,103.412,678.75,166.484,1095.327
						l8.908,58.823l453.105,11.724l-267.445,604.239l-676.585,65.932v174.29l713.679-91.63l325.323-750.373l268.85,6.957
						l110.738,320.006l-312.964,15.457v998.372l36.036-9.727V2404.49l300.395-19.78l248.729,718.768l40.996-82.748l-217.843-640.753
						l226.299-14.901v-486.856l205.512,12.175V1776.314z"/>
				</g>
			</g>
			<g>
				
					<linearGradient id="SVGID_00000017488845413456848940000013344733906743260304_" gradientUnits="userSpaceOnUse" x1="763.7289" y1="2847.0989" x2="825.8718" y2="1329.0154">
					<stop  offset="0" style="stop-color:#FFC444"/>
					<stop  offset="0.9964" style="stop-color:#F36F56"/>
				</linearGradient>
				<path style="fill:url(#SVGID_00000017488845413456848940000013344733906743260304_);" d="M827.924,1385.603
					c-5.54,0-10.483-3.918-11.58-9.56l-6.441-33.126c-1.246-6.403,2.936-12.602,9.339-13.847c6.39-1.259,12.6,2.936,13.847,9.339
					l6.441,33.126c1.246,6.403-2.936,12.602-9.339,13.847C829.43,1385.531,828.672,1385.603,827.924,1385.603z"/>
				
					<linearGradient id="SVGID_00000088100068829522762640000008328435644229419426_" gradientUnits="userSpaceOnUse" x1="833.1443" y1="2728.2456" x2="889.9426" y2="1340.7266">
					<stop  offset="0" style="stop-color:#FFC444"/>
					<stop  offset="0.9964" style="stop-color:#F36F56"/>
				</linearGradient>
				<path style="fill:url(#SVGID_00000088100068829522762640000008328435644229419426_);" d="M913.815,1827.366
					c-5.54,0-10.483-3.918-11.58-9.56l-14.315-73.627c-1.246-6.403,2.936-12.602,9.339-13.847c6.388-1.255,12.6,2.936,13.847,9.339
					l14.315,73.626c1.246,6.403-2.936,12.602-9.339,13.847C915.321,1827.293,914.563,1827.366,913.815,1827.366z M885.184,1680.113
					c-5.54,0-10.484-3.918-11.58-9.56l-14.314-73.627c-1.246-6.403,2.936-12.602,9.339-13.847c6.39-1.252,12.603,2.933,13.847,9.339
					l14.314,73.627c1.246,6.403-2.936,12.602-9.339,13.847C886.69,1680.04,885.932,1680.113,885.184,1680.113z M856.555,1532.856
					c-5.54,0-10.483-3.918-11.58-9.56l-14.315-73.626c-1.246-6.403,2.936-12.602,9.339-13.847
					c6.395-1.259,12.602,2.936,13.848,9.339l14.315,73.627c1.246,6.403-2.936,12.602-9.339,13.847
					C858.061,1532.784,857.303,1532.856,856.555,1532.856z"/>
				
					<linearGradient id="SVGID_00000136408479181381421490000012000191130065239741_" gradientUnits="userSpaceOnUse" x1="909.463" y1="2852.8657" x2="971.5997" y2="1334.9336">
					<stop  offset="0" style="stop-color:#FFC444"/>
					<stop  offset="0.9964" style="stop-color:#F36F56"/>
				</linearGradient>
				<path style="fill:url(#SVGID_00000136408479181381421490000012000191130065239741_);" d="M968.328,1934.118h-33.745
					c-5.653,0-10.514-4.007-11.593-9.557l-6.441-33.126c-1.246-6.403,2.936-12.602,9.339-13.847
					c6.387-1.252,12.6,2.933,13.847,9.339l4.584,23.569h24.009c6.523,0,11.811,5.289,11.811,11.811
					C980.139,1928.829,974.851,1934.118,968.328,1934.118z"/>
				
					<linearGradient id="SVGID_00000132068292484596399930000017090937026822902717_" gradientUnits="userSpaceOnUse" x1="1338.929" y1="2848.0564" x2="1399.5592" y2="1366.9261">
					<stop  offset="0" style="stop-color:#FFC444"/>
					<stop  offset="0.9964" style="stop-color:#F36F56"/>
				</linearGradient>
				<path style="fill:url(#SVGID_00000132068292484596399930000017090937026822902717_);" d="M1722.476,1934.118h-62.846
					c-6.523,0-11.811-5.289-11.811-11.811c0-6.522,5.288-11.811,11.811-11.811h62.846c6.523,0,11.811,5.289,11.811,11.811
					C1734.287,1928.829,1728.999,1934.118,1722.476,1934.118z M1596.785,1934.118h-62.846c-6.523,0-11.811-5.289-11.811-11.811
					c0-6.522,5.287-11.811,11.811-11.811h62.846c6.523,0,11.811,5.289,11.811,11.811
					C1608.596,1928.829,1603.308,1934.118,1596.785,1934.118z M1471.094,1934.118h-62.846c-6.523,0-11.811-5.289-11.811-11.811
					c0-6.522,5.288-11.811,11.811-11.811h62.846c6.523,0,11.811,5.289,11.811,11.811
					C1482.905,1928.829,1477.617,1934.118,1471.094,1934.118z M1345.403,1934.118h-62.847c-6.523,0-11.811-5.289-11.811-11.811
					c0-6.522,5.288-11.811,11.811-11.811h62.847c6.523,0,11.811,5.289,11.811,11.811
					C1357.214,1928.829,1351.926,1934.118,1345.403,1934.118z M1219.71,1934.118h-62.846c-6.523,0-11.811-5.289-11.811-11.811
					c0-6.522,5.287-11.811,11.811-11.811h62.846c6.523,0,11.811,5.289,11.811,11.811
					C1231.521,1928.829,1226.233,1934.118,1219.71,1934.118z M1094.019,1934.118h-62.846c-6.523,0-11.811-5.289-11.811-11.811
					c0-6.522,5.288-11.811,11.811-11.811h62.846c6.523,0,11.811,5.289,11.811,11.811
					C1105.83,1928.829,1100.542,1934.118,1094.019,1934.118z"/>
				
					<linearGradient id="SVGID_00000119833356968161312870000001065479095118200749_" gradientUnits="userSpaceOnUse" x1="1770.073" y1="2888.0471" x2="1832.2061" y2="1370.2037">
					<stop  offset="0" style="stop-color:#FFC444"/>
					<stop  offset="0.9964" style="stop-color:#F36F56"/>
				</linearGradient>
				<path style="fill:url(#SVGID_00000119833356968161312870000001065479095118200749_);" d="M1832.629,1965.023
					c-4.546,0-8.88-2.64-10.822-7.069l-10.456-23.836h-26.029c-6.523,0-11.811-5.289-11.811-11.811
					c0-6.522,5.287-11.811,11.811-11.811h33.745c4.688,0,8.932,2.771,10.816,7.065l13.556,30.901
					c2.622,5.975-0.097,12.941-6.07,15.561C1835.824,1964.703,1834.212,1965.023,1832.629,1965.023z"/>
				
					<linearGradient id="SVGID_00000039835118680822023400000012131575633506097854_" gradientUnits="userSpaceOnUse" x1="2054.3464" y1="2868.5251" x2="2114.2966" y2="1404.0021">
					<stop  offset="0" style="stop-color:#FFC444"/>
					<stop  offset="0.9964" style="stop-color:#F36F56"/>
				</linearGradient>
				<path style="fill:url(#SVGID_00000039835118680822023400000012131575633506097854_);" d="M2285.443,2822.543
					c-4.035,0-7.967-2.07-10.173-5.793l-35.376-59.697c-3.325-5.612-1.471-12.855,4.141-16.18
					c5.607-3.332,12.855-1.477,16.182,4.139l35.376,59.697c3.325,5.612,1.471,12.855-4.141,16.18
					C2289.564,2822.01,2287.489,2822.543,2285.443,2822.543z M2214.688,2703.153c-4.035,0-7.967-2.07-10.171-5.793l-35.376-59.694
					c-3.327-5.612-1.473-12.855,4.139-16.18c5.609-3.332,12.854-1.476,16.181,4.139l35.376,59.694
					c3.327,5.612,1.473,12.855-4.139,16.18C2218.809,2702.619,2216.735,2703.153,2214.688,2703.153z M2143.934,2583.766
					c-4.035,0-7.965-2.07-10.171-5.793l-35.378-59.694c-3.327-5.612-1.473-12.855,4.137-16.18
					c5.615-3.332,12.855-1.476,16.182,4.139l35.378,59.694c3.327,5.612,1.473,12.855-4.137,16.18
					C2148.054,2583.232,2145.98,2583.766,2143.934,2583.766z M2073.179,2464.379c-4.035,0-7.967-2.07-10.171-5.793l-35.378-59.697
					c-3.327-5.612-1.473-12.855,4.139-16.18c5.61-3.335,12.859-1.473,16.181,4.139l35.38,59.697
					c3.325,5.612,1.471,12.855-4.141,16.181C2077.3,2463.845,2075.225,2464.379,2073.179,2464.379z M2002.423,2344.989
					c-4.035,0-7.967-2.07-10.172-5.793l-12.038-20.313c-0.246-0.412-0.465-0.837-0.656-1.275l-18.387-41.921
					c-2.62-5.975,0.097-12.941,6.072-15.561c5.978-2.63,12.939,0.099,15.559,6.07l18.099,41.262l11.671,19.697
					c3.327,5.612,1.473,12.855-4.139,16.18C2006.544,2344.455,2004.469,2344.989,2002.423,2344.989z M1944.12,2219.209
					c-4.546,0-8.88-2.639-10.822-7.069l-27.873-63.546c-2.62-5.974,0.097-12.941,6.072-15.561c5.978-2.627,12.941,0.099,15.559,6.07
					l27.873,63.546c2.62,5.975-0.097,12.941-6.072,15.561C1947.313,2218.889,1945.703,2219.209,1944.12,2219.209z
					 M1888.374,2092.117c-4.546,0-8.88-2.64-10.822-7.069l-27.873-63.546c-2.62-5.975,0.097-12.941,6.072-15.561
					c5.976-2.63,12.941,0.099,15.559,6.07l27.873,63.546c2.62,5.975-0.097,12.941-6.072,15.561
					C1891.568,2091.798,1889.958,2092.117,1888.374,2092.117z"/>
				
					<linearGradient id="SVGID_00000051366773371615763110000003372886104524070309_" gradientUnits="userSpaceOnUse" x1="2328.3491" y1="2910.8767" x2="2390.4893" y2="1392.8643">
					<stop  offset="0" style="stop-color:#FFC444"/>
					<stop  offset="0.9964" style="stop-color:#F36F56"/>
				</linearGradient>
				<path style="fill:url(#SVGID_00000051366773371615763110000003372886104524070309_);" d="M2338.025,2911.263
					c-4.035,0-7.967-2.07-10.171-5.793l-17.204-29.029c-3.327-5.612-1.473-12.855,4.139-16.181c5.61-3.332,12.855-1.476,16.18,4.139
					l17.204,29.029c3.327,5.612,1.473,12.856-4.139,16.181C2342.146,2910.729,2340.071,2911.263,2338.025,2911.263z"/>
			</g>
		</g>
		<g>
			
				<linearGradient id="SVGID_00000062168694703876223230000005782528402203924401_" gradientUnits="userSpaceOnUse" x1="803.8382" y1="1019.8262" x2="947.67" y2="1390.3014">
				<stop  offset="0" style="stop-color:#AA80F9"/>
				<stop  offset="0.9964" style="stop-color:#6165D7"/>
			</linearGradient>
			<path style="fill:url(#SVGID_00000062168694703876223230000005782528402203924401_);" d="M965.084,1071.678
				c0,61.03-85.5,172.396-124.193,219.67c-9.629,11.764-27.628,11.764-37.257,0c-38.693-47.274-124.193-158.641-124.193-219.67
				c0-78.878,63.943-142.821,142.821-142.821S965.084,992.8,965.084,1071.678z"/>
			<circle style="fill:#FFFFFF;" cx="822.263" cy="1071.678" r="79.654"/>
			
				<linearGradient id="SVGID_00000022552548875913421830000016445974061707918509_" gradientUnits="userSpaceOnUse" x1="859.6979" y1="1304.0117" x2="766.2829" y2="1445.8025">
				<stop  offset="0" style="stop-color:#AA80F9"/>
				<stop  offset="0.9964" style="stop-color:#6165D7"/>
			</linearGradient>
			<circle style="fill:url(#SVGID_00000022552548875913421830000016445974061707918509_);" cx="822.263" cy="1360.833" r="29.192"/>
			<g>
				<g>
					<g>
						
							<linearGradient id="SVGID_00000106149794858269551530000006096922540909736890_" gradientUnits="userSpaceOnUse" x1="767.8353" y1="1033.338" x2="828.572" y2="1240.0243">
							<stop  offset="0" style="stop-color:#AA80F9"/>
							<stop  offset="0.9964" style="stop-color:#6165D7"/>
						</linearGradient>
						<path style="fill:url(#SVGID_00000106149794858269551530000006096922540909736890_);" d="M772.023,1067.289h11.579H772.023z"
							/>
						
							<linearGradient id="SVGID_00000137822099570531703690000005256304827697029295_" gradientUnits="userSpaceOnUse" x1="767.7218" y1="1033.371" x2="828.4591" y2="1240.0596">
							<stop  offset="0" style="stop-color:#AA80F9"/>
							<stop  offset="0.9964" style="stop-color:#6165D7"/>
						</linearGradient>
						<path style="fill:url(#SVGID_00000137822099570531703690000005256304827697029295_);" d="M777.812,1073.078
							c3.197,0,5.789-2.592,5.789-5.79h-11.579C772.023,1070.486,774.615,1073.078,777.812,1073.078z"/>
					</g>
					
						<linearGradient id="SVGID_00000072254566761645139600000010690104290191219608_" gradientUnits="userSpaceOnUse" x1="811.4303" y1="1015.455" x2="920.696" y2="1387.2853">
						<stop  offset="0" style="stop-color:#AA80F9"/>
						<stop  offset="0.9964" style="stop-color:#6165D7"/>
					</linearGradient>
					<polygon style="fill:url(#SVGID_00000072254566761645139600000010690104290191219608_);" points="869.411,1030.944 
						777.865,1030.944 772.023,1063.172 875.728,1063.172 					"/>
					<g>
						
							<linearGradient id="SVGID_00000041289672794653352980000003381896977588468669_" gradientUnits="userSpaceOnUse" x1="779.9637" y1="1029.7734" x2="840.7009" y2="1236.4615">
							<stop  offset="0" style="stop-color:#AA80F9"/>
							<stop  offset="0.9964" style="stop-color:#6165D7"/>
						</linearGradient>
						<path style="fill:url(#SVGID_00000041289672794653352980000003381896977588468669_);" d="M785.198,1067.289h11.579H785.198z"
							/>
						
							<linearGradient id="SVGID_00000003784989561586457930000017582017138984930488_" gradientUnits="userSpaceOnUse" x1="779.8503" y1="1029.8069" x2="840.5876" y2="1236.4955">
							<stop  offset="0" style="stop-color:#AA80F9"/>
							<stop  offset="0.9964" style="stop-color:#6165D7"/>
						</linearGradient>
						<path style="fill:url(#SVGID_00000003784989561586457930000017582017138984930488_);" d="M790.988,1073.078
							c3.197,0,5.789-2.592,5.789-5.79h-11.579C785.198,1070.486,787.79,1073.078,790.988,1073.078z"/>
					</g>
					<g>
						
							<linearGradient id="SVGID_00000077316076743973705480000012548351708293844380_" gradientUnits="userSpaceOnUse" x1="792.0922" y1="1026.2094" x2="852.8293" y2="1232.8976">
							<stop  offset="0" style="stop-color:#AA80F9"/>
							<stop  offset="0.9964" style="stop-color:#6165D7"/>
						</linearGradient>
						<path style="fill:url(#SVGID_00000077316076743973705480000012548351708293844380_);" d="M798.374,1067.289h11.579H798.374z"
							/>
						
							<linearGradient id="SVGID_00000132780131658207645820000013565277873828566940_" gradientUnits="userSpaceOnUse" x1="791.9788" y1="1026.2428" x2="852.7161" y2="1232.9315">
							<stop  offset="0" style="stop-color:#AA80F9"/>
							<stop  offset="0.9964" style="stop-color:#6165D7"/>
						</linearGradient>
						<path style="fill:url(#SVGID_00000132780131658207645820000013565277873828566940_);" d="M804.164,1073.078
							c3.197,0,5.789-2.592,5.789-5.79h-11.579C798.374,1070.486,800.966,1073.078,804.164,1073.078z"/>
					</g>
					<g>
						
							<linearGradient id="SVGID_00000055691830861695302590000003942879777606878632_" gradientUnits="userSpaceOnUse" x1="804.2208" y1="1022.6458" x2="864.9575" y2="1229.3322">
							<stop  offset="0" style="stop-color:#AA80F9"/>
							<stop  offset="0.9964" style="stop-color:#6165D7"/>
						</linearGradient>
						<path style="fill:url(#SVGID_00000055691830861695302590000003942879777606878632_);" d="M811.55,1067.289h11.579H811.55z"/>
						
							<linearGradient id="SVGID_00000009562356671596181310000016383129179214521270_" gradientUnits="userSpaceOnUse" x1="804.1073" y1="1022.6787" x2="864.8445" y2="1229.3671">
							<stop  offset="0" style="stop-color:#AA80F9"/>
							<stop  offset="0.9964" style="stop-color:#6165D7"/>
						</linearGradient>
						<path style="fill:url(#SVGID_00000009562356671596181310000016383129179214521270_);" d="M817.339,1073.078
							c3.198,0,5.789-2.592,5.789-5.79H811.55C811.55,1070.486,814.142,1073.078,817.339,1073.078z"/>
					</g>
					<g>
						
							<linearGradient id="SVGID_00000101796624659064875960000000592420362298603961_" gradientUnits="userSpaceOnUse" x1="852.728" y1="1008.3915" x2="913.4647" y2="1215.0779">
							<stop  offset="0" style="stop-color:#AA80F9"/>
							<stop  offset="0.9964" style="stop-color:#6165D7"/>
						</linearGradient>
						<path style="fill:url(#SVGID_00000101796624659064875960000000592420362298603961_);" d="M875.825,1067.289h-11.579H875.825z"
							/>
						
							<linearGradient id="SVGID_00000145766888643851531390000001281305290404927366_" gradientUnits="userSpaceOnUse" x1="852.6144" y1="1008.4244" x2="913.3517" y2="1215.1127">
							<stop  offset="0" style="stop-color:#AA80F9"/>
							<stop  offset="0.9964" style="stop-color:#6165D7"/>
						</linearGradient>
						<path style="fill:url(#SVGID_00000145766888643851531390000001281305290404927366_);" d="M870.035,1073.078
							c-3.197,0-5.789-2.592-5.789-5.79h11.579C875.825,1070.486,873.233,1073.078,870.035,1073.078z"/>
					</g>
					<g>
						
							<linearGradient id="SVGID_00000041981568883266114320000003295954157927453631_" gradientUnits="userSpaceOnUse" x1="840.5994" y1="1011.9554" x2="901.3362" y2="1218.6422">
							<stop  offset="0" style="stop-color:#AA80F9"/>
							<stop  offset="0.9964" style="stop-color:#6165D7"/>
						</linearGradient>
						<path style="fill:url(#SVGID_00000041981568883266114320000003295954157927453631_);" d="M862.649,1067.289H851.07H862.649z"
							/>
						
							<linearGradient id="SVGID_00000132069957100064311930000011738346266160350620_" gradientUnits="userSpaceOnUse" x1="840.486" y1="1011.9885" x2="901.2232" y2="1218.6769">
							<stop  offset="0" style="stop-color:#AA80F9"/>
							<stop  offset="0.9964" style="stop-color:#6165D7"/>
						</linearGradient>
						<path style="fill:url(#SVGID_00000132069957100064311930000011738346266160350620_);" d="M856.86,1073.078
							c-3.197,0-5.789-2.592-5.789-5.79h11.579C862.649,1070.486,860.057,1073.078,856.86,1073.078z"/>
					</g>
					<g>
						
							<linearGradient id="SVGID_00000054239672059579387150000004059645142486974649_" gradientUnits="userSpaceOnUse" x1="828.4709" y1="1015.5193" x2="889.2081" y2="1222.2075">
							<stop  offset="0" style="stop-color:#AA80F9"/>
							<stop  offset="0.9964" style="stop-color:#6165D7"/>
						</linearGradient>
						<path style="fill:url(#SVGID_00000054239672059579387150000004059645142486974649_);" d="M849.473,1067.289h-11.579H849.473z"
							/>
						
							<linearGradient id="SVGID_00000013871302401310429390000015330575165463814289_" gradientUnits="userSpaceOnUse" x1="828.3574" y1="1015.5524" x2="889.0947" y2="1222.2411">
							<stop  offset="0" style="stop-color:#AA80F9"/>
							<stop  offset="0.9964" style="stop-color:#6165D7"/>
						</linearGradient>
						<path style="fill:url(#SVGID_00000013871302401310429390000015330575165463814289_);" d="M843.684,1073.078
							c-3.197,0-5.789-2.592-5.789-5.79h11.579C849.473,1070.486,846.881,1073.078,843.684,1073.078z"/>
					</g>
					<g>
						
							<linearGradient id="SVGID_00000029766091084947145470000016108080830268496024_" gradientUnits="userSpaceOnUse" x1="816.3424" y1="1019.0833" x2="877.0796" y2="1225.7715">
							<stop  offset="0" style="stop-color:#AA80F9"/>
							<stop  offset="0.9964" style="stop-color:#6165D7"/>
						</linearGradient>
						<path style="fill:url(#SVGID_00000029766091084947145470000016108080830268496024_);" d="M836.297,1067.289h-11.579H836.297z"
							/>
						
							<linearGradient id="SVGID_00000180360355326496236200000003337672819171723454_" gradientUnits="userSpaceOnUse" x1="816.2289" y1="1019.1165" x2="876.9663" y2="1225.8053">
							<stop  offset="0" style="stop-color:#AA80F9"/>
							<stop  offset="0.9964" style="stop-color:#6165D7"/>
						</linearGradient>
						<path style="fill:url(#SVGID_00000180360355326496236200000003337672819171723454_);" d="M830.508,1073.078
							c-3.197,0-5.789-2.592-5.789-5.79h11.579C836.297,1070.486,833.705,1073.078,830.508,1073.078z"/>
					</g>
				</g>
				
					<linearGradient id="SVGID_00000078012405207832669640000000867839753325906846_" gradientUnits="userSpaceOnUse" x1="802.3188" y1="1023.2045" x2="863.0558" y2="1229.8921">
					<stop  offset="0" style="stop-color:#AA80F9"/>
					<stop  offset="0.9964" style="stop-color:#6165D7"/>
				</linearGradient>
				<path style="fill:url(#SVGID_00000078012405207832669640000000867839753325906846_);" d="M777.839,1075.31v42.833h92.17v-42.833
					H777.839z M856.543,1108.162h-65.239v-23.703h65.239V1108.162z"/>
			</g>
			<g style="opacity:0.3;">
				
					<linearGradient id="SVGID_00000002362994459175862020000001757455195983307156_" gradientUnits="userSpaceOnUse" x1="752.3371" y1="1039.8207" x2="896.1692" y2="1410.2966">
					<stop  offset="0" style="stop-color:#AA80F9"/>
					<stop  offset="0.9964" style="stop-color:#6165D7"/>
				</linearGradient>
				<path style="fill:url(#SVGID_00000002362994459175862020000001757455195983307156_);" d="M821.632,1232.708
					c9.062-59.673,48.467-78.773,41.703-135.118c-7.8-64.981-65.337-82.289-66.725-140.123c-0.224-9.311,1.043-18.289,3.432-26.887
					c-68.324,10.674-120.601,69.779-120.601,141.098c0,61.03,85.5,172.396,124.193,219.67c5.667,6.924,14.234,9.768,22.288,8.541
					C818.998,1273.753,818.788,1251.434,821.632,1232.708z"/>
			</g>
		</g>
		<g>
			
				<linearGradient id="SVGID_00000043457795046752579510000004005149932693628330_" gradientUnits="userSpaceOnUse" x1="1771.4752" y1="1200.1501" x2="2508.2095" y2="1696.5319">
				<stop  offset="0" style="stop-color:#FFC444"/>
				<stop  offset="0.9964" style="stop-color:#F36F56"/>
			</linearGradient>
			<path style="fill:url(#SVGID_00000043457795046752579510000004005149932693628330_);" d="M3154.355,1479.571
				c0,313.853-439.693,886.567-638.677,1129.682c-49.517,60.499-142.082,60.499-191.599,0
				c-198.985-243.114-638.678-815.828-638.678-1129.682c0-405.641,328.837-734.477,734.477-734.477
				S3154.355,1073.93,3154.355,1479.571z"/>
			
				<linearGradient id="SVGID_00000147924762683288119700000009623560560825435031_" gradientUnits="userSpaceOnUse" x1="1155.3569" y1="2114.6021" x2="1892.0917" y2="2610.9841">
				<stop  offset="0" style="stop-color:#FFC444"/>
				<stop  offset="0.9964" style="stop-color:#F36F56"/>
			</linearGradient>
			
				<circle style="fill:url(#SVGID_00000147924762683288119700000009623560560825435031_);" cx="2419.878" cy="2966.585" r="150.125"/>
			
				<linearGradient id="SVGID_00000023994257767779788340000010329207031627977898_" gradientUnits="userSpaceOnUse" x1="2305.2498" y1="1212.9169" x2="3044.9224" y2="3118.1313">
				<stop  offset="0" style="stop-color:#FFC444"/>
				<stop  offset="0.9964" style="stop-color:#F36F56"/>
			</linearGradient>
			<path style="fill:url(#SVGID_00000023994257767779788340000010329207031627977898_);" d="M3134.478,1479.571
				c0,313.853-439.693,886.567-638.677,1129.682c-49.517,60.499-142.082,60.499-191.599,0
				c-198.985-243.114-638.678-815.828-638.678-1129.682c0-405.641,328.837-734.477,734.477-734.477
				S3134.478,1073.93,3134.478,1479.571z"/>
			<circle style="fill:#FFFFFF;" cx="2400.001" cy="1479.571" r="409.628"/>
			
				<linearGradient id="SVGID_00000033332265202726505730000012397265745155462296_" gradientUnits="userSpaceOnUse" x1="2592.5151" y1="2674.376" x2="2112.1172" y2="3403.5527">
				<stop  offset="0" style="stop-color:#FFC444"/>
				<stop  offset="0.9964" style="stop-color:#F36F56"/>
			</linearGradient>
			
				<circle style="fill:url(#SVGID_00000033332265202726505730000012397265745155462296_);" cx="2400.001" cy="2966.585" r="150.125"/>
			<g style="opacity:0.5;">
				<path style="fill:#FFFFFF;" d="M2396.756,2307.688c46.6-306.875,249.245-405.099,214.464-694.863
					c-40.114-334.175-336.002-423.18-343.142-720.599c-1.15-47.883,5.366-94.056,17.651-138.269
					c-351.365,54.892-620.205,358.846-620.205,725.614c0,313.853,439.693,886.568,638.677,1129.682
					c29.145,35.61,73.203,50.235,114.621,43.924C2383.211,2518.766,2382.133,2403.988,2396.756,2307.688z"/>
			</g>
			<g>
				<g>
					
						<linearGradient id="SVGID_00000171701961214151595030000016535646901006816690_" gradientUnits="userSpaceOnUse" x1="2343.3821" y1="1178.3439" x2="2867.6997" y2="2962.5923">
						<stop  offset="0" style="stop-color:#AA80F9"/>
						<stop  offset="0.9964" style="stop-color:#6165D7"/>
					</linearGradient>
					<polygon style="fill:url(#SVGID_00000171701961214151595030000016535646901006816690_);" points="2407.101,1186.614 
						2117.314,1394.261 2696.349,1394.261 					"/>
				</g>
				
					<linearGradient id="SVGID_00000087394906772860133890000008221998954947013046_" gradientUnits="userSpaceOnUse" x1="2269.4998" y1="1106.6873" x2="2656.332" y2="2423.0747">
					<stop  offset="0" style="stop-color:#AA80F9"/>
					<stop  offset="0.9964" style="stop-color:#6165D7"/>
				</linearGradient>
				<path style="fill:url(#SVGID_00000087394906772860133890000008221998954947013046_);" d="M2149.789,1427.906v294.075h514.625
					v-294.075H2149.789z M2379.337,1605.448h-154.364v-114.73h154.364V1605.448z M2575.059,1691.259h-113.505v-200.54h113.505
					V1691.259z"/>
			</g>
		</g>
		<g>
			
				<linearGradient id="SVGID_00000137114983930656730450000004404103778102892201_" gradientUnits="userSpaceOnUse" x1="-923.7569" y1="1989.6678" x2="-873.3827" y2="2105.6084" gradientTransform="matrix(-1 0 0 1 1015.0479 0)">
				<stop  offset="0" style="stop-color:#FFC444"/>
				<stop  offset="0.9964" style="stop-color:#F36F56"/>
			</linearGradient>
			<path style="fill:url(#SVGID_00000137114983930656730450000004404103778102892201_);" d="M1898.634,2070.303
				c0,0,9.864-51.51,19.727-66.853c9.864-15.343,28.266-25.207,28.266-25.207s3.838,6.306-8.378,19.593
				c-12.216,13.286-2.031,14.6,0,18.875c2.031,4.275-2.352,19.618-11.12,25.098c-8.768,5.48-12.056,35.354-12.056,35.354
				L1898.634,2070.303z"/>
			
				<linearGradient id="SVGID_00000085936412166990850470000012276687040020875169_" gradientUnits="userSpaceOnUse" x1="-794.9321" y1="2072.9602" x2="-590.5828" y2="2543.2886" gradientTransform="matrix(-1 0 0 1 1015.0479 0)">
				<stop  offset="0" style="stop-color:#AA80F9"/>
				<stop  offset="0.9964" style="stop-color:#6165D7"/>
			</linearGradient>
			<path style="fill:url(#SVGID_00000085936412166990850470000012276687040020875169_);" d="M1927.13,2063.727
				c-10.594-1.826-21.189-3.653-31.783-5.48c-37.917,70.296-82.342,115.481-112.589,141.71
				c-35.743,30.995-58.819,51.006-96.737,61.041c-56.017,14.825-104.404-2.578-110.691,13.152
				c-3.074,7.691,7.59,16.016,24.659,36.44c49.707,59.476,45.009,91.452,72.333,100.28c22.576,7.293,45.298-8.395,83.841-35.893
				c35.062-25.015,79.022-56.377,116.171-116.171C1922.159,2178.606,1927.15,2099.697,1927.13,2063.727z"/>
			
				<linearGradient id="SVGID_00000093150484710153478750000016420826493558992030_" gradientUnits="userSpaceOnUse" x1="2120.6228" y1="2550.7776" x2="2188.4924" y2="2279.2988" gradientTransform="matrix(-1 0 0 1 3624.1272 0)">
				<stop  offset="0" style="stop-color:#AA80F9"/>
				<stop  offset="0.9964" style="stop-color:#6165D7"/>
			</linearGradient>
			<path style="fill:url(#SVGID_00000093150484710153478750000016420826493558992030_);" d="M1460.258,2280.542
				c-5.15,1.946-83.702,33.185-99.848,115.17c-1.304,6.623-13.925,77.061,33.844,126.822
				c53.564,55.798,156.706,54.415,197.646,7.769c9.548-10.878,14.584-22.935,17.405-33.065l0,0l-10.787-28.659
				c-13.162-15.89-31.083-19.655-40.655-22.014c-23.595-5.815-41.409,4.695-54.922-6.683c-7.477-6.295-8.962-15.356-10.29-23.45
				c-4.519-27.568,11.04-44.538,12.173-61.538c0.847-12.709,5.295-40.556-11.292-58.715
				C1483.029,2284.68,1468.479,2281.548,1460.258,2280.542z"/>
			
				<linearGradient id="SVGID_00000173878661148738688530000011296615857803158704_" gradientUnits="userSpaceOnUse" x1="1849.4828" y1="3263.6394" x2="1881.6776" y2="3292.2769" gradientTransform="matrix(-0.9902 -0.14 -0.14 0.9902 3726.9702 206.9384)">
				<stop  offset="0" style="stop-color:#444B8C"/>
				<stop  offset="0.9964" style="stop-color:#26264F"/>
			</linearGradient>
			<path style="fill:url(#SVGID_00000173878661148738688530000011296615857803158704_);" d="M1429.65,3194.233
				c-0.916-5.048-17.216-9.615-25.286-2.855c-4.008,3.356-6.767,10.161-4.449,13.234c0.843,1.118-2.611,3.084,0.699,3.123
				C1411.594,3207.862,1430.562,3199.248,1429.65,3194.233z"/>
			
				<linearGradient id="SVGID_00000136382759157978386950000005721201449447679899_" gradientUnits="userSpaceOnUse" x1="955.2294" y1="3292.3127" x2="955.2294" y2="3236.2263" gradientTransform="matrix(-0.9902 -0.14 -0.14 0.9902 2810.769 77.4224)">
				<stop  offset="0" style="stop-color:#FFC444"/>
				<stop  offset="0.9964" style="stop-color:#F36F56"/>
			</linearGradient>
			<path style="fill:url(#SVGID_00000136382759157978386950000005721201449447679899_);" d="M1412.567,3196.069l-16.763-2.369
				c7.766-9.35,6.328-39.126,6.328-39.126l17.827,3.979c0,0-2.031,8.173-5.487,20.229
				C1413.289,3182.909,1412.76,3189.368,1412.567,3196.069z"/>
			
				<linearGradient id="SVGID_00000019666088018540901900000008905499991664161445_" gradientUnits="userSpaceOnUse" x1="1852.7197" y1="3260.0012" x2="1884.9143" y2="3288.6384" gradientTransform="matrix(-0.9902 -0.14 -0.14 0.9902 3726.9702 206.9384)">
				<stop  offset="0" style="stop-color:#444B8C"/>
				<stop  offset="0.9964" style="stop-color:#26264F"/>
			</linearGradient>
			<path style="fill:url(#SVGID_00000019666088018540901900000008905499991664161445_);" d="M1414.053,3194.005
				c0,0-20.182-4.65-22.365-0.647c-2.184,4.004-3.877,14.722,8.926,14.376C1413.419,3207.388,1415.19,3197.399,1414.053,3194.005z"
				/>
			
				<linearGradient id="SVGID_00000012473882786716327990000005088599199472877495_" gradientUnits="userSpaceOnUse" x1="1957.5481" y1="3197.4675" x2="1989.7445" y2="3226.1064" gradientTransform="matrix(-1 0 0 1 3624.1272 0)">
				<stop  offset="0" style="stop-color:#444B8C"/>
				<stop  offset="0.9964" style="stop-color:#26264F"/>
			</linearGradient>
			<path style="fill:url(#SVGID_00000012473882786716327990000005088599199472877495_);" d="M1659.656,3213.159
				c-1.614-4.869-18.392-7.111-25.438,0.711c-3.497,3.884-5.278,11.008-2.552,13.726c0.992,0.99-2.154,3.42,1.129,2.995
				C1643.685,3229.181,1661.259,3217.996,1659.656,3213.159z"/>
			
				<linearGradient id="SVGID_00000031176030640968475160000010644083162118601399_" gradientUnits="userSpaceOnUse" x1="1063.2507" y1="3226.1638" x2="1063.2507" y2="3170.0747" gradientTransform="matrix(-1 0 0 1 2698.8171 0)">
				<stop  offset="0" style="stop-color:#FFC444"/>
				<stop  offset="0.9964" style="stop-color:#F36F56"/>
			</linearGradient>
			<path style="fill:url(#SVGID_00000031176030640968475160000010644083162118601399_);" d="M1642.997,3217.368h-16.929
				c6.381-10.345,0.789-39.627,0.789-39.627l18.209,1.445c0,0-0.867,8.377-2.601,20.798
				C1641.87,3204.236,1642.251,3210.705,1642.997,3217.368z"/>
			
				<linearGradient id="SVGID_00000162348084721418673210000012914946058399120011_" gradientUnits="userSpaceOnUse" x1="289.8281" y1="3251.8838" x2="79.8844" y2="2404.2383" gradientTransform="matrix(1 0 0 1 1348.3801 0)">
				<stop  offset="0" style="stop-color:#444B8C"/>
				<stop  offset="0.9964" style="stop-color:#26264F"/>
			</linearGradient>
			<path style="fill:url(#SVGID_00000162348084721418673210000012914946058399120011_);" d="M1686.871,2577.164
				c7.842,25.898,19.042,67.697,26.251,120.138c20.564,149.582-23.143,154.354-14.981,320.109
				c2.606,52.91-45.838,174.915-50.108,177.608c-2.066,0.201-4.308,0.335-6.699,0.263c-4.214-0.127-10.155-0.773-17.063-2.844
				c-7.674-1.322-35.341-76.26-28.928-120.815c4.538-31.535,3.223-65.378,0.592-133.064
				c-0.427-10.967-28.486-213.377-28.486-213.377l0,0c-8.536,74.921-18.353,138.579-26.862,187.935
				c-27.342,158.571-116.241,254.548-120.878,256.088c-0.916,0.368-9.258,3.398-16.078-1.097c-3.036-2-4.068-4.582-4.068-4.582
				c-2.378-1.863,0.7-158.314,27.816-276.059c39.358-170.904,22.22-210.893,34.69-287.229
				C1472.857,2534.185,1686.871,2577.164,1686.871,2577.164z"/>
			
				<linearGradient id="SVGID_00000183927585179865787470000013828715623004711859_" gradientUnits="userSpaceOnUse" x1="-736.1304" y1="2023.8107" x2="-511.0358" y2="2541.8857" gradientTransform="matrix(-1 0 0 1 1015.0479 0)">
				<stop  offset="0" style="stop-color:#AA80F9"/>
				<stop  offset="0.9964" style="stop-color:#6165D7"/>
			</linearGradient>
			<path style="fill:url(#SVGID_00000183927585179865787470000013828715623004711859_);" d="M1527.898,2267.202
				c26.131-0.768,86.192-9.992,119.274,19.774c0.576,0.516-6.202,4.138-2.865,8.048c3.099,3.629,13.724,16.337,23.357,33.514
				c6.978,12.441,13.276,26.944,19.63,48.558c11.207,38.118,14.422,70.576,15.497,84.718c6.046,79.529,0.051,116.219-5.391,141.171
				c-23.625,12.136-84.504,33.85-157.041,23.061c-33.125-4.928-59.637-15.951-78.291-25.791
				c18.822-56.989,4.056-87.484-2.911-115.591c-9.934-40.08-10.094-37.05-18.273-68.887
				c-13.496-52.533-15.709-106.213-6.437-117.198C1459.45,2268.962,1504.501,2267.891,1527.898,2267.202z"/>
			
				<linearGradient id="SVGID_00000179612407905346173550000011007597723841467068_" gradientUnits="userSpaceOnUse" x1="1960.7845" y1="3193.8296" x2="1992.9807" y2="3222.468" gradientTransform="matrix(-1 0 0 1 3624.1272 0)">
				<stop  offset="0" style="stop-color:#444B8C"/>
				<stop  offset="0.9964" style="stop-color:#26264F"/>
			</linearGradient>
			<path style="fill:url(#SVGID_00000179612407905346173550000011007597723841467068_);" d="M1644.18,3215.115
				c0,0-20.634-1.779-22.235,2.491c-1.601,4.269-1.779,15.119,10.85,12.985C1645.426,3228.457,1645.781,3218.317,1644.18,3215.115z"
				/>
			<g>
				
					<linearGradient id="SVGID_00000065784348161915801290000013407535737514426810_" gradientUnits="userSpaceOnUse" x1="2874.9607" y1="2418.7322" x2="3041.73" y2="2628.5493" gradientTransform="matrix(-0.9663 0.2576 0.2576 0.9663 3759.3887 -923.8408)">
					<stop  offset="0" style="stop-color:#FFC444"/>
					<stop  offset="0.9964" style="stop-color:#F36F56"/>
				</linearGradient>
				<path style="fill:url(#SVGID_00000065784348161915801290000013407535737514426810_);" d="M1582.798,2218.236
					c4.296-15.308-3.216-29.484-4.871-32.539c-6.933-12.789-8.708-14.535-12.015-16.75l-4.598-2.837c0,0-0.266-0.107-0.546-0.206
					c-2.95-1.05-13.007-1.356-15.044-0.92c-6.508,1.39-13.437,27.903-11.46,65.385c-0.269,1.428-0.53,2.869-0.781,4.322
					c-1.025,5.92-1.839,11.722-2.469,17.394c-0.602,5.426-4.211,10.051-9.318,11.978c-34.584,13.054-34.516,2.629-38.094,13.863
					c-1.949,6.117,37.325,16.002,56.647,13.767c43.47,0.323,78.832-4.305,75.032-11.151c-1.688-3.039-35.369-11.84-44.841-20.563
					c-8.673-7.988-7.967-16.233-8.68-22.137C1564.388,2236.477,1579.635,2229.514,1582.798,2218.236z"/>
				<path style="fill:#26264F;" d="M1574.802,2155.463c-0.039,11.613-5.51,24.014-8.298,26.007c-0.36,0.258-2.386,1.858-4.206,4.595
					c-0.248,0.372-0.467,0.809-0.661,1.372c-2.544,7.318,9.091,15.929,6.845,19.206c-1.629,2.376-9.537-0.802-10.477,1.251
					c-0.886,1.931,5.687,5.932,4.68,8.245c-0.759,1.747-4.804,0.148-7.354,2.824c-1.271,1.333-0.898,2.389-2.245,6.463
					c-0.762,2.304-1.827,4.825-2.653,6.228c-4.013,6.818-15.38,9.309-17.567,6.58c-0.609-0.76-0.086-1.399-0.708-3.951
					c0,0-0.576-2.365-2.222-5.1c-2.351-3.907-8.027-6.701-13.754-10.824c-10.606-7.637-13.488-14.147-14.353-16.346
					c-0.308-0.784-0.499-1.375-0.637-1.801c-2.758-8.56-2.77-21.132,1.078-28.864c6.446-12.952,20.988-6.802,32.891-19.636
					c13.733-14.806,5.554-35.044,13.006-37.279C1556.38,2111.968,1574.873,2133.991,1574.802,2155.463z"/>
				
					<linearGradient id="SVGID_00000005962260534081334000000008185419078456610440_" gradientUnits="userSpaceOnUse" x1="2886.2446" y1="2408.1201" x2="3060.5916" y2="2627.4705" gradientTransform="matrix(-0.9663 0.2576 0.2576 0.9663 3759.3887 -923.8408)">
					<stop  offset="0" style="stop-color:#FFC444"/>
					<stop  offset="0.9964" style="stop-color:#F36F56"/>
				</linearGradient>
				<path style="fill:url(#SVGID_00000005962260534081334000000008185419078456610440_);" d="M1564.308,2203.914
					c-2.846-3.911-7.847-0.236-7.876,4.824c-0.03,5.06,4.873,10.32,9.63,9.321
					C1570.818,2217.059,1568.138,2209.177,1564.308,2203.914z"/>
			</g>
			<path style="fill:#9B305E;" d="M1470.392,2564.392c-0.036,0-0.071,0-0.107-0.007c-0.526-0.056-0.903-0.531-0.845-1.054
				c3.086-27.764-2.666-47.935-7.743-65.731c-1.252-4.393-2.435-8.542-3.467-12.704c-5.638-22.749-8.107-31.531-10.72-40.83
				c-1.702-6.054-3.462-12.315-6.187-22.778c-0.133-0.511,0.173-1.031,0.684-1.167c0.511-0.135,1.031,0.172,1.165,0.686
				c2.722,10.447,4.48,16.698,6.179,22.742c2.617,9.313,5.09,18.108,10.735,40.886c1.023,4.129,2.203,8.265,3.45,12.641
				c5.124,17.963,10.932,38.329,7.805,66.466C1471.286,2564.03,1470.871,2564.392,1470.392,2564.392z"/>
			<path style="fill:#26264F;" d="M1562,2195.449l6.602,8.589c0,0,7.118,10.523,11.274,4.759c3.395-4.71,4.275-4.605,4.483-4.408
				c0.04,0.037,0.05,0.094,0.06,0.091c0.059-0.016-0.498-2.344-0.999-4.392c1.758,2.523,4.18,6.616,5.647,12.124
				c1.425,5.349,2.952,11.076-0.066,16.578c-0.174,0.317-3.499,6.174-9.707,7.59c0,0-2.441,0.557-12.756-1.256
				c0,0,11.274-8.181,11.447-10.124c0.467-5.285-6.862-8.141-12.304-18.975C1563.583,2201.845,1562.549,2198.056,1562,2195.449z"/>
		</g>
	</g>
</g>
</svg>
