<?xml version="1.0" encoding="utf-8"?>
<!-- Generator: Adobe Illustrator 27.5.0, SVG Export Plug-In . SVG Version: 6.00 Build 0)  -->
<svg version="1.1" xmlns="http://www.w3.org/2000/svg" xmlns:xlink="http://www.w3.org/1999/xlink" x="0px" y="0px"
	 viewBox="0 0 3710 3710" style="enable-background:new 0 0 3710 3710;" xml:space="preserve">
<g id="Background">
	<g>
		<g>
			<rect style="fill:#FFFFFF;" width="3710" height="3710"/>
		</g>
	</g>
</g>
<g id="Illustration">
	<g id="Order_processed">
		<path style="fill:#F4F7FA;" d="M2898.146,2819.388c-71.813,74.022-136.068,117.535-185.264,150.384
			c-479.801,320.367-1028.266,228.03-1197.837,196.469c-273.583-50.92-504.525-86.841-702.945-266.106
			c-450.871-407.344-428.942-1257.094-84.421-1783.478c40.85-62.414,384.849-572.327,934.501-644.178
			c13.444-1.757,23.474-2.758,32.26-3.688c85.03-9.003,611.943-56.517,1041.589,303.439
			c61.502,51.526,160.476,144.466,252.256,286.214C3323.877,1576.74,3324.94,2379.466,2898.146,2819.388z"/>
		<g>
			<linearGradient id="SVGID_1_" gradientUnits="userSpaceOnUse" x1="696.9224" y1="1781.4377" x2="2405.2549" y2="1781.4377">
				<stop  offset="0" style="stop-color:#FF9085"/>
				<stop  offset="1" style="stop-color:#FB6FBB"/>
			</linearGradient>
			<path style="fill:url(#SVGID_1_);" d="M2294.172,667.639L826.078,622.406c-71.142-2.192-129.156,49.659-129.156,115.825v2091.848
				c0,66.166,58.014,115.427,129.156,110.059l1468.094-110.769c61.501-4.64,111.083-57.843,111.083-118.857V781.538
				C2405.255,720.524,2355.673,669.534,2294.172,667.639z"/>
			<path style="opacity:0.74;fill:#FFFFFF;" d="M738.328,2839.628V726.831c0-38.078,33.361-67.977,74.374-66.785l1493.092,43.401
				c35.465,1.031,64.125,30.433,64.125,65.675v1955.384c0,35.241-28.659,65.922-64.124,68.536L812.703,2903.094
				C771.69,2906.117,738.328,2877.707,738.328,2839.628z"/>
			
				<linearGradient id="SVGID_00000070805915803734556630000012603186883358791050_" gradientUnits="userSpaceOnUse" x1="1560.166" y1="714.3752" x2="1414.2577" y2="2033.1681">
				<stop  offset="0" style="stop-color:#40447E"/>
				<stop  offset="0.9964" style="stop-color:#3C3B6B"/>
			</linearGradient>
			<path style="fill:url(#SVGID_00000070805915803734556630000012603186883358791050_);" d="M2294.172,667.639L826.078,622.406
				c-71.141-2.192-129.156,49.659-129.156,115.825v85.941l1708.333,36.616v-79.249
				C2405.256,720.524,2355.673,669.534,2294.172,667.639z"/>
			<path style="fill:#FFFFFF;" d="M926.258,732.559c0,21.429-18.657,38.351-41.717,37.795
				c-23.108-0.557-41.877-18.447-41.877-39.959c0-21.511,18.769-38.43,41.877-37.791
				C907.601,693.242,926.258,711.13,926.258,732.559z"/>
			<path style="fill:#FFFFFF;" d="M1071.516,736.318c0,21.285-18.408,38.097-41.16,37.549
				c-22.799-0.549-41.317-18.317-41.317-39.684s18.518-38.176,41.317-37.545C1053.108,697.268,1071.516,715.033,1071.516,736.318z"
				/>
			<path style="fill:#FFFFFF;" d="M1214.844,740.027c0,21.144-18.165,37.847-40.614,37.306
				c-22.497-0.542-40.768-18.188-40.768-39.412c0-21.224,18.272-37.924,40.768-37.302
				C1196.679,701.24,1214.844,718.883,1214.844,740.027z"/>
			<g>
				<g>
					<g>
						<g>
							<path style="fill:#FFFFFF;" d="M1531.15,1261.058l-604.262-0.958c-9.85-0.016-17.842-7.351-17.842-16.383v-38.446
								c0-9.032,7.993-16.31,17.842-16.254l604.262,3.391c9.177,0.052,16.609,7.151,16.609,15.857v37.056
								C1547.76,1254.027,1540.327,1261.073,1531.15,1261.058z"/>
							<path style="fill:#FFFFFF;" d="M950.321,1274.584l51.95,190.52c3.282,12.042,15.059,20.379,28.549,20.228l402.255-4.519
								c12.859-0.145,24.053-8.522,27.172-20.319l48.989-185.481L950.321,1274.584z M1099.439,1453.928
								c0,7.559-6.624,13.755-14.798,13.839l-14.12,0.145c-8.195,0.084-14.847-5.991-14.847-13.568v-147.663
								c0-7.578,6.652-13.723,14.847-13.725l14.12-0.004c8.174-0.002,14.798,6.124,14.798,13.682V1453.928z M1177.944,1453.184
								c0,7.525-6.564,13.693-14.666,13.776l-13.993,0.144c-8.122,0.083-14.714-5.964-14.714-13.508v-146.998
								c0-7.544,6.592-13.661,14.714-13.663l13.993-0.004c8.101-0.002,14.666,6.096,14.666,13.621V1453.184z M1255.747,1452.446
								c0,7.491-6.506,13.631-14.535,13.714l-13.868,0.142c-8.049,0.083-14.582-5.938-14.582-13.448v-146.339
								c0-7.51,6.533-13.6,14.582-13.602l13.868-0.004c8.029-0.002,14.535,6.069,14.535,13.56V1452.446z M1332.857,1451.715
								c0,7.458-6.448,13.57-14.406,13.652l-13.745,0.141c-7.977,0.082-14.453-5.912-14.453-13.389v-145.687
								c0-7.476,6.475-13.539,14.453-13.541l13.745-0.004c7.957-0.002,14.406,6.042,14.406,13.5V1451.715z M1409.284,1450.99
								c0,7.425-6.391,13.51-14.278,13.591l-13.623,0.14c-7.907,0.081-14.325-5.887-14.325-13.33v-145.04
								c0-7.443,6.418-13.479,14.325-13.481l13.623-0.004c7.887-0.002,14.278,6.015,14.278,13.44V1450.99z"/>
							<g>
								<g>
									<path style="fill:#FFFFFF;" d="M1018.207,1170.142c-9.178,7.308-23.12,6.338-31.139-2.18
										c-8.026-8.526-7.066-21.369,2.142-28.673c9.198-7.296,23.135-6.291,31.131,2.23
										C1028.33,1150.033,1027.375,1162.842,1018.207,1170.142z"/>
									<path style="fill:#FFFFFF;" d="M1212.119,989.114c-3.027-3.288-9.286-2.933-13.983,0.797l-191.331,151.938
										c-4.802,3.814-6.184,9.582-3.084,12.88c3.099,3.297,9.501,2.875,14.297-0.94l191.088-151.972
										C1213.797,998.087,1215.145,992.401,1212.119,989.114z"/>
								</g>
								<g>
									<path style="fill:#FFFFFF;" d="M1445.1,1173.008c8.728,7.241,21.953,6.466,29.54-1.718
										c7.581-8.177,6.674-20.668-2.026-27.913c-8.709-7.252-21.939-6.511-29.547,1.67
										C1435.452,1153.235,1436.363,1165.76,1445.1,1173.008z"/>
									<path style="fill:#FFFFFF;" d="M1256.382,989.876c3.01-3.174,9.229-2.604,13.889,1.272l185.669,154.438
										c4.557,3.791,5.868,9.43,2.928,12.596c-2.941,3.168-9.025,2.665-13.588-1.126l-185.901-154.41
										C1254.713,998.77,1253.371,993.051,1256.382,989.876z"/>
								</g>
							</g>
						</g>
						<g>
							<polygon style="fill:#FFFFFF;" points="2234.752,1079.399 1611.648,1071.445 1611.648,993.887 2234.752,1004.688 							"/>
							<polygon style="fill:#FFFFFF;" points="2234.752,1210.201 1611.648,1207.232 1611.648,1129.673 2234.752,1135.49 							"/>
							<polygon style="fill:#FFFFFF;" points="2234.752,1341.003 1611.648,1343.019 1611.648,1265.46 2234.752,1266.292 							"/>
							<polygon style="fill:#FFFFFF;" points="2234.752,1471.805 1611.648,1478.806 1611.648,1401.247 2234.752,1397.094 							"/>
						</g>
						<g>
							<polygon style="fill:#FFFFFF;" points="2013.878,1687.24 909.046,1713.85 909.046,1633.081 2013.878,1611.519 							"/>
							<polygon style="fill:#FFFFFF;" points="2013.878,1819.809 909.046,1855.258 909.046,1774.489 2013.878,1744.088 							"/>
							<polygon style="fill:#FFFFFF;" points="2013.878,1952.378 909.046,1996.666 909.046,1915.897 2013.878,1876.657 							"/>
							<polygon style="fill:#FFFFFF;" points="2013.878,2084.947 909.046,2138.074 909.046,2057.305 2013.878,2009.226 							"/>
						</g>
						<g>
							<polygon style="fill:#FFFFFF;" points="2234.752,1681.92 2089.416,1685.42 2089.416,1610.045 2234.752,1607.208 							"/>
							<polygon style="fill:#FFFFFF;" points="2234.752,1812.722 2089.416,1817.385 2089.416,1742.01 2234.752,1738.01 							"/>
							<polygon style="fill:#FFFFFF;" points="2234.752,1943.524 2089.416,1949.35 2089.416,1873.974 2234.752,1868.812 							"/>
							<polygon style="fill:#FFFFFF;" points="2234.752,2074.326 2089.416,2081.314 2089.416,2005.939 2234.752,1999.615 							"/>
						</g>
						<g>
							<polygon style="fill:#FFFFFF;" points="2013.878,2300.077 909.046,2367.548 909.046,2286.779 2013.878,2224.357 							"/>
							<polygon style="fill:#FFFFFF;" points="2013.878,2432.646 909.046,2508.956 909.046,2428.187 2013.878,2356.926 							"/>
							<polygon style="fill:#FFFFFF;" points="2013.878,2565.216 909.046,2650.363 909.046,2569.594 2013.878,2489.495 							"/>
							<polygon style="fill:#FFFFFF;" points="2013.878,2697.785 909.046,2791.771 909.046,2711.002 2013.878,2622.064 							"/>
						</g>
						<g>
							<polygon style="fill:#FFFFFF;" points="2234.752,2286.589 2089.416,2295.465 2089.416,2220.089 2234.752,2211.878 							"/>
							
								<linearGradient id="SVGID_00000111882762468356544930000014138744381675212432_" gradientUnits="userSpaceOnUse" x1="1061.3846" y1="2385.0544" x2="5046.8354" y2="2385.0544">
								<stop  offset="0" style="stop-color:#AA80F9"/>
								<stop  offset="0.9964" style="stop-color:#6165D7"/>
							</linearGradient>
							<polygon style="fill:url(#SVGID_00000111882762468356544930000014138744381675212432_);" points="2234.752,2417.391 
								2089.416,2427.429 2089.416,2352.054 2234.752,2342.68 							"/>
							
								<linearGradient id="SVGID_00000168099969810997836640000002588307736288126865_" gradientUnits="userSpaceOnUse" x1="1061.3846" y1="2516.4377" x2="5046.8354" y2="2516.4377">
								<stop  offset="0" style="stop-color:#AA80F9"/>
								<stop  offset="0.9964" style="stop-color:#6165D7"/>
							</linearGradient>
							<polygon style="fill:url(#SVGID_00000168099969810997836640000002588307736288126865_);" points="2234.752,2548.193 
								2089.416,2559.394 2089.416,2484.019 2234.752,2473.482 							"/>
							
								<linearGradient id="SVGID_00000153703221299329941650000005816415473394876330_" gradientUnits="userSpaceOnUse" x1="1061.3846" y1="2647.8213" x2="5046.8354" y2="2647.8213">
								<stop  offset="0" style="stop-color:#AA80F9"/>
								<stop  offset="0.9964" style="stop-color:#6165D7"/>
							</linearGradient>
							<polygon style="fill:url(#SVGID_00000153703221299329941650000005816415473394876330_);" points="2234.752,2678.995 
								2089.416,2691.359 2089.416,2615.983 2234.752,2604.284 							"/>
						</g>
					</g>
				</g>
			</g>
		</g>
		<g>
			<g>
				
					<linearGradient id="SVGID_00000136403647341113732940000012890892144486447239_" gradientUnits="userSpaceOnUse" x1="5514.5586" y1="1807.3204" x2="5150.8696" y2="2421.5508" gradientTransform="matrix(1 0 0 1 -3022.4941 0)">
					<stop  offset="0" style="stop-color:#FFC444"/>
					<stop  offset="0.3138" style="stop-color:#FBA94A"/>
					<stop  offset="0.9964" style="stop-color:#F36F56"/>
				</linearGradient>
				<polygon style="fill:url(#SVGID_00000136403647341113732940000012890892144486447239_);" points="2487.934,2358.756 
					2156.552,2318.242 2156.552,1829.505 2487.934,1766.735 				"/>
				<g>
					
						<linearGradient id="SVGID_00000073700118727078999260000018246377069291976381_" gradientUnits="userSpaceOnUse" x1="5847.3159" y1="1822.2356" x2="5470.0889" y2="2459.3298" gradientTransform="matrix(1 0 0 1 -3022.4941 0)">
						<stop  offset="0" style="stop-color:#FFC444"/>
						<stop  offset="0.3138" style="stop-color:#FBA94A"/>
						<stop  offset="0.9964" style="stop-color:#F36F56"/>
					</linearGradient>
					<polygon style="fill:url(#SVGID_00000073700118727078999260000018246377069291976381_);" points="2892.142,2333.006 
						2487.934,2358.756 2487.934,1766.735 2892.142,1822.537 					"/>
					<polygon style="fill:#FFFFFF;" points="2640.302,1787.77 2640.302,2029.161 2774.867,2039.885 2774.867,1806.347 					"/>
				</g>
			</g>
			<g>
				
					<linearGradient id="SVGID_00000105402928418622208280000005012149670130127523_" gradientUnits="userSpaceOnUse" x1="5973.8999" y1="2262.4746" x2="5379.9453" y2="3265.5984" gradientTransform="matrix(1 0 0 1 -3022.4941 0)">
					<stop  offset="0" style="stop-color:#FFC444"/>
					<stop  offset="0.3138" style="stop-color:#FBA94A"/>
					<stop  offset="0.9964" style="stop-color:#F36F56"/>
				</linearGradient>
				<polygon style="fill:url(#SVGID_00000105402928418622208280000005012149670130127523_);" points="3037.364,3064.985 
					2422.623,3108.222 2422.623,2207.846 3037.364,2251.083 				"/>
				
					<linearGradient id="SVGID_00000098902529144437998260000013628369273236360072_" gradientUnits="userSpaceOnUse" x1="5443.0732" y1="2264.6404" x2="4889.9556" y2="3198.7942" gradientTransform="matrix(1 0 0 1 -3022.4941 0)">
					<stop  offset="0" style="stop-color:#FFC444"/>
					<stop  offset="0.3138" style="stop-color:#FBA94A"/>
					<stop  offset="0.9964" style="stop-color:#F36F56"/>
				</linearGradient>
				<polygon style="fill:url(#SVGID_00000098902529144437998260000013628369273236360072_);" points="2422.623,3108.222 
					1918.64,3046.606 1918.64,2265.325 2422.623,2207.846 				"/>
				<polygon style="fill:#FFFFFF;" points="2640.242,2223.152 2640.242,2588.491 2846.216,2588.491 2846.216,2237.64 				"/>
			</g>
		</g>
		<g>
			
				<linearGradient id="SVGID_00000107557414640085262030000008962603471422919094_" gradientUnits="userSpaceOnUse" x1="-3272.8313" y1="1875.2985" x2="-2990.6965" y2="3228.3489" gradientTransform="matrix(1 0 0 1 4634.1172 0)">
				<stop  offset="0" style="stop-color:#AA80F9"/>
				<stop  offset="0.9964" style="stop-color:#6165D7"/>
			</linearGradient>
			<path style="fill:url(#SVGID_00000107557414640085262030000008962603471422919094_);" d="M1494.25,1917.861
				c28.391-30.312-50.204-144.189-92.271-194.088c-36.75-43.592-74.523-88.399-120.907-82.726
				c-40.724,4.981-80.352,47.928-82.726,89.089C1191.958,1840.868,1453.889,1960.953,1494.25,1917.861z"/>
			
				<linearGradient id="SVGID_00000150781917315795740360000004725476021515288967_" gradientUnits="userSpaceOnUse" x1="5684.3809" y1="2976.1946" x2="5782.1099" y2="2976.1946" gradientTransform="matrix(-0.9996 0.0289 0.0289 0.9996 6839.7925 -31.2392)">
				<stop  offset="0" style="stop-color:#444B8C"/>
				<stop  offset="0.9964" style="stop-color:#26264F"/>
			</linearGradient>
			<path style="fill:url(#SVGID_00000150781917315795740360000004725476021515288967_);" d="M1153.372,3088.051
				c-5.344,4.344-6.327,15.192-6.969,22.284c-0.289,3.167-0.431,4.752-0.078,5.871c2.582,8.161,18.41,9.02,43.23,11.556
				c39.223,4.007,50.895,7.094,53.964,1.258c2.877-5.47-4.085-14.426-4.869-15.414c-4.214-5.309-9.387-7.24-19.388-10.531
				c-18.505-6.091-31.008-9.426-34.794-10.436C1160.831,3086.327,1156.882,3085.198,1153.372,3088.051z"/>
			
				<linearGradient id="SVGID_00000081622424755671967530000004218232672852246709_" gradientUnits="userSpaceOnUse" x1="5414.6582" y1="3077.2039" x2="5449.6953" y2="3077.2039" gradientTransform="matrix(-1 0 0 1 6595.2813 0)">
				<stop  offset="0" style="stop-color:#FFC444"/>
				<stop  offset="0.9964" style="stop-color:#F36F56"/>
			</linearGradient>
			<path style="fill:url(#SVGID_00000081622424755671967530000004218232672852246709_);" d="M1176.698,3052.219l3.925,44.696
				c-1.114,2.158-14.399,8.632-24.952,3.08l-10.085-43.934L1176.698,3052.219z"/>
			
				<linearGradient id="SVGID_00000036947161188089009160000017961697725908562320_" gradientUnits="userSpaceOnUse" x1="5976.4697" y1="1872.7418" x2="6080.3008" y2="1872.7418" gradientTransform="matrix(-0.9642 0.2651 0.2651 0.9642 6826.9673 -308.9189)">
				<stop  offset="0" style="stop-color:#444B8C"/>
				<stop  offset="0.9964" style="stop-color:#26264F"/>
			</linearGradient>
			<path style="fill:url(#SVGID_00000036947161188089009160000017961697725908562320_);" d="M1464.432,3082.307
				c-6.405,7.073-7.864,20.098-2.295,26.515c5.475,6.309,13.708,1.577,37.055,2.274c25.01,0.748,31.54,6.654,48.535,1.965
				c6.866-1.898,18.992-6.501,18.762-11.404c-0.162-3.448-6.335-5.228-26.955-12.136c-29.269-9.804-29.14-10.34-35.355-11.37
				C1488.568,3075.565,1472.892,3072.967,1464.432,3082.307z"/>
			
				<linearGradient id="SVGID_00000054968847653980814300000014951509323071772340_" gradientUnits="userSpaceOnUse" x1="5102.2808" y1="3065.6365" x2="5145.5542" y2="3065.6365" gradientTransform="matrix(-1 0 0 1 6595.2813 0)">
				<stop  offset="0" style="stop-color:#FFC444"/>
				<stop  offset="0.9964" style="stop-color:#F36F56"/>
			</linearGradient>
			<path style="fill:url(#SVGID_00000054968847653980814300000014951509323071772340_);" d="M1480.457,3041.516l12.544,41.726
				c-0.948,2.239-13.7,9.704-24.644,4.975l-18.63-40.499L1480.457,3041.516z"/>
			
				<linearGradient id="SVGID_00000071529373340657742240000007825027399259959946_" gradientUnits="userSpaceOnUse" x1="-3107.3025" y1="2912.1384" x2="-3384.2385" y2="2287.8586" gradientTransform="matrix(1 0 0 1 4634.1172 0)">
				<stop  offset="0" style="stop-color:#40447E"/>
				<stop  offset="0.9964" style="stop-color:#3C3B6B"/>
			</linearGradient>
			<path style="fill:url(#SVGID_00000071529373340657742240000007825027399259959946_);" d="M1369.003,2127.664
				c1.797,140.229,11.366,297.901,34.327,469.201c22.692,169.304,54.494,322.279,89.183,456.798
				c-16.005,4.306-32.009,8.612-48.012,12.918c-40.604-37.86-91.824-97.459-116.539-181.681
				c-15.339-52.273-10.227-79.135-19.957-143.43c-15.492-102.373-46.873-156.007-79.308-238.56
				c-29.146-74.182-63.598-183.051-82.07-328.575C1220.753,2158.778,1294.879,2143.22,1369.003,2127.664z"/>
			
				<linearGradient id="SVGID_00000180328150299065942940000007293136488918598787_" gradientUnits="userSpaceOnUse" x1="-3648.2532" y1="2404.7146" x2="-3925.1843" y2="1780.4459" gradientTransform="matrix(0.9925 -0.1225 0.1225 0.9925 4717.1221 108.1241)">
				<stop  offset="0" style="stop-color:#40447E"/>
				<stop  offset="0.9964" style="stop-color:#3C3B6B"/>
			</linearGradient>
			<path style="fill:url(#SVGID_00000180328150299065942940000007293136488918598787_);" d="M1224.538,2114.283
				c-9.795,178.348-17.852,360.016-23.957,544.901c-4.583,138.738-7.947,275.716-10.183,410.892
				c-16.348,2.018-32.696,4.038-49.045,6.055c-15.796-29.41-36.777-74.375-51.15-132.007
				c-17.457-69.995-13.415-111.562-21.07-184.107c-8.59-81.365-21.066-99.091-43.168-201.731
				c-44.859-208.304-67.29-312.458-17.249-377.246C1024.96,2160.007,1075.884,2107.246,1224.538,2114.283z"/>
			
				<linearGradient id="SVGID_00000114769536526990057360000010647791618152678582_" gradientUnits="userSpaceOnUse" x1="-3529.0007" y1="1928.7139" x2="-3246.8672" y2="3281.759" gradientTransform="matrix(1 0 0 1 4634.1172 0)">
				<stop  offset="0" style="stop-color:#AA80F9"/>
				<stop  offset="0.9964" style="stop-color:#6165D7"/>
			</linearGradient>
			<path style="fill:url(#SVGID_00000114769536526990057360000010647791618152678582_);" d="M986.279,1666.045
				c38.285-10.766,94.395-23.357,163.112-27.241c98.009-5.54,147.014-8.309,181.74,15.03
				c80.205,53.906,18.11,178.322,50.941,486.737c4.689,44.044,5.74,88.401,9.135,132.563c5.622,73.12,6.903,77.09,1.815,84.5
				c-31.905,46.463-150.937-23.619-325.403,4.084c-97.617,15.5-141.89,51.211-168.634,25.454
				c-31.189-30.037-4.436-110.828,18.593-180.377c26.435-79.832,42.764-80.859,57.769-140.981
				c15.684-62.841,6.197-95.197,3.755-194.293C977.934,1824.103,978.183,1753.538,986.279,1666.045z"/>
			<g style="opacity:0.3;">
				
					<linearGradient id="SVGID_00000001649084301836290270000004159653633770053262_" gradientUnits="userSpaceOnUse" x1="-3606.3367" y1="2783.8235" x2="-3482.489" y2="2195.5486" gradientTransform="matrix(1 0 0 1 4634.1172 0)">
					<stop  offset="0" style="stop-color:#AA80F9"/>
					<stop  offset="0.9964" style="stop-color:#6165D7"/>
				</linearGradient>
				<path style="fill:url(#SVGID_00000001649084301836290270000004159653633770053262_);" d="M1223.526,2245.053
					c-45.6-3.568-75.182,22.212-114.544,2.121c-53.975-27.55-71.318-113.269-67.878-173.937
					c5.226-92.177,57.861-116.475,48.788-176.058c-4.906-32.222-27.912-75.002-110.511-118.709
					c-1.102,36.785-0.892,68.139-0.278,93.049c2.442,99.096,11.928,131.452-3.755,194.293
					c-15.005,60.123-31.334,61.15-57.769,140.981c-23.029,69.549-49.782,150.34-18.593,180.377
					c26.744,25.757,71.016-9.954,168.634-25.454c150.329-23.87,259.442,24.798,307.182,9.014
					C1317.113,2275.404,1264.789,2248.282,1223.526,2245.053z"/>
			</g>
			
				<linearGradient id="SVGID_00000173863326286354053180000006333105573987544739_" gradientUnits="userSpaceOnUse" x1="-3711.9192" y1="1806.7212" x2="-3488.7458" y2="2877.0073" gradientTransform="matrix(1 0 0 1 4634.1172 0)">
				<stop  offset="0" style="stop-color:#AA80F9"/>
				<stop  offset="0.9964" style="stop-color:#6165D7"/>
			</linearGradient>
			<path style="fill:url(#SVGID_00000173863326286354053180000006333105573987544739_);" d="M1048.479,1672.373
				c-32.567-26.759-98.051,3.531-115.555,11.628c-97.616,45.153-185.26,166.828-163.544,295.413
				c3.256,19.285,18.359,109.486,94.738,153.192c68.918,39.436,161.977,29.293,236.537-26.561
				c10.188-9.042,20.38-18.082,30.57-27.124c10.024-10.835,20.051-21.671,30.075-32.508c-15.758-13.108-42.533-32.017-80.136-44.151
				c-49.577-15.998-85.67,12.708-108.673-9.116c-15.875-15.061-15.91-41.663-11.991-57.786
				c7.902-32.494,36.545-41.633,60.454-64.696C1077.124,1816.479,1087.472,1704.414,1048.479,1672.373z"/>
			<g>
				
					<linearGradient id="SVGID_00000114047251971274313300000005700042665761848724_" gradientUnits="userSpaceOnUse" x1="-3271.0354" y1="2272.6167" x2="-3323.8408" y2="2123.001" gradientTransform="matrix(1 0 0 1 4634.1172 0)">
					<stop  offset="0" style="stop-color:#311944"/>
					<stop  offset="1" style="stop-color:#893976"/>
				</linearGradient>
				<polygon style="fill:url(#SVGID_00000114047251971274313300000005700042665761848724_);" points="1516.498,2092.148 
					1079.976,2085.632 1196.055,2141.653 1517.614,2120.607 				"/>
				
					<linearGradient id="SVGID_00000029729468233164584360000005071362349950788001_" gradientUnits="userSpaceOnUse" x1="-3501.719" y1="2055.8467" x2="-3482.3572" y2="2189.6206" gradientTransform="matrix(1 0 0 1 4634.1172 0)">
					<stop  offset="0" style="stop-color:#311944"/>
					<stop  offset="1" style="stop-color:#893976"/>
				</linearGradient>
				<path style="fill:url(#SVGID_00000029729468233164584360000005071362349950788001_);" d="M1064.571,2097.232v0.002
					c0,8.169,5.112,15.466,12.789,18.258l139.483,54.682l0.636-37.91l-137.502-46.632
					C1072.261,2083.414,1064.571,2089.205,1064.571,2097.232z"/>
			</g>
			
				<linearGradient id="SVGID_00000120549405500108066080000008758801763673218447_" gradientUnits="userSpaceOnUse" x1="5354.3657" y1="2076.8455" x2="5463.7949" y2="2076.8455" gradientTransform="matrix(-1 0 0 1 6595.2813 0)">
				<stop  offset="0" style="stop-color:#FFC444"/>
				<stop  offset="0.9964" style="stop-color:#F36F56"/>
			</linearGradient>
			<path style="fill:url(#SVGID_00000120549405500108066080000008758801763673218447_);" d="M1131.788,2071.403
				c-2.679-0.598,13.051-31.942,25.401-28.325c12.347,3.618,72.746,38.621,78.236,53.034c5.49,14.413,5.49,14.413,5.49,14.413
				s-26.347,2.06-42.686-3.43C1181.89,2101.604,1153.573,2076.26,1131.788,2071.403z"/>
			<g>
				<g>
					
						<linearGradient id="SVGID_00000044147152417418140580000017898924735383406741_" gradientUnits="userSpaceOnUse" x1="-3118.0698" y1="2067.5632" x2="-3221.0212" y2="1921.3721" gradientTransform="matrix(1 0 0 1 4634.1172 0)">
						<stop  offset="0" style="stop-color:#444B8C"/>
						<stop  offset="0.9964" style="stop-color:#26264F"/>
					</linearGradient>
					<path style="fill:url(#SVGID_00000044147152417418140580000017898924735383406741_);" d="M1229.059,1866.275l-30.77,280.157
						c-1.062,9.667,12.472,24.069,22.186,23.609l451.385-27.71c7.418-0.353,13.594-5.811,14.849-13.129l56.655-270.583
						c1.69-9.847-16.01-20.017-25.997-19.738l-473.023,13.3C1236.444,1852.404,1229.921,1858.418,1229.059,1866.275z"/>
					
						<linearGradient id="SVGID_00000044884085569271977770000007852195463778777005_" gradientUnits="userSpaceOnUse" x1="-3315.5493" y1="2309.5071" x2="-3090.2449" y2="1851.8578" gradientTransform="matrix(1 0 0 1 4634.1172 0)">
						<stop  offset="0" style="stop-color:#311944"/>
						<stop  offset="1" style="stop-color:#893976"/>
					</linearGradient>
					<path style="fill:url(#SVGID_00000044884085569271977770000007852195463778777005_);" d="M1239.375,1874.443l-30.77,280.16
						c-1.061,9.667,6.765,17.994,16.479,17.537l457.095-21.64c7.416-0.352,13.592-5.811,14.848-13.128l46.699-271.821
						c1.691-9.849-6.054-18.781-16.041-18.499l-473.024,13.3C1246.762,1860.571,1240.235,1866.588,1239.375,1874.443z"/>
				</g>
				
					<linearGradient id="SVGID_00000008833438696978540400000015057188167006313113_" gradientUnits="userSpaceOnUse" x1="-3425.6086" y1="2015.7725" x2="-2930.6462" y2="2015.7725" gradientTransform="matrix(1 0 0 1 4634.1172 0)">
					<stop  offset="0" style="stop-color:#311944"/>
					<stop  offset="1" style="stop-color:#893976"/>
				</linearGradient>
				<path style="opacity:0.3;fill:url(#SVGID_00000008833438696978540400000015057188167006313113_);" d="M1507.781,2084.851
					c-39.912-16.916-25.825-49.175-72.956-89.371c-62.176-53.028-125.551-30.03-147.737-71.132
					c-6.909-12.802-10.209-32.72,1.826-64.959l-34.253,0.963c-7.898,0.22-14.425,6.237-15.285,14.091l-30.77,280.16
					c-1.06,9.665,6.767,17.994,16.479,17.537l457.095-21.64c7.416-0.352,13.592-5.81,14.848-13.128l6.444-37.509
					c-13.869-7.718-30.442-14.736-49.779-18.659C1586.632,2067.601,1553.731,2104.326,1507.781,2084.851z"/>
			</g>
			
				<linearGradient id="SVGID_00000170258305325386072520000008042902508332798368_" gradientUnits="userSpaceOnUse" x1="4884.1211" y1="2132.821" x2="4957.9448" y2="2132.821" gradientTransform="matrix(-1 0 0 1 6595.2813 0)">
				<stop  offset="0" style="stop-color:#FFC444"/>
				<stop  offset="0.9964" style="stop-color:#F36F56"/>
			</linearGradient>
			<path style="fill:url(#SVGID_00000170258305325386072520000008042902508332798368_);" d="M1710.974,2111.314
				c0.743-2.257-0.832-4.582-3.206-4.702c-9.661-0.493-32.067-0.693-44.436,6.882c-16.068,9.843-36.845,27.803-19.348,36.865
				l16.338,8.464c0.75,0.389,1.567,0.509,2.391,0.329c5.805-1.277,30.24-6.697,32.912-8.043
				C1698.058,2149.883,1707.374,2122.237,1710.974,2111.314z"/>
			<g>
				
					<linearGradient id="SVGID_00000160906767893497399780000002960590110709147823_" gradientUnits="userSpaceOnUse" x1="5443.2998" y1="1532.0032" x2="5424.4248" y2="1852.8805" gradientTransform="matrix(-1 0 0 1 6595.2813 0)">
					<stop  offset="0" style="stop-color:#FFC444"/>
					<stop  offset="0.9964" style="stop-color:#F36F56"/>
				</linearGradient>
				<path style="fill:url(#SVGID_00000160906767893497399780000002960590110709147823_);" d="M1156.709,1531.725
					c0.244,29.056-2.998,52.1-6.065,67.88c-3.512,18.081-6.044,22.752-9.275,26.543c-4.863,5.705-12.232,10.491-53.868,20.817
					c-22.658,5.617-25.572,5.464-26.073,7.712c-2.44,10.968,59.342,48.351,123.172,39.341c39.065-5.513,74.608-27.801,72.426-39.505
					c-2.196-11.778-41.217-5.458-52.848-26.767c-8.091-14.824,0.979-35.868,11.699-53.297
					C1205.495,1554.996,1167.091,1551.179,1156.709,1531.725z"/>
				<g>
					
						<linearGradient id="SVGID_00000055665802823577487000000012001930744185958787_" gradientUnits="userSpaceOnUse" x1="5558.1196" y1="1495.9443" x2="5484.2144" y2="1308.2383" gradientTransform="matrix(-1 0.0037 0.0037 1 6673.1421 162.9159)">
						<stop  offset="0" style="stop-color:#311944"/>
						<stop  offset="1" style="stop-color:#6B3976"/>
					</linearGradient>
					<path style="fill:url(#SVGID_00000055665802823577487000000012001930744185958787_);" d="M1229.214,1543.213
						c9.219-12.247,9.788-33.628-0.834-47.142c-9.142-11.63-23.528-13.288-32.14-14.284c-24.957-2.881-56.446,7.537-67.4,30.506
						c-6.49,13.612,7.549,41.896,9.747,46.981c2.49,5.749,7.003,7.721,11.179,12.069c5.786,6.028,14.846,15.615,29.633,31.647
						c1.149-4.73,2.896-10.588,5.671-16.935c1.068-2.444,5.359-11.986,11.852-19.899
						C1209.928,1550.294,1220.475,1554.819,1229.214,1543.213z"/>
					
						<linearGradient id="SVGID_00000072984926259602812580000018207399076655430834_" gradientUnits="userSpaceOnUse" x1="5361.7866" y1="1571.1243" x2="5456.4741" y2="1571.1243" gradientTransform="matrix(-1 0 0 1 6595.2813 0)">
						<stop  offset="0" style="stop-color:#FFC444"/>
						<stop  offset="0.9964" style="stop-color:#F36F56"/>
					</linearGradient>
					<path style="fill:url(#SVGID_00000072984926259602812580000018207399076655430834_);" d="M1158.306,1589.508
						c0,0,16.407,26.916,49.072,24.791c29.247-1.904,33.531-67.492,14.85-81.41c-6.233-4.643-18.714-6.571-28.863-3.727
						c-5.994,1.68-8.025,4.171-17.872,6.724c-9.085,2.358-11.649,1.351-14.392,3.657c-3.429,2.888-5.942,9.964-0.214,29.137
						c-5.581-5.649-12.278-7.818-17.024-5.577c-0.756,0.359-2.764,1.724-3.895,3.795
						C1135.88,1574.388,1142.722,1583.956,1158.306,1589.508z"/>
					
						<linearGradient id="SVGID_00000147930175690488325220000015954524162484355749_" gradientUnits="userSpaceOnUse" x1="5535.542" y1="1504.9324" x2="5461.562" y2="1317.036" gradientTransform="matrix(-1 0.0037 0.0037 1 6673.1421 162.9159)">
						<stop  offset="0" style="stop-color:#311944"/>
						<stop  offset="1" style="stop-color:#6B3976"/>
					</linearGradient>
					<path style="fill:url(#SVGID_00000147930175690488325220000015954524162484355749_);" d="M1159.78,1535.62
						c1.41,1.052-2.902,6.314-3.222,13.762c-0.626,14.457,14.008,31.811,28.936,33.283c8.826,0.87,11.252-4.45,25.842-5.992
						c9.033-0.954,16.553,0.195,21.283,1.229c4.585,15.857,0.271,31.665-10.328,38.999c-11.41,7.897-25.986,3.106-32.079,1.103
						c-4.077-1.34-17.14-5.607-23.967-17.586c-7.114-12.484-0.132-20.009-8.293-28.452c-4.116-4.259-9.523-6.104-14.787-14.348
						c-1.429-2.241-2.383-4.222-2.967-5.555C1147.745,1544.067,1157.737,1534.097,1159.78,1535.62z"/>
					
						<linearGradient id="SVGID_00000006688034733268759070000010314737031919220110_" gradientUnits="userSpaceOnUse" x1="5370.8911" y1="1587.3955" x2="5391.7012" y2="1587.3955" gradientTransform="matrix(-1 0 0 1 6595.2813 0)">
						<stop  offset="0" style="stop-color:#FFC444"/>
						<stop  offset="0.9964" style="stop-color:#F36F56"/>
					</linearGradient>
					<path style="fill:url(#SVGID_00000006688034733268759070000010314737031919220110_);" d="M1222.003,1583.779
						c0,0-6.317,3.3-17.232,2.686c-0.53-0.031-1.117,0.126-1.184,0.4c-0.251,1.035,6.752,5.678,13.204,3.865
						c4.581-1.289,8.145-5.626,7.529-6.73C1224.058,1583.537,1223.022,1583.598,1222.003,1583.779z"/>
				</g>
			</g>
		</g>
		<g>
			<g>
				
					<linearGradient id="SVGID_00000142865254086177196330000000178099654845604770_" gradientUnits="userSpaceOnUse" x1="2094.3716" y1="2604.1147" x2="1894.5411" y2="2985.4246">
					<stop  offset="0" style="stop-color:#AA80F9"/>
					<stop  offset="0.9964" style="stop-color:#6165D7"/>
				</linearGradient>
				<path style="fill:url(#SVGID_00000142865254086177196330000000178099654845604770_);" d="M1873.127,3096.68
					c-23.303-1.849-53.115-8.324-81.73-27.032c-30.96-20.24-71.283-61.837-60.758-88.047c3.929-9.785,15.243-18.164,25.188-17.366
					c14.692,1.179,16.402,21.587,41.915,43.784c4.715,4.102,29.092,25.312,41.21,18.165c6.025-3.553,7.807-13.399,6.824-20.884
					c-2.873-21.886-29.595-25.247-55.285-48.94c-26.045-24.022-47.756-65.926-35.346-94.256
					c7.132-16.281,25.996-29.138,38.396-25.524c5.299,1.544,8.659,5.876,24.749,40.636c13.206,28.531,16.143,36.847,24.658,39.552
					c8.764,2.785,22.39-0.709,27.568-9.344c13.487-22.487-44.806-55.689-50.099-118.621c-2.372-28.202,5.257-70,30.796-78.96
					c17.265-6.057,41.861,3.194,50.753,19.032c8.016,14.278-1.722,25.021,4.393,57.097c1.856,9.733,5.674,29.763,13.733,30.814
					c9.461,1.234,20.046-24.306,22.493-30.526c18.419-46.827-2.701-70.906,14.666-93.638c13.543-17.726,43.01-24.845,66.354-15.892
					c20.427,7.835,36.769,28.208,37.86,49.323c1.111,21.482-16.958,42.868-53.094,85.639
					c-17.137,20.283-30.771,33.987-29.996,54.147c0.378,9.828,4.275,23.651,11.314,24.914c15.536,2.787,23.183-59.774,60.004-69.435
					c18.847-4.945,42.267,4.774,52.559,21.763c12.609,20.815,4.162,50.318-11.68,65.831c-20.669,20.241-41.865,4.859-80.756,26.601
					c-17.253,9.645-44.366,30.162-40.396,47.128c1.728,7.387,9.471,14.621,17.969,15.586c19.047,2.162,25.338-29.054,55.961-42.776
					c22.062-9.886,52.57-8.817,59.816,3.625c10.23,17.565-26.105,57.445-45.423,75.066
					C2034.389,3055.447,1979.313,3095.842,1873.127,3096.68z"/>
				<path style="opacity:0.5;fill:#FFFFFF;" d="M1883.591,3086.674c-3.079-52.209,31.502-158.554,56.662-208.828
					c24.62-49.194,48.171-127.019,48.405-127.799l1.533,0.462c-0.236,0.781-23.827,78.738-48.507,128.054
					c-25.082,50.118-59.56,156.07-56.496,208.017L1883.591,3086.674z"/>
			</g>
			
				<linearGradient id="SVGID_00000131325093865553009810000011515181258126280864_" gradientUnits="userSpaceOnUse" x1="1954.7196" y1="2891.01" x2="1725.355" y2="3165.9709">
				<stop  offset="0.0036" style="stop-color:#E38DDD"/>
				<stop  offset="1" style="stop-color:#9571F6"/>
			</linearGradient>
			<path style="fill:url(#SVGID_00000131325093865553009810000011515181258126280864_);" d="M1818.2,3103.488
				c-17.547-24.361-43.286-68.317-47.902-127.124c-1.902-24.232-5.617-71.56,23.337-112.385
				c14.431-20.348,45.034-50.442,65.712-41.761c13.305,5.586,21.565,26.832,17.81,42.989c-3.786,16.291-17.555,17.8-32.549,45.446
				c-5.548,10.23-11.887,22.238-7.017,29.022c4.067,5.666,15.24,6.697,23.616,3.299c17.304-7.019,11.897-28.562,30.604-44.014
				c13.302-10.988,35.476-16.153,45.045-7.153c8.308,7.814,6.861,26.069-0.481,38.238c-11.756,19.485-32.836,13.769-46.579,35.071
				c-6.097,9.45-10.431,23.725-5.095,29.368c6.08,6.431,23.974,0.87,35.442-6.24c15.141-9.386,15.7-19.373,25.672-20.625
				c11.122-1.396,25.028,9.196,27.203,20.914c3.046,16.413-17.09,34.114-33.035,41.804c-20.413,9.845-35.58,4.067-45.55,17.518
				c-3.659,4.937-7.011,12.994-4.01,17.884c4.281,6.976,19.753,4.673,30.026,3.144c25.002-3.722,31.885-12.788,40.844-8.383
				c9.07,4.46,13.748,19.525,9.826,30.092c-2.18,5.873-8.729,14.97-41.179,20.666
				C1907.225,3115.244,1869.065,3118.049,1818.2,3103.488z"/>
		</g>
		<g>
			
				<linearGradient id="SVGID_00000152263341385244531120000005901851846761011091_" gradientUnits="userSpaceOnUse" x1="2293.0559" y1="1316.6829" x2="3072.4883" y2="1316.6829">
				<stop  offset="0" style="stop-color:#AA80F9"/>
				<stop  offset="0.9964" style="stop-color:#6165D7"/>
			</linearGradient>
			<path style="fill:url(#SVGID_00000152263341385244531120000005901851846761011091_);" d="M3072.488,1291.837
				c0,215.499-173.648,401.804-388.514,416.167c-215.6,14.412-390.918-149.646-390.918-366.478s175.319-403.244,390.918-416.32
				C2898.84,912.173,3072.488,1076.338,3072.488,1291.837z"/>
			<path style="fill:#FFFFFF;" d="M2670.248,1528.402c-16.899,1.106-32.622-6.756-41.369-20.802l-146.912-235.908
				c-13.768-22.107-6.35-52.388,16.562-67.628c22.892-15.231,52.602-9.668,66.353,12.43l101.885,163.757l134.435-273.796
				c12.064-24.572,41.052-35.844,64.726-25.186c23.671,10.653,33.089,39.193,21.041,63.749l-173.728,354.11
				c-7.956,16.213-23.771,27.371-41.296,29.133C2671.378,1528.317,2670.813,1528.365,2670.248,1528.402z"/>
		</g>
	</g>
</g>
</svg>
